Medium.sfdir
StartChar: exclam
Encoding: 33 33 1
Width: 276
Flags: MW
LayerCount: 2
Back
Fore
SplineSet
68 63 m 0
 68 72 81 81 97 95 c 0
 110 107 123 133 142 133 c 0
 151 133 156 124 165 115 c 0
 199 79 218 79 218 62 c 0
 218 45 191 33 180 22 c 0
 168 10 157 -13 143 -13 c 0
 134 -13 111 8 101 21 c 0
 92 33 68 45 68 63 c 0
98 651 m 0
 98 675 117 689 147 689 c 0
 176 689 193 683 193 657 c 0
 193 650 191 642 188 618 c 0
 176 520 179 420 153 210 c 0
 152 203 149 199 139 199 c 0
 131 199 127 202 127 208 c 0
 102 506 111 447 107 507 c 0
 102 577 98 605 98 651 c 0
EndSplineSet
EndChar
StartChar: numbersign
Encoding: 35 35 3
Width: 533
Flags: MW
LayerCount: 2
Back
Fore
SplineSet
59 139 m 2
 59 142 l 2
 59 156 59 163 73 163 c 2
 155 163 l 2
 157 163 158 163 158 165 c 0
 164 210 177 295 177 300 c 0
 177 304 174 305 170 305 c 2
 75 305 l 2
 65 305 59 307 59 325 c 0
 59 339 62 347 75 347 c 2
 177 347 l 2
 183 347 186 349 186 354 c 0
 212 540 209 538 212 543 c 0
 216 549 220 550 234 550 c 0
 241 550 254 549 254 538 c 0
 254 532 228 358 228 352 c 0
 228 348 229 347 234 347 c 2
 332 347 l 2
 336 347 340 348 341 354 c 0
 367 540 366 540 369 544 c 0
 373 550 380 550 392 550 c 0
 400 550 408 550 408 540 c 0
 408 531 383 361 383 352 c 0
 383 349 384 347 388 347 c 2
 457 347 l 2
 471 347 475 339 475 322 c 0
 475 307 469 305 460 305 c 2
 379 305 l 2
 375 305 375 302 374 299 c 0
 368 256 356 173 356 169 c 0
 356 165 358 163 363 163 c 2
 458 163 l 2
 468 163 475 161 475 143 c 0
 475 128 471 121 458 121 c 2
 360 121 l 2
 351 121 350 117 349 111 c 0
 324 -66 331 -66 303 -66 c 0
 289 -66 284 -60 284 -53 c 0
 284 -47 307 110 307 115 c 0
 307 120 304 121 300 121 c 2
 234 121 l 2
 195 121 194 119 193 113 c 0
 170 -58 170 -55 169 -58 c 0
 165 -64 160 -66 146 -66 c 0
 137 -66 128 -63 128 -53 c 0
 128 -47 151 109 151 114 c 0
 151 119 149 121 143 121 c 2
 73 121 l 2
 60 121 59 129 59 139 c 2
201 168 m 0
 201 164 204 163 209 163 c 2
 304 163 l 2
 308 163 313 163 314 170 c 0
 327 265 332 292 332 300 c 0
 332 303 332 305 326 305 c 2
 228 305 l 2
 222 305 220 302 219 298 c 0
 213 255 201 173 201 168 c 0
EndSplineSet
EndChar
StartChar: dollar
Encoding: 36 36 4
Width: 533
Flags: MW
LayerCount: 2
Back
Fore
SplineSet
64 96 m 0
 64 98 67 166 87 166 c 0
 108 166 113 137 134 98 c 0
 155 60 206 27 244 27 c 0
 253 27 254 33 254 42 c 0
 254 168 257 207 257 324 c 0
 257 337 237 344 221 349 c 0
 160 369 87 407 87 513 c 0
 87 611 167 682 252 693 c 0
 260 694 265 696 265 716 c 0
 265 728 264 732 264 743 c 0
 264 760 270 766 286 766 c 0
 307 766 308 760 308 748 c 0
 308 721 307 707 307 703 c 0
 307 698 308 694 312 694 c 0
 427 680 457 614 457 607 c 0
 457 589 440 543 427 543 c 0
 420 543 416 549 414 554 c 0
 394 597 351 652 312 652 c 0
 303 652 303 641 303 633 c 0
 303 486 298 499 298 437 c 0
 298 416 299 412 311 409 c 0
 429 376 488 317 488 208 c 0
 488 67 385 12 313 -7 c 0
 294 -12 292 -10 292 -26 c 2
 292 -45 l 1
 292 -108 l 2
 292 -146 287 -150 270 -150 c 0
 251 -150 249 -140 249 -129 c 0
 249 -96 252 -55 252 -31 c 0
 252 -25 252 -12 246 -12 c 0
 181 -12 103 26 75 60 c 0
 65 72 64 83 64 96 c 0
146 539 m 0
 146 480 186 445 251 428 c 1
 253 428 l 2
 261 428 262 439 262 445 c 0
 262 532 263 557 263 641 c 0
 263 648 258 653 252 653 c 0
 231 653 146 621 146 539 c 0
293 40 m 0
 293 31 295 27 300 27 c 0
 306 27 428 40 428 185 c 0
 428 294 307 320 304 320 c 0
 299 320 297 315 297 306 c 0
 297 200 293 146 293 40 c 0
EndSplineSet
EndChar
StartChar: ampersand
Encoding: 38 38 6
Width: 947
Flags: MW
LayerCount: 2
Back
Fore
SplineSet
59 242 m 0
 59 287 76 342 99 371 c 0
 153 437 221 434 221 442 c 0
 221 454 173 484 173 571 c 0
 173 667 279 704 361 704 c 0
 421 704 444 681 462 681 c 0
 470 681 475 684 484 684 c 0
 499 684 500 672 500 661 c 0
 500 658 504 615 504 593 c 0
 504 553 503 552 493 552 c 0
 472 552 424 667 336 667 c 0
 266 667 243 619 243 590 c 0
 243 537 327 453 407 374 c 0
 511 271 619 179 631 179 c 0
 643 179 657 206 657 263 c 0
 657 342 626 353 600 366 c 0
 581 375 562 366 562 384 c 0
 562 394 566 395 587 395 c 0
 647 395 601 393 736 393 c 0
 749 393 755 388 755 380 c 0
 755 359 719 377 715 324 c 0
 713 298 708 263 706 245 c 0
 700 201 670 158 670 149 c 0
 670 136 774 73 850 35 c 0
 870 25 884 25 893 25 c 0
 906 25 919 28 929 28 c 0
 937 28 942 24 942 19 c 0
 942 -3 897 -19 845 -19 c 0
 707 -19 631 82 621 82 c 0
 602 82 551 -22 358 -22 c 0
 274 -22 59 5 59 242 c 0
125 276 m 0
 125 189 209 45 412 45 c 0
 508 45 580 100 580 109 c 0
 580 119 491 172 346 316 c 0
 254 407 246 421 234 421 c 0
 198 421 125 366 125 276 c 0
EndSplineSet
EndChar
StartChar: parenleft
Encoding: 40 40 8
Width: 326
Flags: MW
LayerCount: 2
Back
Fore
SplineSet
73 278 m 0
 73 593 274 772 295 772 c 0
 313 772 316 762 316 751 c 0
 316 722 118 623 118 277 c 0
 118 -41 313 -168 313 -195 c 0
 313 -208 299 -214 293 -214 c 0
 260 -214 73 0 73 278 c 0
EndSplineSet
EndChar
StartChar: plus
Encoding: 43 43 11
Width: 527
Flags: MW
LayerCount: 2
Back
Fore
SplineSet
31 212 m 0
 31 225 31 232 49 232 c 2
 219 232 l 2
 238 232 241 240 241 251 c 2
 241 427 l 2
 241 442 248 442 262 442 c 0
 276 442 286 442 286 422 c 2
 286 259 l 2
 286 245 287 232 303 232 c 2
 480 232 l 2
 496 232 496 225 496 211 c 0
 496 194 496 188 475 188 c 2
 303 188 l 2
 286 188 286 182 286 170 c 2
 286 -5 l 2
 286 -22 277 -22 266 -22 c 0
 246 -22 241 -22 241 -4 c 2
 241 170 l 2
 241 188 234 188 217 188 c 2
 48 188 l 2
 30 188 31 195 31 212 c 0
EndSplineSet
EndChar
StartChar: hyphen
Encoding: 45 45 13
Width: 340
Flags: MW
LayerCount: 2
Back
Fore
SplineSet
44 145 m 2
 44 156 l 2
 44 198 56 199 101 212 c 0
 229 250 252 268 274 268 c 0
 292 268 296 252 296 234 c 2
 296 228 l 2
 296 189 286 196 199 168 c 0
 108 138 84 124 60 124 c 0
 45 124 44 133 44 145 c 2
EndSplineSet
EndChar
StartChar: period
Encoding: 46 46 14
Width: 252
Flags: MW
LayerCount: 2
Back
Fore
SplineSet
54 55 m 0
 54 64 69 80 85 94 c 0
 98 106 108 129 127 129 c 0
 135 129 152 109 168 90 c 0
 177 80 198 65 198 55 c 0
 198 43 178 33 163 19 c 0
 151 7 139 -16 125 -16 c 0
 109 -16 98 11 85 21 c 0
 68 33 54 45 54 55 c 0
EndSplineSet
EndChar
StartChar: slash
Encoding: 47 47 15
Width: 416
Flags: MW
LayerCount: 2
Back
Fore
SplineSet
20 -170 m 0
 20 -161 31 -136 39 -113 c 2
 39 -113 344 710 346 717 c 0
 351 732 357 735 375 735 c 0
 384 735 396 733 396 723 c 0
 396 714 387 692 382 679 c 2
 78 -152 l 2
 67 -183 61 -183 46 -183 c 0
 34 -183 20 -183 20 -170 c 0
EndSplineSet
EndChar
StartChar: five
Encoding: 53 53 21
Width: 527
Flags: MW
LayerCount: 2
Back
Fore
SplineSet
65 16 m 0
 65 26 72 31 79 31 c 0
 99 31 112 8 191 8 c 0
 306 8 381 108 381 223 c 0
 381 304 335 375 231 375 c 0
 167 375 159 366 143 366 c 0
 124 366 120 384 120 391 c 0
 120 415 144 521 163 660 c 0
 165 674 173 686 195 686 c 0
 384 688 391 685 411 700 c 0
 428 713 432 726 444 726 c 0
 451 726 456 720 456 715 c 0
 456 711 454 705 452 700 c 0
 412 619 412 612 390 612 c 0
 383 612 350 613 324 613 c 0
 249 613 197 603 194 597 c 0
 185 576 170 480 170 457 c 0
 170 449 174 442 177 442 c 0
 180 442 196 450 262 450 c 0
 324 450 380 425 411 390 c 0
 447 350 463 298 463 260 c 0
 463 64 323 -29 205 -29 c 0
 156 -29 65 -17 65 16 c 0
EndSplineSet
EndChar
StartChar: seven
Encoding: 55 55 23
Width: 527
Flags: MW
LayerCount: 2
Back
Fore
SplineSet
77 562 m 0
 77 600 94 642 100 679 c 0
 101 688 111 691 116 691 c 0
 148 691 149 687 278 687 c 2
 309 687 l 2
 398 687 406 689 424 689 c 0
 439 689 450 680 450 668 c 0
 450 524 279 232 279 72 c 0
 279 -9 300 -25 300 -42 c 0
 300 -66 246 -73 238 -73 c 0
 211 -73 188 -64 188 15 c 0
 188 170 331 392 374 512 c 0
 389 554 397 587 397 602 c 0
 397 606 390 615 377 615 c 0
 372 615 365 616 358 616 c 0
 346 616 287 614 240 614 c 0
 222 614 224 615 210 615 c 0
 135 615 119 589 109 556 c 0
 105 542 99 522 90 522 c 0
 81 522 77 539 77 562 c 0
EndSplineSet
EndChar
StartChar: nine
Encoding: 57 57 25
Width: 527
Flags: MW
LayerCount: 2
Back
Fore
SplineSet
57 464 m 0
 57 593 139 710 269 710 c 0
 401 710 490 588 490 441 c 0
 490 312 431 157 306 62 c 0
 227 2 138 -28 96 -28 c 0
 81 -28 80 -20 80 -15 c 0
 80 -11 80 -4 95 -1 c 0
 153 11 226 54 289 119 c 0
 339 171 379 273 379 292 c 0
 379 297 377 298 375 298 c 0
 366 298 321 241 251 241 c 0
 122 241 57 351 57 464 c 0
131 515 m 0
 131 411 191 289 277 289 c 0
 370 289 404 366 404 451 c 0
 404 544 350 666 252 666 c 0
 168 666 131 595 131 515 c 0
EndSplineSet
EndChar
StartChar: colon
Encoding: 58 58 26
Width: 260
Flags: MW
LayerCount: 2
Back
Fore
SplineSet
59 55 m 0
 59 64 78 80 94 94 c 0
 107 106 117 127 136 127 c 0
 144 127 156 109 172 90 c 0
 181 80 202 65 202 55 c 0
 202 43 182 33 167 19 c 0
 155 7 144 -16 130 -16 c 0
 114 -16 102 11 89 21 c 0
 72 33 59 45 59 55 c 0
66 336 m 0
 66 345 81 360 96 373 c 0
 109 384 116 406 134 406 c 0
 142 406 160 382 170 369 c 0
 178 359 196 349 196 335 c 0
 196 324 180 314 166 301 c 0
 154 290 146 268 130 268 c 0
 114 268 105 294 96 303 c 0
 82 317 66 327 66 336 c 0
EndSplineSet
EndChar
StartChar: semicolon
Encoding: 59 59 27
Width: 262
Flags: MW
LayerCount: 2
Back
Fore
SplineSet
59 342 m 0
 59 351 75 366 90 379 c 0
 103 390 107 413 128 413 c 0
 136 413 155 388 165 375 c 0
 173 365 193 354 193 340 c 0
 193 329 177 319 163 306 c 0
 151 295 141 273 125 273 c 0
 109 273 99 300 90 309 c 0
 76 323 59 333 59 342 c 0
61 54 m 0
 61 68 78 78 93 93 c 0
 105 105 111 125 134 125 c 0
 139 125 204 87 204 0 c 0
 204 -94 112 -168 85 -168 c 0
 81 -168 73 -161 73 -153 c 0
 73 -132 134 -117 134 -48 c 0
 134 -10 111 9 79 33 c 0
 62 45 61 44 61 54 c 0
EndSplineSet
EndChar
StartChar: less
Encoding: 60 60 28
Width: 527
Flags: MW
LayerCount: 2
Back
Fore
SplineSet
41 211 m 0
 41 221 41 225 56 231 c 0
 463 379 462 381 468 381 c 0
 477 381 487 377 487 356 c 0
 487 347 479 342 471 340 c 2
 166 229 l 2
 147 222 124 213 124 208 c 0
 124 203 146 197 166 190 c 2
 476 78 l 2
 482 76 487 72 487 65 c 0
 487 57 481 41 463 41 c 0
 457 41 460 41 55 188 c 0
 41 193 41 197 41 211 c 0
EndSplineSet
EndChar
StartChar: equal
Encoding: 61 61 29
Width: 527
Flags: MW
LayerCount: 2
Back
Fore
SplineSet
31 114 m 0
 31 127 31 135 49 135 c 2
 480 135 l 2
 496 135 496 128 496 114 c 0
 496 97 496 90 475 90 c 2
 48 90 l 2
 30 90 31 97 31 114 c 0
31 310 m 0
 31 323 31 330 49 330 c 2
 480 330 l 2
 496 330 496 323 496 309 c 0
 496 292 496 286 475 286 c 2
 48 286 l 2
 30 286 31 293 31 310 c 0
EndSplineSet
EndChar
StartChar: greater
Encoding: 62 62 30
Width: 527
Flags: MW
LayerCount: 2
Back
Fore
SplineSet
41 65 m 0
 41 72 45 76 51 78 c 2
 362 190 l 2
 382 197 404 203 404 208 c 0
 404 213 381 222 362 229 c 2
 56 340 l 2
 48 342 41 347 41 356 c 0
 41 377 50 381 59 381 c 0
 65 381 64 379 471 231 c 0
 486 225 487 221 487 211 c 0
 487 197 486 193 472 188 c 0
 67 41 70 41 64 41 c 0
 46 41 41 57 41 65 c 0
EndSplineSet
EndChar
StartChar: question
Encoding: 63 63 31
Width: 350
Flags: MW
LayerCount: 2
Back
Fore
SplineSet
75 612 m 0
 75 631 120 673 179 673 c 0
 245 673 313 635 313 559 c 0
 313 461 173 357 173 251 c 0
 173 232 178 215 178 205 c 0
 178 199 176 195 170 195 c 0
 148 195 138 252 138 274 c 0
 138 345 230 485 230 548 c 0
 230 607 164 628 139 628 c 0
 109 628 92 603 84 603 c 0
 78 603 75 609 75 612 c 0
97 59 m 0
 97 68 118 87 133 100 c 0
 146 112 158 132 172 132 c 0
 182 132 203 101 207 97 c 0
 211 93 241 72 241 62 c 0
 241 45 218 37 207 26 c 0
 195 14 183 -9 170 -9 c 0
 161 -9 140 11 130 24 c 0
 121 36 97 45 97 59 c 0
EndSplineSet
EndChar
StartChar: B
Encoding: 66 66 34
Width: 630
Flags: MW
LayerCount: 2
Back
Fore
SplineSet
20 694 m 0
 20 700 23 709 29 709 c 0
 39 709 39 708 69 708 c 0
 105 708 197 709 215 709 c 0
 258 709 290 712 325 712 c 0
 439 712 538 656 538 545 c 0
 538 440 438 402 438 396 c 0
 438 384 601 379 601 208 c 0
 601 151 562 75 517 44 c 0
 455 1 411 -8 343 -8 c 0
 274 -8 189 3 164 3 c 0
 140 3 112 -1 78 -1 c 2
 64 -1 l 2
 54 -1 43 1 43 14 c 0
 43 18 44 28 54 28 c 0
 65 28 70 29 77 29 c 0
 91 29 119 46 122 122 c 0
 125 187 125 322 125 434 c 2
 125 604 l 2
 125 613 120 682 37 682 c 0
 31 682 20 682 20 694 c 0
201 92 m 0
 201 35 264 32 299 32 c 2
 322 32 l 2
 352 32 382 33 408 37 c 0
 470 47 516 108 516 184 c 0
 516 356 353 364 320 364 c 0
 227 364 236 366 227 366 c 0
 206 366 202 364 202 204 c 2
 202 196 l 2
 202 113 201 102 201 92 c 0
207 545 m 2
 207 413 210 402 220 401 c 0
 239 399 243 398 271 398 c 2
 335 398 l 2
 424 398 461 452 461 516 c 0
 461 576 403 677 259 677 c 0
 220 677 207 665 207 574 c 2
 207 545 l 2
EndSplineSet
EndChar
StartChar: C
Encoding: 67 67 35
Width: 807
Flags: MW
LayerCount: 2
Back
Fore
SplineSet
44 324 m 0
 44 537 175 714 423 714 c 0
 561 714 673 641 682 641 c 0
 689 641 695 651 703 651 c 0
 709 651 718 646 718 635 c 0
 720 569 732 507 732 495 c 0
 732 479 724 477 720 477 c 0
 714 477 707 484 703 491 c 0
 645 600 553 673 423 673 c 0
 258 673 138 557 138 384 c 0
 138 203 227 26 470 26 c 0
 594 26 672 115 712 176 c 0
 716 183 720 183 727 183 c 0
 733 183 736 176 736 169 c 0
 736 145 722 92 718 71 c 0
 716 62 710 57 702 53 c 0
 615 11 548 -20 444 -20 c 0
 142 -20 44 167 44 324 c 0
EndSplineSet
EndChar
StartChar: D
Encoding: 68 68 36
Width: 792
Flags: MW
LayerCount: 2
Back
Fore
SplineSet
20 700 m 0
 20 712 29 712 71 712 c 2
 158 712 l 2
 211 712 285 716 353 716 c 0
 533 716 748 606 748 390 c 0
 748 196 690 135 603 63 c 0
 570 36 487 -3 399 -3 c 0
 375 -3 231 2 159 2 c 0
 99 2 79 -3 59 -3 c 0
 38 -3 35 2 35 10 c 0
 35 28 50 25 70 33 c 0
 91 42 113 72 113 98 c 0
 113 204 114 283 114 369 c 0
 114 450 113 503 113 623 c 0
 113 645 87 674 60 676 c 0
 39 677 20 678 20 700 c 0
197 141 m 0
 197 55 208 67 288 44 c 0
 309 38 335 34 361 34 c 2
 381 34 l 2
 474 34 532 60 589 115 c 0
 645 169 663 267 663 345 c 0
 663 569 475 673 320 673 c 0
 201 673 200 672 200 546 c 0
 200 507 198 373 198 354 c 0
 198 250 197 183 197 141 c 0
EndSplineSet
EndChar
StartChar: F
Encoding: 70 70 38
Width: 554
Flags: MW
LayerCount: 2
Back
Fore
SplineSet
20 697 m 0
 20 700 23 714 46 714 c 2
 73 714 l 2
 142 714 139 708 290 708 c 0
 423 708 417 713 517 713 c 0
 524 713 534 710 534 689 c 0
 534 669 526 638 520 587 c 0
 519 575 513 567 505 567 c 0
 497 567 491 573 491 587 c 0
 491 622 479 654 445 656 c 0
 357 663 301 668 265 668 c 0
 196 668 200 651 198 604 c 0
 196 568 195 483 195 437 c 0
 195 419 195 388 213 387 c 0
 222 387 231 386 238 386 c 0
 253 386 265 387 281 387 c 2
 312 387 l 2
 398 387 408 392 427 405 c 0
 433 409 438 414 441 419 c 0
 454 439 445 459 465 459 c 0
 477 459 478 455 478 443 c 0
 478 425 469 395 469 360 c 0
 469 326 476 297 476 278 c 0
 476 254 470 253 462 253 c 0
 447 253 443 264 441 278 c 0
 438 296 438 318 419 326 c 0
 397 336 326 340 322 340 c 2
 235 340 l 2
 214 340 194 337 194 321 c 0
 194 264 192 233 192 177 c 0
 192 163 191 150 191 137 c 0
 191 111 199 33 271 33 c 0
 294 33 301 22 301 15 c 0
 301 10 296 -4 270 -4 c 0
 239 -4 199 4 173 4 c 0
 118 4 101 -2 52 -2 c 0
 42 -2 32 -2 32 9 c 0
 32 27 34 25 75 40 c 0
 118 55 112 121 114 357 c 0
 114 412 117 469 117 531 c 2
 117 589 l 2
 117 621 113 657 70 677 c 0
 48 688 20 676 20 697 c 0
EndSplineSet
EndChar
StartChar: H
Encoding: 72 72 40
Width: 791
Flags: MW
LayerCount: 2
Back
Fore
SplineSet
20 699 m 0
 20 710 35 710 48 710 c 0
 76 710 105 706 161 706 c 0
 204 706 186 708 249 708 c 0
 256 708 271 707 271 694 c 0
 271 685 268 677 236 677 c 0
 205 677 198 591 198 552 c 2
 198 515 l 2
 198 472 196 443 196 423 c 0
 196 389 201 384 230 384 c 0
 263 384 247 385 394 385 c 0
 416 385 453 384 583 383 c 0
 593 383 594 389 594 522 c 2
 594 576 l 2
 594 716 510 657 510 696 c 0
 510 704 525 706 549 706 c 0
 573 706 607 704 646 704 c 0
 670 704 688 706 724 706 c 0
 733 706 747 703 747 693 c 0
 747 680 737 680 733 680 c 0
 694 680 676 653 676 618 c 0
 675 522 673 451 673 375 c 0
 673 327 671 279 671 225 c 2
 671 188 l 2
 671 134 675 124 675 96 c 0
 675 37 732 25 759 22 c 0
 762 22 771 21 771 11 c 0
 771 1 758 0 722 0 c 0
 699 0 674 5 645 5 c 0
 607 5 598 0 551 0 c 0
 525 0 515 0 515 13 c 0
 515 32 577 27 584 65 c 0
 589 91 591 116 591 138 c 0
 591 158 592 176 592 192 c 0
 592 229 594 270 594 315 c 0
 594 333 587 342 531 342 c 0
 505 342 414 339 408 339 c 0
 325 339 288 342 224 342 c 0
 206 342 199 340 199 305 c 0
 199 257 195 221 195 182 c 2
 195 139 l 2
 195 88 198 62 242 34 c 0
 247 31 264 29 285 29 c 0
 295 29 304 23 304 18 c 0
 304 2 289 0 272 0 c 0
 218 0 222 4 189 4 c 0
 137 4 117 -1 81 -1 c 0
 40 -1 34 6 34 14 c 0
 34 41 93 13 108 78 c 0
 111 94 121 227 121 345 c 2
 121 402 l 2
 121 431 122 469 122 510 c 0
 122 551 121 593 116 629 c 0
 111 665 70 682 41 682 c 0
 25 682 20 696 20 699 c 0
EndSplineSet
EndChar
StartChar: I
Encoding: 73 73 41
Width: 328
Flags: MW
LayerCount: 2
Back
Fore
SplineSet
20 695 m 0
 20 702 24 710 48 710 c 0
 76 710 105 706 161 706 c 0
 204 706 186 708 249 708 c 0
 256 708 276 707 276 694 c 0
 276 685 259 679 230 667 c 0
 202 656 198 591 198 552 c 0
 198 317 195 274 195 182 c 0
 195 121 201 89 220 61 c 0
 241 32 258 30 268 30 c 0
 271 30 285 29 288 29 c 0
 298 29 309 23 309 18 c 0
 309 2 301 0 284 0 c 0
 230 0 222 4 189 4 c 0
 137 4 115 -1 79 -1 c 0
 38 -1 34 6 34 14 c 0
 34 41 93 13 108 78 c 0
 110 86 119 277 119 345 c 2
 119 402 l 2
 119 431 120 469 120 510 c 2
 120 556 l 2
 120 582 119 607 116 629 c 0
 111 665 69 679 41 680 c 0
 21 681 20 690 20 695 c 0
EndSplineSet
EndChar
StartChar: K
Encoding: 75 75 43
Width: 724
Flags: MW
LayerCount: 2
Back
Fore
SplineSet
20 695 m 0
 20 702 24 708 48 708 c 0
 76 708 105 706 161 706 c 0
 204 706 178 708 247 708 c 0
 254 708 264 707 264 695 c 0
 264 685 245 683 229 674 c 0
 203 659 198 591 198 552 c 0
 198 462 195 417 195 396 c 0
 195 378 197 375 204 375 c 0
 215 375 501 607 501 655 c 0
 501 677 468 679 451 683 c 0
 442 685 440 694 440 697 c 0
 440 708 449 708 456 708 c 0
 462 708 470 707 481 707 c 0
 490 707 515 705 541 705 c 0
 545 705 665 708 665 708 c 2
 679 708 685 705 685 695 c 0
 685 679 662 681 627 666 c 0
 612 660 600 650 578 636 c 0
 560 625 584 642 291 396 c 0
 283 390 280 382 280 382 c 2
 280 376 286 371 291 366 c 0
 577 84 609 42 671 32 c 0
 692 29 705 28 705 14 c 0
 705 2 703 1 647 1 c 2
 550 1 l 2
 524 1 538 4 453 91 c 0
 224 323 227 324 211 324 c 0
 199 324 197 309 197 297 c 0
 197 295 198 276 198 220 c 0
 198 159 198 89 213 62 c 0
 231 31 270 30 280 30 c 0
 283 30 285 29 288 29 c 0
 298 29 309 23 309 18 c 0
 309 2 301 0 284 0 c 0
 230 0 222 4 189 4 c 0
 137 4 115 -1 79 -1 c 0
 46 -1 43 4 43 10 c 2
 43 14 l 2
 43 30 79 22 98 42 c 0
 119 63 119 148 119 268 c 2
 119 402 l 2
 119 431 117 469 117 510 c 2
 117 556 l 2
 117 582 117 607 114 629 c 0
 110 664 69 679 41 680 c 0
 21 681 20 690 20 695 c 0
EndSplineSet
EndChar
StartChar: L
Encoding: 76 76 44
Width: 603
Flags: MW
LayerCount: 2
Back
Fore
SplineSet
20 695 m 0
 20 710 39 713 47 713 c 0
 55 713 64 711 74 711 c 0
 98 711 121 707 161 707 c 0
 215 707 248 711 266 711 c 0
 279 711 283 709 283 701 c 0
 283 658 208 714 201 593 c 0
 198 531 193 186 193 175 c 2
 193 135 l 2
 193 102 200 61 217 56 c 0
 239 49 245 48 260 48 c 0
 579 48 542 143 571 143 c 0
 577 143 583 138 583 126 c 0
 583 66 505 -5 465 -5 c 0
 337 -5 251 5 190 5 c 0
 135 5 114 -3 65 -3 c 0
 45 -3 36 2 36 9 c 0
 36 20 47 25 52 25 c 0
 56 25 67 25 81 35 c 0
 103 52 115 78 115 231 c 2
 115 355 l 2
 115 410 118 466 118 528 c 0
 118 557 117 587 116 619 c 0
 114 661 74 680 35 681 c 0
 21 681 20 687 20 695 c 0
EndSplineSet
EndChar
StartChar: M
Encoding: 77 77 45
Width: 919
Flags: MW
LayerCount: 2
Back
Fore
SplineSet
20 695 m 0
 20 702 23 710 38 710 c 0
 49 710 82 706 91 706 c 0
 118 706 147 708 166 708 c 0
 178 708 187 702 190 694 c 0
 284 490 444 137 458 137 c 0
 469 137 480 169 491 192 c 2
 620 458 l 2
 726 679 717 671 723 683 c 0
 730 696 726 710 761 710 c 0
 804 710 784 708 847 708 c 0
 854 708 864 708 864 695 c 0
 864 683 859 677 831 673 c 0
 800 669 786 651 786 564 c 0
 786 329 798 274 798 182 c 0
 798 44 816 27 881 27 c 0
 891 27 899 18 899 13 c 0
 899 -3 894 -3 877 -3 c 0
 823 -3 808 1 775 1 c 0
 723 1 707 -4 671 -4 c 0
 655 -4 653 4 653 10 c 0
 653 39 702 7 718 75 c 0
 720 85 722 109 722 139 c 0
 722 252 708 466 708 469 c 0
 708 497 704 512 699 512 c 0
 690 512 678 485 660 449 c 2
 521 168 l 2
 445 13 450 12 438 12 c 0
 418 12 413 47 384 106 c 0
 196 488 198 489 190 489 c 0
 185 489 182 479 182 449 c 0
 180 303 173 261 173 185 c 2
 173 140 l 2
 173 87 174 34 250 26 c 0
 256 26 264 20 264 15 c 0
 264 -1 260 -3 249 -3 c 0
 215 -3 159 1 145 1 c 0
 133 1 107 -2 63 -2 c 0
 50 -2 42 -1 42 14 c 0
 42 41 96 1 118 90 c 0
 125 120 137 397 137 489 c 0
 137 618 122 659 33 680 c 0
 20 683 20 690 20 695 c 0
EndSplineSet
EndChar
StartChar: O
Encoding: 79 79 47
Width: 853
Flags: MW
LayerCount: 2
Back
Fore
SplineSet
44 339 m 0
 44 554 176 722 431 722 c 0
 733 722 809 494 809 392 c 0
 809 111 636 -16 417 -16 c 0
 169 -16 44 159 44 339 c 0
132 390 m 0
 132 263 223 28 449 28 c 0
 560 28 727 116 727 300 c 0
 727 552 573 682 397 682 c 0
 263 682 132 594 132 390 c 0
EndSplineSet
EndChar
StartChar: P
Encoding: 80 80 48
Width: 564
Flags: MW
LayerCount: 2
Back
Fore
SplineSet
20 694 m 0
 20 702 27 710 43 710 c 0
 53 710 50 711 80 711 c 0
 91 711 122 708 140 708 c 0
 183 708 270 711 305 711 c 0
 419 711 535 653 535 527 c 0
 535 354 370 319 317 319 c 0
 275 319 219 331 219 342 c 0
 219 353 225 357 232 357 c 0
 246 357 257 349 283 349 c 0
 337 349 450 377 450 489 c 0
 450 567 384 671 247 671 c 0
 208 671 194 659 194 569 c 0
 194 174 192 468 192 156 c 0
 192 87 210 56 233 41 c 0
 268 19 316 45 316 10 c 0
 316 -4 304 -7 293 -7 c 0
 253 -7 165 -2 150 -2 c 0
 125 -2 101 -6 57 -6 c 0
 46 -6 26 -6 26 5 c 0
 26 28 41 28 64 34 c 0
 78 38 83 31 99 78 c 0
 109 107 114 371 114 431 c 0
 114 536 113 575 113 601 c 0
 113 625 99 681 40 681 c 0
 29 681 20 684 20 694 c 0
EndSplineSet
EndChar
StartChar: Q
Encoding: 81 81 49
Width: 839
Flags: MW
LayerCount: 2
Back
Fore
SplineSet
45 339 m 0
 45 550 152 722 432 722 c 0
 724 722 795 476 795 367 c 0
 795 229 718 57 581 20 c 0
 521 3 510 1 510 -3 c 0
 510 -9 517 -17 529 -22 c 0
 609 -58 754 -127 836 -127 c 0
 902 -127 901 -94 929 -94 c 0
 934 -94 939 -103 939 -106 c 0
 939 -154 851 -194 765 -194 c 0
 618 -194 318 10 242 10 c 0
 175 10 152 -49 152 -96 c 2
 152 -114 l 2
 152 -128 149 -140 134 -140 c 0
 121 -140 110 -119 110 -98 c 0
 110 -34 146 21 174 41 c 0
 185 49 196 55 196 59 c 0
 196 62 186 70 174 78 c 0
 89 139 45 234 45 339 c 0
136 390 m 0
 136 310 160 221 210 152 c 0
 266 74 383 28 448 28 c 0
 505 28 557 48 592 66 c 0
 636 89 717 177 717 300 c 0
 717 515 574 682 398 682 c 0
 264 682 136 594 136 390 c 0
EndSplineSet
EndChar
StartChar: T
Encoding: 84 84 52
Width: 703
Flags: MW
LayerCount: 2
Back
Fore
SplineSet
20 580 m 0
 20 609 26 658 30 683 c 0
 33 705 31 718 61 718 c 0
 131 718 122 710 343 710 c 0
 491 710 598 712 651 715 c 0
 653 715 656 716 658 716 c 0
 675 716 677 702 677 699 c 0
 677 687 683 626 683 618 c 0
 683 583 680 580 667 580 c 0
 665 580 659 581 656 592 c 0
 643 639 639 658 555 658 c 2
 425 658 l 2
 393 658 390 654 390 594 c 2
 390 545 l 2
 390 312 387 270 387 179 c 0
 387 153 386 132 386 114 c 0
 386 87 388 69 400 57 c 0
 438 20 484 39 484 13 c 0
 484 -3 477 -4 460 -4 c 0
 434 -4 382 4 349 4 c 0
 323 4 279 -3 247 -3 c 0
 226 -3 210 1 210 13 c 0
 210 34 237 30 262 36 c 0
 280 40 297 49 300 76 c 0
 308 146 310 412 310 454 c 0
 310 560 309 633 309 633 c 2
 309 658 306 661 233 661 c 0
 85 661 83 650 72 636 c 0
 45 600 56 563 31 563 c 0
 25 563 20 566 20 580 c 0
EndSplineSet
EndChar
StartChar: U
Encoding: 85 85 53
Width: 815
Flags: MW
LayerCount: 2
Back
Fore
SplineSet
20 697 m 0
 20 704 20 710 43 710 c 0
 71 710 100 706 156 706 c 0
 203 706 175 708 250 708 c 0
 259 708 271 707 271 694 c 0
 271 660 201 724 201 580 c 2
 201 552 l 2
 201 465 200 395 200 336 c 0
 200 199 200 28 432 28 c 0
 544 28 691 29 691 324 c 0
 691 494 690 494 690 536 c 0
 690 590 689 646 654 670 c 0
 630 687 592 676 592 692 c 0
 592 700 596 708 612 708 c 0
 624 708 678 706 689 706 c 0
 731 706 755 709 774 709 c 0
 795 709 795 701 795 696 c 0
 795 680 758 674 747 653 c 0
 738 636 736 624 736 587 c 0
 736 570 737 550 737 520 c 0
 737 138 698 55 575 3 c 0
 539 -12 466 -19 432 -19 c 0
 310 -19 243 1 195 45 c 0
 115 118 114 209 114 414 c 2
 114 431 l 2
 114 500 116 544 116 575 c 0
 116 644 110 668 42 678 c 0
 21 681 20 692 20 697 c 0
EndSplineSet
EndChar
StartChar: V
Encoding: 86 86 54
Width: 807
Flags: MW
LayerCount: 2
Back
Fore
SplineSet
20 696 m 0
 20 709 37 710 48 710 c 0
 70 710 92 706 158 706 c 0
 176 706 202 708 223 708 c 0
 253 708 256 707 256 697 c 0
 256 682 215 683 215 650 c 0
 215 608 247 557 355 312 c 0
 388 236 442 119 455 119 c 0
 465 119 667 596 667 649 c 0
 667 696 595 676 595 700 c 0
 595 709 598 710 616 710 c 0
 628 710 644 709 679 709 c 0
 717 709 719 711 768 711 c 0
 779 711 787 709 787 697 c 0
 787 675 750 687 723 625 c 2
 500 117 l 2
 436 -29 442 -30 431 -30 c 0
 425 -30 411 -24 386 39 c 0
 354 118 328 173 283 271 c 0
 141 579 141 611 113 643 c 0
 63 699 20 661 20 696 c 0
EndSplineSet
EndChar
StartChar: X
Encoding: 88 88 56
Width: 751
Flags: MW
LayerCount: 2
Back
Fore
SplineSet
20 701 m 0
 20 712 24 714 62 714 c 0
 104 714 92 710 151 710 c 0
 162 710 248 712 256 712 c 0
 270 712 278 712 278 703 c 0
 278 675 233 697 233 664 c 0
 233 643 269 593 287 567 c 0
 349 473 376 428 387 428 c 0
 394 428 399 434 410 450 c 0
 451 510 542 632 542 655 c 0
 542 702 489 677 489 704 c 0
 489 712 494 714 504 714 c 0
 547 714 550 710 585 710 c 0
 679 710 656 714 679 714 c 0
 687 714 695 712 695 704 c 0
 695 682 663 691 620 661 c 0
 603 649 588 630 567 602 c 0
 505 519 412 396 412 392 c 0
 412 380 425 369 538 205 c 0
 571 157 640 63 668 40 c 0
 677 32 731 32 731 13 c 0
 731 5 729 -1 699 -1 c 0
 667 -1 603 6 592 6 c 0
 527 6 502 0 490 0 c 0
 482 0 477 2 477 13 c 0
 477 39 528 21 528 56 c 0
 528 80 468 159 372 303 c 0
 366 313 358 320 355 320 c 0
 351 320 345 307 334 289 c 0
 270 189 187 100 187 55 c 0
 187 46 190 28 241 28 c 0
 248 28 253 24 253 11 c 0
 253 1 243 0 222 0 c 0
 204 0 143 3 134 3 c 0
 116 3 75 -1 54 -1 c 0
 36 -1 25 0 25 18 c 0
 25 39 57 20 96 51 c 0
 146 91 206 180 258 253 c 0
 299 310 332 349 332 356 c 0
 332 365 298 405 196 551 c 0
 164 598 106 671 60 681 c 0
 47 684 20 684 20 701 c 0
EndSplineSet
EndChar
StartChar: Z
Encoding: 90 90 58
Width: 563
Flags: MW
LayerCount: 2
Back
Fore
SplineSet
20 14 m 0
 20 27 51 58 96 139 c 0
 172 274 393 620 393 646 c 0
 393 656 375 657 350 657 c 0
 259 657 204 654 167 653 c 0
 73 651 65 558 48 558 c 0
 43 558 35 561 35 574 c 0
 35 609 43 624 43 640 c 0
 43 656 45 662 48 687 c 0
 50 704 56 708 76 708 c 0
 97 708 163 705 292 705 c 0
 410 705 384 706 472 706 c 0
 501 706 515 703 515 691 c 0
 515 666 148 85 148 64 c 0
 148 44 200 44 264 44 c 0
 389 44 441 47 491 75 c 0
 519 91 523 110 535 110 c 0
 536 110 543 109 543 99 c 0
 543 84 527 55 512 31 c 0
 501 13 499 0 470 0 c 0
 363 0 372 -1 287 -1 c 0
 29 -1 122 -2 40 -2 c 0
 29 -2 20 0 20 14 c 0
EndSplineSet
EndChar
StartChar: bracketleft
Encoding: 91 91 59
Width: 287
Flags: MW
LayerCount: 2
Back
Fore
SplineSet
78 -82 m 2
 78 77 84 372 84 570 c 0
 84 671 83 721 83 738 c 0
 83 761 96 763 132 763 c 2
 175 763 l 2
 228 763 234 764 241 764 c 0
 250 764 257 754 257 743 c 0
 257 732 253 723 245 723 c 0
 226 723 162 722 153 722 c 2
 137 722 l 2
 132 722 129 722 129 714 c 0
 129 698 131 652 131 559 c 0
 131 402 126 165 126 15 c 0
 126 -27 126 -82 127 -132 c 0
 127 -144 129 -159 139 -159 c 0
 157 -159 220 -158 229 -158 c 0
 247 -158 253 -163 253 -180 c 0
 253 -202 239 -204 201 -204 c 2
 111 -204 l 2
 81 -204 78 -198 78 -143 c 2
 78 -82 l 2
EndSplineSet
EndChar
StartChar: asciicircum
Encoding: 94 94 62
Width: 333
Flags: MW
LayerCount: 2
Back
Fore
SplineSet
29 331 m 0
 29 336 38 350 42 356 c 0
 129 502 135 521 162 521 c 0
 190 521 196 501 282 356 c 0
 286 350 293 334 293 329 c 0
 293 322 284 321 275 321 c 2
 260 321 l 2
 243 321 238 339 230 354 c 0
 185 437 171 468 162 468 c 0
 152 468 139 437 94 354 c 0
 86 339 80 322 63 322 c 2
 49 322 l 2
 39 322 29 324 29 331 c 0
EndSplineSet
EndChar
StartChar: grave
Encoding: 96 96 64
Width: 439
Flags: MW
LayerCount: 2
Back
Fore
SplineSet
109 636 m 0
 109 657 158 662 162 662 c 0
 166 662 175 659 182 643 c 0
 234 518 258 505 258 491 c 0
 258 485 252 480 246 480 c 0
 238 480 222 495 207 511 c 0
 166 554 109 615 109 636 c 0
EndSplineSet
EndChar
StartChar: b
Encoding: 98 98 66
Width: 547
Flags: MW
LayerCount: 2
Back
Fore
SplineSet
12 691 m 0
 12 712 58 721 77 729 c 0
 98 738 131 756 141 756 c 0
 147 756 156 749 156 738 c 0
 156 702 155 743 155 411 c 0
 155 385 157 375 162 375 c 0
 178 375 178 442 320 442 c 0
 446 442 508 336 508 235 c 0
 508 182 479 80 417 33 c 0
 380 5 334 -11 278 -11 c 0
 185 -11 138 47 131 47 c 0
 120 47 107 -17 82 -17 c 0
 72 -17 70 -13 70 -4 c 0
 70 20 74 72 74 78 c 0
 74 154 83 229 83 342 c 2
 83 589 l 2
 83 632 75 680 38 680 c 2
 28 680 l 2
 20 680 12 682 12 691 c 0
155 132 m 2
 155 109 199 25 301 25 c 0
 398 25 443 102 443 185 c 0
 443 282 381 388 267 388 c 0
 238 388 208 378 187 360 c 0
 158 336 155 325 155 313 c 2
 155 132 l 2
EndSplineSet
EndChar
StartChar: c
Encoding: 99 99 67
Width: 452
Flags: MW
LayerCount: 2
Back
Fore
SplineSet
39 192 m 0
 39 314 129 429 271 429 c 0
 312 429 386 415 388 396 c 0
 389 384 390 366 390 349 c 0
 390 326 387 305 379 305 c 0
 365 305 363 323 346 337 c 0
 323 357 266 390 213 390 c 0
 193 390 114 363 114 224 c 0
 114 122 188 31 285 31 c 0
 365 31 404 83 417 83 c 0
 423 83 428 78 428 73 c 0
 428 64 375 -21 246 -21 c 0
 122 -21 39 58 39 192 c 0
EndSplineSet
EndChar
StartChar: e
Encoding: 101 101 69
Width: 466
Flags: MW
LayerCount: 2
Back
Fore
SplineSet
39 194 m 0
 39 324 120 432 242 432 c 0
 392 432 426 288 426 273 c 0
 426 259 413 255 385 255 c 2
 158 255 l 1
 128 255 l 2
 117 255 117 254 117 244 c 0
 117 111 203 42 286 42 c 0
 357 42 400 87 417 87 c 0
 422 87 427 82 427 78 c 0
 427 67 367 -19 250 -19 c 0
 143 -19 39 45 39 194 c 0
123 293 m 0
 123 284 125 279 136 279 c 0
 182 279 295 285 312 285 c 0
 331 285 333 288 333 297 c 0
 333 323 304 407 225 407 c 0
 153 407 123 328 123 293 c 0
EndSplineSet
EndChar
StartChar: f
Encoding: 102 102 70
Width: 345
Flags: MW
LayerCount: 2
Back
Fore
SplineSet
29 385 m 0
 29 410 39 415 71 415 c 2
 92 415 l 2
 109 415 110 424 110 438 c 0
 110 644 258 747 330 747 c 0
 361 747 382 736 382 719 c 0
 382 713 379 703 376 691 c 0
 370 671 369 659 353 659 c 0
 341 659 345 685 282 685 c 0
 198 685 177 556 177 458 c 2
 177 433 l 2
 177 422 179 414 189 414 c 0
 231 414 264 418 285 422 c 0
 294 424 300 432 306 432 c 0
 309 432 311 428 311 424 c 0
 311 407 302 395 297 386 c 0
 293 380 284 377 272 377 c 0
 225 377 256 376 194 376 c 0
 185 376 178 375 178 366 c 2
 178 308 l 2
 178 290 182 153 183 110 c 0
 184 72 184 19 246 19 c 0
 262 19 263 11 263 4 c 0
 263 0 262 -6 252 -6 c 0
 249 -6 175 -1 152 -1 c 0
 115 -1 117 -6 78 -6 c 0
 69 -6 63 -3 63 8 c 0
 63 23 112 16 112 77 c 0
 112 105 108 171 108 359 c 0
 108 374 104 375 91 375 c 0
 80 375 68 372 51 372 c 0
 30 372 29 379 29 385 c 0
EndSplineSet
EndChar
StartChar: h
Encoding: 104 104 72
Width: 587
Flags: MW
LayerCount: 2
Back
Fore
SplineSet
20 697 m 0
 20 716 62 718 89 730 c 0
 116 742 149 758 161 758 c 0
 173 758 174 742 174 735 c 0
 174 721 167 707 167 673 c 0
 164 408 160 408 160 379 c 0
 160 367 162 360 168 360 c 0
 178 360 226 434 309 434 c 0
 412 434 480 376 480 237 c 2
 480 92 l 2
 480 77 485 37 513 34 c 0
 543 31 567 25 567 13 c 0
 567 0 552 -3 536 -3 c 0
 524 -3 473 2 452 2 c 0
 436 2 383 -1 375 -1 c 0
 362 -1 352 1 352 9 c 0
 352 42 406 4 406 72 c 0
 406 89 408 72 408 238 c 0
 408 320 350 388 284 388 c 0
 246 388 210 367 187 349 c 0
 163 330 159 310 159 164 c 2
 159 141 l 2
 159 93 162 46 199 30 c 0
 220 21 250 30 250 12 c 0
 250 6 245 0 239 0 c 0
 238 0 137 5 132 5 c 0
 118 5 76 0 61 0 c 0
 33 0 34 4 34 10 c 0
 34 15 35 20 46 23 c 0
 87 35 92 60 92 100 c 2
 96 441 l 1
 96 490 l 2
 96 665 96 686 54 686 c 0
 39 686 40 687 37 687 c 0
 26 687 20 691 20 697 c 0
EndSplineSet
EndChar
StartChar: i
Encoding: 105 105 73
Width: 284
Flags: MW
LayerCount: 2
Back
Fore
SplineSet
36 381 m 0
 36 397 61 398 117 421 c 0
 153 436 151 439 167 439 c 0
 173 439 182 434 182 420 c 0
 182 408 176 389 176 372 c 2
 176 98 l 2
 176 33 207 27 232 25 c 0
 249 24 262 24 262 10 c 0
 262 4 261 -7 245 -7 c 0
 241 -7 235 -6 230 -6 c 0
 188 -6 197 -4 159 -4 c 0
 117 -4 105 -6 88 -6 c 0
 63 -6 48 -3 48 7 c 0
 48 14 54 23 63 26 c 0
 102 39 104 33 104 206 c 2
 104 294 l 2
 104 377 68 363 46 371 c 0
 41 373 36 377 36 381 c 0
93 590 m 0
 93 603 121 645 143 645 c 0
 166 645 189 608 189 588 c 0
 189 564 151 533 142 533 c 0
 113 533 93 574 93 590 c 0
EndSplineSet
EndChar
StartChar: j
Encoding: 106 106 74
Width: 281
Flags: MW
LayerCount: 2
Back
Fore
SplineSet
23 -137 m 0
 23 -120 28 -108 45 -108 c 0
 66 -108 87 -151 103 -151 c 0
 120 -151 126 -117 126 10 c 2
 126 314 l 2
 126 336 125 373 67 373 c 0
 58 373 51 374 51 383 c 0
 51 396 80 391 139 419 c 0
 160 429 178 440 186 440 c 0
 197 440 198 430 198 417 c 2
 198 406 l 2
 198 390 196 371 196 359 c 2
 196 35 l 2
 196 -59 169 -200 64 -200 c 0
 39 -200 25 -193 25 -173 c 0
 25 -162 23 -148 23 -137 c 0
116 591 m 0
 116 608 141 642 163 642 c 0
 186 642 211 611 211 591 c 0
 211 567 176 538 167 538 c 0
 138 538 116 575 116 591 c 0
EndSplineSet
EndChar
StartChar: m
Encoding: 109 109 77
Width: 827
Flags: MW
LayerCount: 2
Back
Fore
SplineSet
31 388 m 0
 31 409 76 404 119 423 c 0
 140 432 146 438 163 438 c 0
 172 438 175 425 175 409 c 0
 175 397 170 375 170 367 c 0
 170 361 170 355 176 355 c 0
 183 355 209 427 311 427 c 0
 419 427 429 348 439 348 c 0
 446 348 494 430 576 430 c 0
 680 430 727 357 735 280 c 0
 740 231 741 188 741 153 c 2
 741 121 l 2
 741 68 743 38 769 30 c 0
 777 28 807 28 807 11 c 0
 807 -4 785 -4 774 -4 c 0
 761 -4 728 0 708 0 c 0
 680 0 657 -4 636 -4 c 0
 625 -4 612 -2 612 6 c 0
 612 26 650 23 658 42 c 0
 661 50 662 68 662 88 c 2
 662 104 l 2
 662 325 656 313 624 352 c 0
 607 372 579 383 549 383 c 0
 499 383 446 338 446 329 c 0
 446 316 452 304 452 202 c 2
 452 117 l 2
 452 62 460 31 521 22 c 0
 536 20 539 9 539 6 c 0
 539 -5 526 -5 520 -5 c 0
 503 -5 476 0 447 0 c 0
 429 0 365 -5 356 -5 c 0
 349 -5 334 -2 334 8 c 0
 334 17 337 20 357 28 c 0
 364 30 380 32 380 90 c 0
 380 104 381 91 381 199 c 0
 381 262 379 256 379 262 c 0
 379 331 342 379 277 379 c 0
 221 379 169 345 169 306 c 2
 169 292 l 1
 169 104 l 2
 169 0 253 35 253 12 c 0
 253 1 253 -3 232 -3 c 0
 217 -3 191 0 148 0 c 0
 108 0 84 -3 69 -3 c 0
 46 -3 45 5 45 12 c 0
 45 33 77 13 91 56 c 0
 97 77 99 137 99 208 c 0
 99 247 98 289 98 330 c 0
 98 400 31 356 31 388 c 0
EndSplineSet
EndChar
StartChar: o
Encoding: 111 111 79
Width: 547
Flags: MW
LayerCount: 2
Back
Fore
SplineSet
39 203 m 0
 39 316 118 431 275 431 c 0
 392 431 508 355 508 209 c 0
 508 59 388 -18 268 -18 c 0
 115 -18 39 92 39 203 c 0
118 237 m 0
 118 91 213 12 298 12 c 0
 369 12 433 66 433 179 c 0
 433 285 374 404 251 404 c 0
 193 404 118 361 118 237 c 0
EndSplineSet
EndChar
StartChar: p
Encoding: 112 112 80
Width: 555
Flags: MW
LayerCount: 2
Back
Fore
SplineSet
31 385 m 0
 31 397 59 393 129 426 c 0
 162 442 165 445 171 445 c 0
 178 445 184 442 184 432 c 0
 184 396 180 385 180 373 c 0
 180 368 182 365 183 365 c 0
 190 365 235 434 333 434 c 0
 458 434 516 337 516 233 c 0
 516 119 440 -9 301 -9 c 0
 196 -9 187 29 172 29 c 0
 170 29 169 26 169 21 c 2
 169 -89 l 1
 169 -102 l 2
 169 -124 180 -139 186 -149 c 0
 213 -191 273 -156 273 -188 c 0
 273 -191 270 -200 239 -200 c 0
 213 -200 214 -196 135 -196 c 0
 103 -196 85 -199 72 -199 c 0
 41 -199 38 -196 38 -189 c 0
 38 -158 100 -202 100 -82 c 2
 100 -62 l 2
 100 135 103 172 103 214 c 2
 103 236 l 2
 103 336 101 374 56 374 c 0
 31 374 31 378 31 385 c 0
169 192 m 0
 169 172 170 162 170 142 c 0
 170 44 262 21 317 21 c 0
 408 21 451 100 451 185 c 0
 451 282 396 384 294 384 c 0
 253 384 224 369 203 352 c 0
 178 332 169 319 169 192 c 0
EndSplineSet
EndChar
StartChar: t
Encoding: 116 116 84
Width: 342
Flags: MW
LayerCount: 2
Back
Fore
SplineSet
27 384 m 0
 27 400 45 402 80 438 c 0
 120 480 136 520 156 520 c 0
 164 520 167 514 167 497 c 0
 167 479 163 459 163 440 c 0
 163 421 163 420 204 420 c 2
 239 420 l 2
 304 420 305 434 316 434 c 0
 323 434 326 429 326 423 c 0
 326 413 302 368 294 368 c 0
 221 369 189 375 188 375 c 0
 162 375 158 370 158 342 c 0
 158 314 154 209 154 156 c 0
 154 75 165 40 240 40 c 0
 276 40 303 59 314 59 c 0
 321 59 324 57 324 47 c 0
 324 32 274 -10 215 -10 c 0
 88 -10 80 68 80 107 c 2
 80 122 l 2
 80 210 84 347 84 355 c 0
 84 368 80 371 63 371 c 0
 56 371 49 370 44 370 c 0
 32 370 27 372 27 384 c 0
EndSplineSet
EndChar
StartChar: v
Encoding: 118 118 86
Width: 523
Flags: MW
LayerCount: 2
Back
Fore
SplineSet
20 416 m 0
 20 425 33 427 39 427 c 0
 46 427 70 423 110 423 c 0
 139 423 139 422 168 422 c 0
 181 422 196 425 207 425 c 0
 217 425 225 421 225 414 c 0
 225 398 215 397 201 397 c 0
 183 397 159 396 159 369 c 0
 159 348 184 303 228 204 c 0
 249 159 273 95 282 95 c 0
 295 95 394 329 394 360 c 0
 394 420 332 377 332 412 c 0
 332 423 343 425 363 425 c 0
 380 425 403 424 430 424 c 0
 450 424 465 425 476 425 c 0
 499 425 504 421 504 410 c 0
 504 397 486 403 465 374 c 0
 403 288 288 -14 253 -14 c 0
 233 -14 244 -13 119 264 c 0
 45 428 20 391 20 416 c 0
EndSplineSet
EndChar
StartChar: x
Encoding: 120 120 88
Width: 548
Flags: MW
LayerCount: 2
Back
Fore
SplineSet
29 14 m 0
 29 26 39 19 75 41 c 0
 136 79 199 155 232 191 c 0
 234 194 236 196 236 202 c 0
 236 212 193 256 151 311 c 0
 117 355 83 382 74 383 c 0
 49 388 31 401 31 413 c 0
 31 421 38 425 45 425 c 0
 86 425 85 420 123 420 c 0
 154 420 175 424 204 424 c 0
 227 424 230 420 230 411 c 0
 230 397 197 402 197 382 c 0
 197 370 214 352 228 332 c 0
 269 274 282 253 289 253 c 0
 291 253 294 255 299 261 c 0
 371 353 375 354 375 373 c 0
 375 401 329 396 329 412 c 0
 329 417 329 424 355 424 c 0
 374 424 393 423 418 423 c 0
 437 423 458 425 487 425 c 0
 496 425 506 419 506 412 c 0
 506 393 479 410 421 352 c 0
 372 303 306 233 306 226 c 0
 306 219 312 221 397 117 c 0
 421 88 458 37 507 23 c 0
 516 21 519 20 519 11 c 0
 519 2 516 -1 485 -1 c 0
 471 -1 452 1 426 1 c 0
 403 1 386 -1 367 -1 c 2
 356 -1 l 2
 333 -1 322 0 322 9 c 0
 322 21 357 17 357 38 c 0
 357 68 302 117 269 166 c 0
 265 172 263 175 260 175 c 0
 257 175 251 167 249 165 c 0
 207 112 172 84 172 54 c 0
 172 9 219 36 219 8 c 0
 219 2 219 -1 178 -1 c 0
 160 -1 148 2 126 2 c 0
 106 2 89 -2 73 -2 c 0
 46 -2 29 1 29 14 c 0
EndSplineSet
EndChar
StartChar: braceleft
Encoding: 123 123 91
Width: 273
Flags: MW
LayerCount: 2
Back
Fore
SplineSet
42 267 m 0
 42 299 79 288 79 321 c 0
 79 450 75 589 75 734 c 0
 75 749 85 752 93 752 c 0
 113 752 130 744 155 744 c 0
 191 744 204 750 222 750 c 0
 229 750 240 748 240 740 c 0
 240 703 166 685 140 685 c 0
 136 685 133 680 133 676 c 0
 132 532 130 368 130 255 c 0
 130 162 133 14 133 -105 c 0
 133 -115 175 -114 207 -131 c 0
 214 -135 241 -152 241 -172 c 0
 241 -176 240 -181 233 -181 c 0
 228 -181 201 -172 161 -172 c 0
 108 -172 107 -186 86 -186 c 0
 79 -186 74 -181 74 -174 c 0
 74 -44 77 88 77 202 c 0
 77 243 42 237 42 267 c 0
EndSplineSet
EndChar
StartChar: asciitilde
Encoding: 126 126 94
Width: 380
Flags: MW
LayerCount: 2
Back
Fore
SplineSet
29 172 m 0
 29 175 78 265 134 265 c 0
 180 265 205 220 251 220 c 0
 299 220 320 269 331 269 c 0
 344 269 351 262 351 254 c 0
 351 249 299 164 234 164 c 0
 181 164 163 210 121 210 c 0
 75 210 58 156 49 156 c 0
 36 156 29 160 29 172 c 0
EndSplineSet
EndChar
StartChar: exclamdown
Encoding: 161 161 100
Width: 276
Flags: MW
LayerCount: 2
Back
Fore
SplineSet
59 615 m 0
 59 632 86 643 97 654 c 0
 109 666 120 689 134 689 c 0
 143 689 165 669 175 656 c 0
 184 644 208 631 208 613 c 0
 208 604 195 596 179 582 c 0
 166 570 154 544 135 544 c 0
 126 544 120 553 111 562 c 0
 77 598 59 598 59 615 c 0
83 20 m 0
 83 27 85 35 88 59 c 0
 100 157 98 257 124 467 c 0
 125 474 127 478 137 478 c 0
 145 478 149 474 149 468 c 0
 174 170 165 230 169 170 c 0
 174 100 179 71 179 25 c 0
 179 1 159 -13 129 -13 c 0
 100 -13 83 -6 83 20 c 0
EndSplineSet
EndChar
StartChar: cent
Encoding: 162 162 101
Width: 452
Flags: MW
LayerCount: 2
Back
Fore
SplineSet
39 192 m 0
 39 290 97 383 192 416 c 0
 230 429 231 417 231 445 c 2
 231 481 l 2
 231 487 239 491 247 491 c 0
 258 491 271 487 271 482 c 2
 271 436 l 2
 271 423 279 433 335 422 c 0
 348 420 362 416 375 409 c 0
 386 403 390 404 390 349 c 0
 390 335 389 305 379 305 c 0
 359 305 373 331 295 369 c 0
 283 375 279 376 276 376 c 0
 273 376 270 373 270 356 c 0
 269 103 268 77 268 45 c 0
 268 37 269 31 285 31 c 0
 365 31 404 83 417 83 c 0
 423 83 428 78 428 73 c 0
 428 63 382 -6 280 -19 c 0
 268 -20 267 -19 267 -33 c 2
 267 -91 l 2
 267 -100 257 -102 246 -102 c 0
 240 -102 229 -100 229 -93 c 2
 229 -29 l 2
 229 -11 224 -28 169 -9 c 0
 89 18 39 88 39 192 c 0
114 224 m 0
 114 102 212 45 224 45 c 0
 227 45 229 48 229 60 c 0
 229 92 229 187 230 376 c 0
 230 390 229 390 213 390 c 0
 193 390 114 363 114 224 c 0
EndSplineSet
EndChar
StartChar: sterling
Encoding: 163 163 102
Width: 557
Flags: MW
LayerCount: 2
Back
Fore
SplineSet
20 43 m 0
 20 68 37 100 88 100 c 0
 126 100 162 79 168 79 c 0
 174 83 188 119 188 149 c 0
 188 207 148 292 140 311 c 0
 132 329 133 333 115 333 c 0
 102 333 81 332 35 332 c 0
 30 332 21 335 21 354 c 0
 21 373 27 375 34 375 c 2
 92 375 l 2
 107 375 109 376 109 377 c 0
 109 383 78 450 78 522 c 0
 78 663 183 719 280 719 c 0
 365 719 447 676 447 615 c 0
 447 592 420 565 407 565 c 0
 387 565 386 602 365 635 c 0
 346 665 304 683 262 683 c 0
 204 683 147 650 147 569 c 0
 147 500 177 437 195 396 c 0
 202 378 205 376 214 376 c 2
 369 376 l 2
 390 376 390 372 390 354 c 0
 390 339 389 333 367 333 c 2
 245 333 l 2
 236 333 223 332 223 329 c 0
 223 324 250 262 250 203 c 0
 250 129 213 73 210 67 c 1
 221 64 284 50 349 50 c 0
 487 50 507 151 524 151 c 0
 531 151 537 145 537 136 c 0
 537 102 500 -17 381 -17 c 0
 286 -17 190 24 182 27 c 0
 167 26 144 -11 81 -11 c 0
 40 -11 20 16 20 43 c 0
58 44 m 0
 58 32 71 17 91 17 c 0
 120 17 144 43 146 47 c 1
 142 52 110 63 86 63 c 0
 70 63 58 59 58 44 c 0
EndSplineSet
EndChar
StartChar: currency
Encoding: 164 164 106
Width: 527
Flags: MW
LayerCount: 2
Back
Fore
SplineSet
20 44 m 0
 20 56 29 65 38 74 c 2
 106 143 l 1
 81 176 67 217 67 262 c 0
 67 305 81 347 105 379 c 1
 38 448 l 2
 36 450 20 463 20 478 c 0
 20 494 33 505 46 505 c 0
 58 505 68 496 77 487 c 2
 146 418 l 1
 178 442 220 457 263 457 c 0
 310 457 350 441 381 418 c 1
 450 487 l 2
 452 489 465 504 480 504 c 0
 496 504 507 491 507 478 c 0
 507 466 498 457 489 448 c 2
 420 378 l 1
 444 345 461 304 461 260 c 0
 461 217 444 176 420 144 c 1
 489 74 l 2
 491 72 507 59 507 44 c 0
 507 28 493 17 480 17 c 0
 468 17 459 26 450 35 c 2
 381 104 l 1
 349 80 307 65 263 65 c 0
 220 65 178 79 146 103 c 1
 77 35 l 2
 75 33 61 18 46 18 c 0
 30 18 20 31 20 44 c 0
124 260 m 0
 124 181 187 120 263 120 c 0
 339 120 403 183 403 261 c 0
 403 338 340 404 263 404 c 0
 185 404 124 338 124 260 c 0
EndSplineSet
EndChar
StartChar: yen
Encoding: 165 165 95
Width: 712
Flags: MW
LayerCount: 2
Back
Fore
SplineSet
20 688 m 0
 20 703 32 705 82 705 c 0
 95 705 123 703 140 703 c 0
 163 703 197 704 225 704 c 0
 260 704 275 699 275 692 c 0
 275 671 233 676 233 657 c 0
 233 627 269 581 287 553 c 0
 329 487 388 406 395 406 c 2
 403 406 l 2
 417 406 424 432 466 494 c 0
 501 547 542 605 542 632 c 0
 542 692 468 659 468 693 c 0
 468 703 478 705 496 705 c 0
 507 705 521 704 537 704 c 0
 582 704 605 703 643 703 c 0
 671 703 692 702 692 688 c 0
 692 678 670 678 649 661 c 0
 605 626 558 554 514 485 c 2
 483 438 l 2
 471 420 463 413 463 409 c 0
 463 406 464 405 575 405 c 0
 581 405 589 399 589 382 c 0
 589 363 582 362 575 362 c 0
 451 362 465 361 438 361 c 0
 424 361 414 352 414 254 c 0
 414 243 415 241 423 241 c 0
 426 241 431 242 437 242 c 2
 562 242 l 2
 585 242 585 235 585 219 c 0
 585 206 585 197 560 197 c 0
 508 197 457 196 431 196 c 0
 416 196 414 195 414 183 c 0
 414 178 415 163 415 133 c 2
 415 109 l 2
 415 37 455 29 468 29 c 0
 471 29 485 25 488 25 c 0
 498 25 503 19 503 14 c 0
 503 1 496 0 485 0 c 0
 448 0 416 1 388 1 c 0
 339 1 284 -4 269 -4 c 0
 247 -4 244 1 244 8 c 0
 244 28 263 21 284 27 c 0
 304 33 326 50 326 89 c 0
 326 97 328 147 328 183 c 0
 328 196 326 197 311 197 c 2
 248 197 l 2
 213 197 183 198 173 198 c 0
 167 198 159 203 159 220 c 0
 159 239 165 241 172 241 c 2
 193 241 l 1
 292 241 l 1
 307 241 l 2
 325 241 329 243 329 258 c 0
 329 265 328 274 328 292 c 0
 328 324 319 358 301 360 c 0
 297 360 292 361 286 361 c 2
 186 361 l 2
 163 361 162 368 162 384 c 0
 162 397 163 405 188 405 c 0
 279 405 279 406 279 408 c 0
 279 410 274 417 265 431 c 2
 167 577 l 2
 104 671 74 675 45 675 c 0
 36 675 20 675 20 688 c 0
EndSplineSet
EndChar
StartChar: section
Encoding: 167 167 105
Width: 542
Flags: MW
LayerCount: 2
Back
Fore
SplineSet
59 275 m 0
 59 391 160 416 160 425 c 0
 160 438 72 455 72 552 c 0
 72 650 155 720 264 720 c 0
 345 720 370 693 394 693 c 0
 398 693 409 700 417 700 c 0
 423 700 434 697 435 690 c 0
 442 644 455 569 455 555 c 0
 455 532 448 526 442 526 c 0
 409 526 430 616 333 665 c 0
 312 676 284 683 249 683 c 0
 164 683 133 621 133 585 c 0
 133 562 143 538 180 517 c 0
 276 463 483 447 483 287 c 0
 483 220 466 198 443 167 c 0
 422 138 407 138 407 131 c 0
 407 122 443 120 466 65 c 0
 474 45 479 25 479 9 c 0
 479 -112 382 -181 260 -181 c 0
 207 -181 168 -177 104 -143 c 0
 81 -131 60 8 60 16 c 0
 60 31 65 40 75 40 c 0
 82 40 90 35 93 28 c 0
 97 19 143 -136 268 -136 c 0
 345 -136 423 -100 423 -23 c 0
 423 97 59 75 59 275 c 0
119 307 m 0
 119 279 136 249 177 225 c 0
 209 205 359 153 364 153 c 0
 380 153 427 201 427 253 c 0
 427 307 379 342 315 367 c 2
 315 367 218 404 207 404 c 0
 195 404 119 371 119 307 c 0
EndSplineSet
EndChar
StartChar: dieresis
Encoding: 168 168 214
Width: 439
Flags: MW
LayerCount: 2
Back
Fore
SplineSet
103 591 m 0
 103 608 128 642 150 642 c 0
 173 642 198 611 198 591 c 0
 198 567 164 538 155 538 c 0
 126 538 103 575 103 591 c 0
263 591 m 0
 263 608 288 642 310 642 c 0
 333 642 358 611 358 591 c 0
 358 567 323 538 314 538 c 0
 285 538 263 575 263 591 c 0
EndSplineSet
EndChar
StartChar: ordfeminine
Encoding: 170 170 130
Width: 302
Flags: MW
LayerCount: 2
Back
Fore
SplineSet
29 446 m 0
 29 510 98 519 179 533 c 0
 186 534 190 534 190 542 c 0
 190 554 191 561 191 571 c 0
 191 623 150 636 133 636 c 0
 95 636 90 616 90 601 c 0
 90 593 93 585 93 580 c 0
 93 570 87 568 79 568 c 0
 70 568 33 571 33 592 c 0
 33 624 87 660 145 660 c 0
 246 660 246 607 246 584 c 0
 246 505 242 515 242 470 c 0
 242 420 252 413 267 413 c 0
 273 413 272 414 280 414 c 0
 285 414 288 408 288 404 c 0
 288 393 282 390 271 390 c 2
 247 390 l 2
 209 390 196 430 193 430 c 0
 190 430 159 386 107 386 c 0
 66 386 29 398 29 446 c 0
88 460 m 0
 88 434 104 417 134 417 c 0
 190 417 190 456 190 476 c 2
 190 516 l 2
 190 520 188 521 186 521 c 0
 184 521 182 520 180 520 c 0
 141 514 88 508 88 460 c 0
EndSplineSet
EndChar
StartChar: guillemotleft
Encoding: 171 171 108
Width: 360
Flags: MW
LayerCount: 2
Back
Fore
SplineSet
20 216 m 0
 20 221 23 224 26 227 c 0
 169 349 167 349 172 349 c 0
 179 349 188 337 188 331 c 0
 188 319 95 227 95 217 c 0
 95 205 188 114 188 102 c 0
 188 95 178 84 171 84 c 0
 166 84 168 84 25 208 c 0
 22 210 20 212 20 216 c 0
152 216 m 0
 152 221 154 224 158 227 c 0
 301 349 299 349 305 349 c 0
 312 349 321 337 321 331 c 0
 321 320 226 228 226 217 c 0
 226 206 319 111 319 102 c 0
 319 95 311 84 304 84 c 0
 298 84 301 84 158 208 c 0
 155 210 152 212 152 216 c 0
EndSplineSet
EndChar
StartChar: logicalnot
Encoding: 172 172 143
Width: 527
Flags: MW
LayerCount: 2
Back
Fore
SplineSet
31 215 m 0
 31 232 41 232 50 232 c 2
 477 232 l 2
 494 232 497 230 497 213 c 2
 497 55 l 2
 497 45 494 40 481 40 c 0
 462 40 452 40 452 60 c 2
 452 171 l 2
 452 185 442 188 426 188 c 2
 50 188 l 2
 31 188 31 196 31 215 c 0
EndSplineSet
EndChar
StartChar: registered
Encoding: 174 174 144
Width: 796
Flags: MW
LayerCount: 2
Back
Fore
SplineSet
44 335 m 0
 44 528 199 692 400 692 c 0
 599 692 756 529 756 335 c 0
 756 144 603 -21 399 -21 c 0
 207 -21 44 134 44 335 c 0
86 335 m 0
 86 158 231 21 400 21 c 0
 482 21 559 54 616 108 c 1
 604 109 583 112 565 121 c 0
 528 140 477 219 441 270 c 0
 412 312 397 318 389 318 c 2
 375 318 l 1
 332 318 l 2
 322 318 320 318 320 274 c 0
 320 187 321 196 321 187 c 0
 321 112 407 138 407 118 c 0
 407 112 404 108 394 108 c 0
 391 108 301 112 294 112 c 0
 261 112 226 109 218 109 c 0
 211 109 203 111 203 119 c 0
 203 141 262 114 262 182 c 0
 262 222 262 308 262 377 c 0
 262 442 262 464 262 481 c 0
 262 548 194 523 194 542 c 0
 194 550 199 552 214 552 c 2
 330 552 l 2
 360 552 376 554 400 554 c 0
 479 554 552 516 552 450 c 0
 552 358 464 342 464 332 c 0
 464 322 574 186 603 159 c 0
 605 157 620 142 642 134 c 1
 687 188 714 258 714 336 c 0
 714 503 579 649 399 649 c 0
 223 649 86 506 86 335 c 0
320 443 m 2
 320 362 320 350 326 347 c 0
 335 342 343 341 356 341 c 2
 363 341 l 1
 383 341 l 2
 468 341 493 383 493 427 c 0
 493 470 457 529 357 529 c 0
 321 529 320 517 320 461 c 2
 320 443 l 2
EndSplineSet
EndChar
StartChar: macron
Encoding: 175 175 126
Width: 439
Flags: MW
LayerCount: 2
Back
Fore
SplineSet
113 589 m 0
 113 604 122 608 129 608 c 0
 269 608 223 606 310 606 c 0
 322 606 325 604 325 577 c 0
 325 565 313 563 311 563 c 0
 293 563 159 564 123 564 c 0
 119 564 113 566 113 589 c 0
EndSplineSet
EndChar
StartChar: degree
Encoding: 176 176 145
Width: 259
Flags: MW
LayerCount: 2
Back
Fore
SplineSet
30 611 m 0
 30 653 71 713 132 713 c 0
 204 713 230 643 230 606 c 0
 230 533 149 504 131 504 c 0
 41 504 30 581 30 611 c 0
72 610 m 0
 72 573 96 548 131 548 c 0
 141 548 188 558 188 608 c 0
 188 630 180 669 131 669 c 0
 104 669 72 644 72 610 c 0
EndSplineSet
EndChar
StartChar: plusminus
Encoding: 177 177 146
Width: 527
Flags: MW
LayerCount: 2
Back
Fore
SplineSet
31 90 m 0
 31 108 31 117 49 117 c 2
 478 117 l 2
 493 117 496 112 496 97 c 0
 496 82 495 73 475 73 c 2
 48 73 l 2
 37 73 31 75 31 90 c 0
31 324 m 0
 31 336 34 346 49 346 c 2
 230 346 l 2
 239 346 241 350 241 356 c 2
 241 365 l 1
 241 495 l 2
 241 506 248 510 257 510 c 0
 281 510 285 507 285 493 c 2
 285 365 l 1
 285 357 l 2
 285 351 287 346 297 346 c 2
 480 346 l 2
 489 346 496 344 496 331 c 0
 496 311 496 301 475 301 c 2
 297 301 l 2
 287 301 285 294 285 284 c 2
 285 152 l 2
 285 139 279 138 269 138 c 0
 248 138 241 139 241 152 c 2
 241 284 l 2
 241 297 240 301 225 301 c 2
 48 301 l 2
 31 301 31 309 31 324 c 0
EndSplineSet
EndChar
StartChar: two.superior
Encoding: 178 178 147
Width: 337
Flags: MW
LayerCount: 2
Back
Fore
SplineSet
42 404 m 2
 42 406 l 2
 42 424 104 463 175 613 c 0
 191 647 202 688 202 723 c 0
 202 755 179 779 140 779 c 0
 81 779 64 743 52 743 c 0
 49 743 47 747 47 752 c 0
 47 759 83 830 166 830 c 0
 213 830 265 804 265 748 c 0
 265 643 113 471 113 460 c 0
 113 456 125 455 139 455 c 2
 153 455 l 2
 254 455 238 456 254 463 c 0
 273 471 287 494 296 494 c 0
 301 494 303 491 303 488 c 0
 303 483 260 409 260 409 c 2
 252 398 245 396 239 396 c 0
 165 396 162 398 132 398 c 0
 117 398 79 397 62 397 c 0
 43 397 42 400 42 404 c 2
EndSplineSet
EndChar
StartChar: three.superior
Encoding: 179 179 148
Width: 337
Flags: MW
LayerCount: 2
Back
Fore
SplineSet
40 429 m 0
 40 431 42 439 53 439 c 0
 62 439 74 412 127 412 c 0
 205 412 234 489 234 529 c 0
 234 571 215 614 147 614 c 0
 135 614 130 612 128 612 c 0
 121 612 120 618 120 621 c 0
 120 628 127 625 167 656 c 0
 190 674 204 701 204 724 c 0
 204 754 182 779 151 779 c 0
 113 779 85 745 74 745 c 0
 70 745 69 747 69 750 c 0
 69 773 130 824 172 824 c 0
 217 824 262 802 262 753 c 0
 262 710 235 689 204 664 c 0
 197 659 193 656 193 653 c 0
 193 649 221 651 250 632 c 0
 278 614 297 590 297 552 c 0
 297 454 222 383 138 383 c 0
 91 383 40 408 40 429 c 0
EndSplineSet
EndChar
StartChar: acute
Encoding: 180 180 215
Width: 439
Flags: MW
LayerCount: 2
Back
Fore
SplineSet
181 491 m 0
 181 505 204 518 256 643 c 0
 263 659 273 662 277 662 c 0
 281 662 329 657 329 636 c 0
 329 615 273 554 232 511 c 0
 217 495 201 480 193 480 c 0
 187 480 181 485 181 491 c 0
EndSplineSet
EndChar
StartChar: micro
Encoding: 181 181 149
Width: 536
Flags: MW
LayerCount: 2
Back
Fore
SplineSet
10 -146 m 0
 10 -46 49 44 77 167 c 0
 129 391 124 421 142 421 c 0
 144 421 188 417 188 396 c 0
 188 372 138 117 138 80 c 0
 138 65 142 44 158 44 c 0
 232 44 339 241 387 354 c 0
 415 421 404 421 421 421 c 0
 437 421 464 411 464 400 c 0
 464 386 402 123 402 75 c 0
 402 59 414 50 427 50 c 0
 466 50 475 122 495 122 c 0
 506 122 506 113 506 105 c 0
 506 64 446 -21 369 -21 c 0
 335 -21 329 13 329 51 c 0
 329 95 348 187 348 198 c 0
 348 202 347 204 346 204 c 0
 337 204 318 143 241 59 c 0
 204 18 153 -18 112 -18 c 0
 78 -18 74 25 70 25 c 0
 66 25 50 -49 50 -85 c 0
 50 -118 76 -157 76 -168 c 0
 76 -173 69 -199 40 -199 c 0
 19 -199 10 -182 10 -146 c 0
EndSplineSet
EndChar
StartChar: paragraph
Encoding: 182 182 216
Width: 505
Flags: MW
LayerCount: 2
Back
Fore
SplineSet
44 505 m 0
 44 636 155 715 243 715 c 0
 296 715 334 716 377 716 c 0
 395 716 415 718 437 718 c 2
 449 718 l 2
 453 718 458 711 458 708 c 0
 458 692 429 695 412 677 c 0
 404 668 398 651 398 611 c 0
 398 409 395 296 395 94 c 0
 395 -60 321 -185 204 -185 c 0
 178 -185 160 -183 137 -170 c 0
 133 -168 129 -153 129 -144 c 0
 129 -124 146 -78 159 -78 c 0
 179 -78 168 -155 237 -155 c 0
 300 -155 303 -20 303 55 c 0
 303 67 304 78 304 86 c 0
 304 152 301 216 301 307 c 0
 301 319 289 321 276 321 c 0
 179 321 44 337 44 505 c 0
227 503 m 0
 227 415 236 350 275 350 c 0
 286 350 302 357 302 369 c 2
 302 404 l 2
 302 446 300 481 300 517 c 0
 300 652 303 638 303 652 c 0
 303 680 296 693 275 693 c 0
 265 693 243 688 238 672 c 0
 227 637 227 628 227 503 c 0
326 506 m 0
 326 454 327 405 327 356 c 0
 327 191 330 59 330 26 c 0
 330 -41 327 -33 327 -48 c 0
 327 -55 328 -59 334 -59 c 0
 341 -59 371 13 371 120 c 0
 371 337 369 485 369 678 c 0
 369 689 357 696 346 696 c 0
 338 696 328 691 328 683 c 0
 327 619 326 560 326 506 c 0
EndSplineSet
EndChar
StartChar: periodcentered
Encoding: 183 183 116
Width: 252
Flags: MW
LayerCount: 2
Back
Fore
SplineSet
77 333 m 0
 77 346 104 387 126 387 c 0
 149 387 173 350 173 330 c 0
 173 306 135 275 126 275 c 0
 97 275 77 317 77 333 c 0
EndSplineSet
EndChar
StartChar: cedilla
Encoding: 184 184 128
Width: 439
Flags: MW
LayerCount: 2
Back
Fore
SplineSet
170 -79 m 0
 170 -75 179 -69 190 -61 c 0
 199 -55 207 -44 220 -44 c 0
 226 -44 272 -60 272 -105 c 0
 272 -172 204 -201 189 -201 c 0
 183 -201 180 -196 180 -194 c 0
 180 -184 222 -180 222 -139 c 0
 222 -95 170 -99 170 -79 c 0
EndSplineSet
EndChar
StartChar: one.superior
Encoding: 185 185 150
Width: 337
Flags: MW
LayerCount: 2
Back
Fore
SplineSet
82 762 m 0
 82 783 111 781 161 805 c 0
 184 816 195 831 205 831 c 0
 215 831 215 822 215 817 c 0
 215 812 209 794 209 787 c 0
 208 762 205 709 205 587 c 0
 205 526 203 489 203 468 c 0
 203 420 226 426 263 422 c 0
 270 421 275 419 275 409 c 0
 275 399 259 397 240 397 c 0
 221 397 202 398 178 398 c 0
 151 398 122 396 104 396 c 0
 92 396 85 399 85 408 c 0
 85 421 97 422 107 422 c 0
 128 422 139 423 142 446 c 0
 147 483 148 546 148 606 c 0
 148 725 149 714 149 726 c 0
 149 748 146 762 128 762 c 0
 112 762 106 750 90 750 c 0
 89 750 82 754 82 762 c 0
EndSplineSet
EndChar
StartChar: ordmasculine
Encoding: 186 186 134
Width: 363
Flags: MW
LayerCount: 2
Back
Fore
SplineSet
29 519 m 0
 29 588 81 658 183 658 c 0
 259 658 334 611 334 522 c 0
 334 430 256 384 178 384 c 0
 79 384 29 451 29 519 c 0
88 540 m 0
 88 454 145 407 196 407 c 0
 238 407 277 438 277 505 c 0
 277 568 242 638 168 638 c 0
 133 638 88 613 88 540 c 0
EndSplineSet
EndChar
StartChar: guillemotright
Encoding: 187 187 121
Width: 360
Flags: MW
LayerCount: 2
Back
Fore
SplineSet
39 102 m 0
 39 113 134 209 134 215 c 0
 134 226 41 322 41 331 c 0
 41 338 49 349 56 349 c 0
 62 349 59 349 202 225 c 0
 205 223 208 220 208 216 c 0
 208 211 205 209 201 206 c 0
 58 84 61 84 55 84 c 0
 48 84 39 96 39 102 c 0
171 102 m 0
 171 114 265 205 265 215 c 0
 265 227 172 325 172 331 c 0
 172 338 181 349 188 349 c 0
 193 349 191 349 334 225 c 0
 337 223 340 220 340 216 c 0
 340 211 336 209 333 206 c 0
 190 84 193 84 188 84 c 0
 181 84 171 96 171 102 c 0
EndSplineSet
EndChar
StartChar: onequarter
Encoding: 188 188 151
Width: 913
Flags: MW
LayerCount: 2
Back
Fore
SplineSet
82 585 m 0
 82 606 111 604 161 628 c 0
 184 639 195 654 205 654 c 0
 215 654 215 645 215 640 c 0
 215 635 209 617 209 610 c 0
 208 585 205 532 205 410 c 0
 205 349 203 312 203 291 c 0
 203 243 226 249 263 245 c 0
 270 244 275 242 275 232 c 0
 275 222 259 220 240 220 c 0
 221 220 202 221 178 221 c 0
 151 221 122 219 104 219 c 0
 92 219 85 222 85 231 c 0
 85 244 97 245 107 245 c 0
 128 245 139 246 142 269 c 0
 147 306 148 369 148 429 c 0
 148 548 149 537 149 549 c 0
 149 571 146 585 128 585 c 0
 112 585 106 573 90 573 c 0
 89 573 82 577 82 585 c 0
196 -72 m 0
 196 -56 587 523 653 622 c 0
 653 623 670 650 679 650 c 0
 686 650 697 642 697 637 c 0
 697 630 692 621 689 616 c 0
 218 -88 235 -85 223 -89 c 0
 220 -90 216 -91 213 -91 c 0
 197 -91 196 -82 196 -72 c 0
595 144 m 0
 595 159 602 168 774 382 c 0
 795 407 813 438 827 438 c 0
 833 438 838 434 838 426 c 0
 838 422 831 231 831 203 c 0
 831 191 831 189 839 189 c 0
 881 189 878 206 891 206 c 0
 893 206 898 205 898 197 c 0
 898 188 894 178 891 166 c 0
 890 160 889 135 876 135 c 0
 866 135 849 136 841 136 c 0
 833 136 829 133 829 125 c 0
 829 104 831 83 831 45 c 2
 831 -8 l 2
 831 -38 831 -34 804 -40 c 0
 793 -42 782 -43 779 -43 c 0
 767 -43 763 -33 763 -28 c 0
 763 -22 776 -2 776 132 c 0
 776 135 772 136 768 136 c 0
 760 136 768 135 685 135 c 0
 658 135 633 134 613 134 c 0
 600 134 595 135 595 144 c 0
660 192 m 0
 660 188 668 186 678 186 c 2
 759 186 l 2
 775 186 776 188 776 193 c 2
 776 199 l 2
 776 202 779 296 779 331 c 0
 779 342 778 347 776 347 c 0
 772 347 660 206 660 192 c 0
EndSplineSet
EndChar
StartChar: onehalf
Encoding: 189 189 152
Width: 913
Flags: MW
LayerCount: 2
Back
Fore
SplineSet
82 585 m 0
 82 606 111 604 161 628 c 0
 184 639 195 654 205 654 c 0
 215 654 215 645 215 640 c 0
 215 635 209 617 209 610 c 0
 208 585 205 532 205 410 c 0
 205 349 203 312 203 291 c 0
 203 243 226 249 263 245 c 0
 270 244 275 242 275 232 c 0
 275 222 259 220 240 220 c 0
 221 220 202 221 178 221 c 0
 151 221 122 219 104 219 c 0
 92 219 85 222 85 231 c 0
 85 244 97 245 107 245 c 0
 128 245 139 246 142 269 c 0
 147 306 148 369 148 429 c 0
 148 548 149 537 149 549 c 0
 149 571 146 585 128 585 c 0
 112 585 106 573 90 573 c 0
 89 573 82 577 82 585 c 0
196 -72 m 0
 196 -56 587 523 653 622 c 0
 653 623 670 650 679 650 c 0
 686 650 697 642 697 637 c 0
 697 630 692 621 689 616 c 0
 218 -88 235 -85 223 -89 c 0
 220 -90 216 -91 213 -91 c 0
 197 -91 196 -82 196 -72 c 0
618 18 m 2
 618 20 l 2
 618 38 680 77 751 227 c 0
 767 261 778 302 778 337 c 0
 778 369 755 393 716 393 c 0
 657 393 640 357 628 357 c 0
 625 357 623 361 623 366 c 0
 623 373 659 444 742 444 c 0
 789 444 841 418 841 362 c 0
 841 257 689 85 689 74 c 0
 689 70 701 69 715 69 c 2
 729 69 l 2
 830 69 814 70 830 77 c 0
 849 85 863 108 872 108 c 0
 877 108 879 105 879 102 c 0
 879 97 836 23 836 23 c 2
 828 12 821 10 815 10 c 0
 741 10 738 12 708 12 c 0
 693 12 655 11 638 11 c 0
 619 11 618 14 618 18 c 2
EndSplineSet
EndChar
StartChar: threequarters
Encoding: 190 190 153
Width: 913
Flags: MW
LayerCount: 2
Back
Fore
SplineSet
40 252 m 0
 40 254 42 262 53 262 c 0
 62 262 74 235 127 235 c 0
 205 235 234 312 234 352 c 0
 234 394 215 437 147 437 c 0
 135 437 130 435 128 435 c 0
 121 435 120 441 120 444 c 0
 120 451 127 448 167 479 c 0
 190 497 204 524 204 547 c 0
 204 577 182 602 151 602 c 0
 113 602 85 568 74 568 c 0
 70 568 69 570 69 573 c 0
 69 596 130 647 172 647 c 0
 217 647 262 625 262 576 c 0
 262 533 235 512 204 487 c 0
 197 482 193 479 193 476 c 0
 193 472 221 474 250 455 c 0
 278 437 297 413 297 375 c 0
 297 277 222 206 138 206 c 0
 91 206 40 231 40 252 c 0
196 -72 m 0
 196 -56 587 523 653 622 c 0
 653 623 670 650 679 650 c 0
 686 650 697 642 697 637 c 0
 697 630 692 621 689 616 c 0
 218 -88 235 -85 223 -89 c 0
 220 -90 216 -91 213 -91 c 0
 197 -91 196 -82 196 -72 c 0
595 144 m 0
 595 159 602 168 774 382 c 0
 795 407 813 438 827 438 c 0
 833 438 838 434 838 426 c 0
 838 422 831 231 831 203 c 0
 831 191 831 189 839 189 c 0
 881 189 878 206 891 206 c 0
 893 206 898 205 898 197 c 0
 898 188 894 178 891 166 c 0
 890 160 889 135 876 135 c 0
 866 135 849 136 841 136 c 0
 833 136 829 133 829 125 c 0
 829 104 831 83 831 45 c 2
 831 -8 l 2
 831 -38 831 -34 804 -40 c 0
 793 -42 782 -43 779 -43 c 0
 767 -43 763 -33 763 -28 c 0
 763 -22 776 -2 776 132 c 0
 776 135 772 136 768 136 c 0
 760 136 768 135 685 135 c 0
 658 135 633 134 613 134 c 0
 600 134 595 135 595 144 c 0
660 192 m 0
 660 188 668 186 678 186 c 2
 759 186 l 2
 775 186 776 188 776 193 c 2
 776 199 l 2
 776 202 779 296 779 331 c 0
 779 342 778 347 776 347 c 0
 772 347 660 206 660 192 c 0
EndSplineSet
EndChar
StartChar: questiondown
Encoding: 191 191 124
Width: 350
Flags: MW
LayerCount: 2
Back
Fore
SplineSet
36 105 m 0
 36 203 177 307 177 413 c 0
 177 432 171 449 171 459 c 0
 171 465 173 469 179 469 c 0
 201 469 211 412 211 390 c 0
 211 319 120 179 120 116 c 0
 120 57 186 36 211 36 c 0
 241 36 258 62 266 62 c 0
 272 62 274 55 274 52 c 0
 274 33 230 -9 171 -9 c 0
 105 -9 36 29 36 105 c 0
108 603 m 0
 108 620 132 627 143 638 c 0
 155 650 166 673 179 673 c 0
 188 673 210 653 220 640 c 0
 229 628 252 619 252 605 c 0
 252 596 232 577 217 564 c 0
 204 552 191 532 177 532 c 0
 167 532 147 563 143 567 c 0
 139 571 108 593 108 603 c 0
EndSplineSet
EndChar
StartChar: Atilde
Encoding: 195 195 157
Width: 812
Flags: MW
LayerCount: 2
Back
Fore
SplineSet
20 8 m 0
 20 18 26 24 35 27 c 0
 93 49 86 69 383 701 c 0
 392 721 397 724 413 724 c 0
 434 724 421 722 485 563 c 0
 532 447 673 120 681 104 c 0
 731 3 792 49 792 13 c 0
 792 8 790 -2 765 -2 c 0
 742 -2 703 4 675 4 c 0
 639 4 611 0 582 0 c 0
 540 0 534 2 534 14 c 0
 534 36 584 23 584 61 c 0
 584 93 538 213 517 251 c 0
 513 259 509 268 476 268 c 0
 455 268 420 266 355 266 c 2
 302 266 l 2
 240 266 236 261 225 237 c 0
 189 161 161 109 161 81 c 0
 161 12 235 44 235 13 c 0
 235 5 234 -1 218 -1 c 0
 202 -1 170 0 135 0 c 0
 96 0 71 -4 49 -4 c 0
 31 -4 20 -2 20 8 c 0
258 794 m 0
 258 810 310 900 355 900 c 0
 404 900 431 852 480 852 c 0
 513 852 533 908 542 908 c 0
 546 908 552 906 552 896 c 0
 552 878 501 794 456 794 c 0
 406 794 374 842 330 842 c 0
 295 842 277 786 268 786 c 0
 264 786 258 787 258 794 c 0
271 338 m 0
 271 320 280 319 322 319 c 2
 353 319 l 2
 397 319 448 320 448 320 c 2
 474 320 487 325 487 336 c 0
 487 348 395 570 376 570 c 0
 363 570 271 350 271 338 c 0
EndSplineSet
EndChar
StartChar: Adieresis
Encoding: 196 196 158
Width: 812
Flags: MW
LayerCount: 2
Back
Fore
SplineSet
20 8 m 0
 20 18 26 24 35 27 c 0
 93 49 86 69 383 701 c 0
 392 721 397 724 413 724 c 0
 434 724 421 722 485 563 c 0
 532 447 673 120 681 104 c 0
 731 3 792 49 792 13 c 0
 792 8 790 -2 765 -2 c 0
 742 -2 703 4 675 4 c 0
 639 4 611 0 582 0 c 0
 540 0 534 2 534 14 c 0
 534 36 584 23 584 61 c 0
 584 93 538 213 517 251 c 0
 513 259 509 268 476 268 c 0
 455 268 420 266 355 266 c 2
 302 266 l 2
 240 266 236 261 225 237 c 0
 189 161 161 109 161 81 c 0
 161 12 235 44 235 13 c 0
 235 5 234 -1 218 -1 c 0
 202 -1 170 0 135 0 c 0
 96 0 71 -4 49 -4 c 0
 31 -4 20 -2 20 8 c 0
271 338 m 0
 271 320 280 319 322 319 c 2
 353 319 l 2
 397 319 448 320 448 320 c 2
 474 320 487 325 487 336 c 0
 487 348 395 570 376 570 c 0
 363 570 271 350 271 338 c 0
289 855 m 0
 289 872 314 906 336 906 c 0
 359 906 384 875 384 855 c 0
 384 831 350 802 341 802 c 0
 312 802 289 839 289 855 c 0
449 855 m 0
 449 872 474 906 496 906 c 0
 519 906 544 875 544 855 c 0
 544 831 509 802 500 802 c 0
 471 802 449 839 449 855 c 0
EndSplineSet
EndChar
StartChar: AE
Encoding: 198 198 129
Width: 993
Flags: MW
LayerCount: 2
Back
Fore
SplineSet
20 8 m 0
 20 20 29 25 36 27 c 0
 93 48 88 69 389 642 c 0
 394 652 394 659 394 661 c 0
 394 674 363 678 342 680 c 0
 326 681 319 688 319 699 c 0
 319 713 339 714 349 714 c 0
 393 714 542 707 708 707 c 0
 748 707 878 710 908 710 c 0
 915 710 926 708 926 687 c 0
 926 667 915 635 915 585 c 0
 915 573 907 563 899 563 c 0
 891 563 884 570 884 584 c 0
 884 619 858 654 824 656 c 0
 760 661 742 663 687 663 c 2
 661 663 l 2
 591 663 592 662 589 602 c 0
 587 566 586 481 586 435 c 0
 586 417 586 385 604 384 c 2
 629 384 l 1
 672 384 l 1
 703 384 l 2
 789 384 799 390 818 403 c 0
 851 425 834 457 856 457 c 0
 868 457 869 453 869 441 c 0
 869 423 860 371 860 336 c 0
 860 302 864 294 864 275 c 0
 864 251 860 250 857 250 c 0
 830 250 837 305 810 323 c 0
 789 337 717 337 713 337 c 0
 626 337 637 338 626 338 c 0
 605 338 585 335 585 319 c 0
 585 262 583 231 583 175 c 2
 583 135 l 2
 583 102 589 61 606 56 c 0
 628 49 634 48 649 48 c 0
 968 48 932 143 961 143 c 0
 967 143 973 138 973 126 c 0
 973 66 894 -5 854 -5 c 0
 726 -5 641 5 580 5 c 0
 525 5 492 -4 443 -4 c 0
 433 -4 423 -5 423 6 c 0
 423 33 424 17 466 37 c 0
 497 52 505 77 505 230 c 2
 505 258 l 2
 505 262 504 263 499 263 c 0
 482 263 449 265 415 265 c 2
 384 265 l 2
 351 265 327 266 308 266 c 0
 253 266 248 259 237 237 c 0
 195 157 166 107 166 76 c 0
 166 14 236 42 236 14 c 0
 236 1 230 -1 219 -1 c 0
 203 -1 170 0 135 0 c 0
 96 0 71 -4 49 -4 c 0
 31 -4 20 -2 20 8 c 0
290 335 m 0
 290 319 299 319 340 319 c 2
 431 319 l 2
 500 319 504 320 504 348 c 2
 504 602 l 2
 504 635 503 669 472 669 c 0
 462 669 455 664 445 648 c 0
 402 575 290 349 290 335 c 0
EndSplineSet
EndChar
StartChar: Eacute
Encoding: 201 201 162
Width: 604
Flags: MW
LayerCount: 2
Back
Fore
SplineSet
20 699 m 0
 20 711 40 713 48 713 c 0
 56 713 65 711 75 711 c 0
 99 711 220 706 319 706 c 0
 359 706 489 710 519 710 c 0
 526 710 538 708 538 687 c 0
 538 667 526 635 526 585 c 0
 526 573 518 563 510 563 c 0
 502 563 495 570 495 584 c 0
 495 619 470 654 436 656 c 0
 372 661 353 663 298 663 c 2
 272 663 l 2
 202 663 204 662 201 602 c 0
 199 566 197 481 197 435 c 0
 197 417 198 385 216 384 c 2
 241 384 l 1
 283 384 l 1
 314 384 l 2
 400 384 411 390 430 403 c 0
 447 415 451 429 453 440 c 0
 455 450 457 457 467 457 c 0
 479 457 480 453 480 441 c 0
 480 423 472 371 472 336 c 0
 472 302 475 294 475 275 c 0
 475 251 471 250 468 250 c 0
 456 250 450 260 446 274 c 0
 440 292 436 313 421 323 c 0
 400 337 329 337 325 337 c 0
 238 337 248 338 237 338 c 0
 216 338 196 335 196 319 c 0
 196 262 194 231 194 175 c 2
 194 135 l 2
 194 102 201 61 218 56 c 0
 240 49 246 48 261 48 c 0
 580 48 543 143 572 143 c 0
 578 143 584 138 584 126 c 0
 584 66 506 -5 466 -5 c 0
 338 -5 252 5 191 5 c 0
 136 5 104 -4 55 -4 c 0
 45 -4 34 -5 34 6 c 0
 34 33 35 17 77 37 c 0
 108 52 116 78 116 231 c 2
 116 355 l 2
 116 410 119 466 119 528 c 0
 119 557 118 587 117 619 c 0
 115 661 75 680 36 681 c 0
 20 681 20 690 20 699 c 0
270 755 m 0
 270 769 293 782 345 907 c 0
 352 923 362 926 366 926 c 0
 370 926 418 921 418 900 c 0
 418 879 362 818 321 775 c 0
 306 759 290 744 282 744 c 0
 276 744 270 749 270 755 c 0
EndSplineSet
EndChar
StartChar: Icircumflex
Encoding: 206 206 167
Width: 328
Flags: MW
LayerCount: 2
Back
Fore
SplineSet
20 695 m 0
 20 702 24 710 48 710 c 0
 76 710 105 706 161 706 c 0
 204 706 186 708 249 708 c 0
 256 708 276 707 276 694 c 0
 276 685 259 679 230 667 c 0
 202 656 198 591 198 552 c 0
 198 317 195 274 195 182 c 0
 195 121 201 89 220 61 c 0
 241 32 258 30 268 30 c 0
 271 30 285 29 288 29 c 0
 298 29 309 23 309 18 c 0
 309 2 301 0 284 0 c 0
 230 0 222 4 189 4 c 0
 137 4 115 -1 79 -1 c 0
 38 -1 34 6 34 14 c 0
 34 41 93 13 108 78 c 0
 110 86 119 277 119 345 c 2
 119 402 l 2
 119 431 120 469 120 510 c 2
 120 556 l 2
 120 582 119 607 116 629 c 0
 111 665 69 679 41 680 c 0
 21 681 20 690 20 695 c 0
37 763 m 0
 37 765 39 768 41 772 c 0
 128 899 118 912 135 912 c 2
 160 912 l 2
 166 912 171 912 177 901 c 0
 215 833 263 774 263 764 c 0
 263 756 255 756 252 756 c 0
 239 756 156 841 149 841 c 0
 136 841 61 757 47 757 c 0
 44 757 37 758 37 763 c 0
EndSplineSet
EndChar
StartChar: Ntilde
Encoding: 209 209 170
Width: 798
Flags: MW
LayerCount: 2
Back
Fore
SplineSet
20 691 m 0
 20 698 30 708 45 708 c 0
 56 708 74 707 83 707 c 0
 110 707 113 709 132 709 c 0
 144 709 164 700 167 692 c 0
 171 684 201 655 229 618 c 0
 332 484 531 259 593 191 c 0
 621 160 631 146 638 146 c 0
 647 146 648 176 648 208 c 2
 648 325 l 2
 648 478 646 509 646 530 c 2
 646 537 l 2
 646 677 592 663 550 676 c 0
 536 680 530 687 530 693 c 0
 530 701 533 708 549 708 c 0
 561 708 633 707 644 707 c 0
 686 707 715 709 734 709 c 0
 756 709 764 706 764 692 c 0
 764 681 731 673 729 672 c 0
 720 667 696 643 696 559 c 2
 696 521 l 2
 696 380 685 125 685 26 c 2
 685 6 l 2
 685 -7 683 -17 671 -17 c 0
 665 -17 658 -13 655 -10 c 0
 212 503 197 520 187 520 c 0
 180 520 177 493 177 452 c 0
 177 290 169 176 169 128 c 0
 169 -4 267 46 267 13 c 0
 267 -3 262 -4 251 -4 c 0
 222 -4 232 -2 144 -2 c 0
 123 -2 95 -4 59 -4 c 0
 46 -4 37 -3 37 12 c 0
 37 38 87 6 111 88 c 0
 120 121 135 426 135 499 c 0
 135 613 105 668 33 676 c 0
 20 677 20 686 20 691 c 0
250 794 m 0
 250 810 302 900 347 900 c 0
 396 900 423 852 472 852 c 0
 505 852 525 908 534 908 c 0
 538 908 544 906 544 896 c 0
 544 878 493 794 448 794 c 0
 398 794 366 842 322 842 c 0
 287 842 269 786 260 786 c 0
 256 786 250 787 250 794 c 0
EndSplineSet
EndChar
StartChar: Ograve
Encoding: 210 210 171
Width: 853
Flags: MW
LayerCount: 2
Back
Fore
SplineSet
44 339 m 0
 44 554 176 722 431 722 c 0
 733 722 809 494 809 392 c 0
 809 111 636 -16 417 -16 c 0
 169 -16 44 159 44 339 c 0
132 390 m 0
 132 263 223 28 449 28 c 0
 560 28 727 116 727 300 c 0
 727 552 573 682 397 682 c 0
 263 682 132 594 132 390 c 0
308 900 m 0
 308 921 357 926 361 926 c 0
 365 926 374 923 381 907 c 0
 433 782 457 769 457 755 c 0
 457 749 451 744 445 744 c 0
 437 744 421 759 406 775 c 0
 365 818 308 879 308 900 c 0
EndSplineSet
EndChar
StartChar: Oacute
Encoding: 211 211 172
Width: 853
Flags: MW
LayerCount: 2
Back
Fore
SplineSet
44 339 m 0
 44 554 176 722 431 722 c 0
 733 722 809 494 809 392 c 0
 809 111 636 -16 417 -16 c 0
 169 -16 44 159 44 339 c 0
132 390 m 0
 132 263 223 28 449 28 c 0
 560 28 727 116 727 300 c 0
 727 552 573 682 397 682 c 0
 263 682 132 594 132 390 c 0
380 755 m 0
 380 769 403 782 455 907 c 0
 462 923 472 926 476 926 c 0
 480 926 528 921 528 900 c 0
 528 879 472 818 431 775 c 0
 416 759 400 744 392 744 c 0
 386 744 380 749 380 755 c 0
EndSplineSet
EndChar
StartChar: Ocircumflex
Encoding: 212 212 173
Width: 853
Flags: MW
LayerCount: 2
Back
Fore
SplineSet
44 339 m 0
 44 554 176 722 431 722 c 0
 733 722 809 494 809 392 c 0
 809 111 636 -16 417 -16 c 0
 169 -16 44 159 44 339 c 0
132 390 m 0
 132 263 223 28 449 28 c 0
 560 28 727 116 727 300 c 0
 727 552 573 682 397 682 c 0
 263 682 132 594 132 390 c 0
306 763 m 0
 306 765 308 768 310 772 c 0
 397 899 387 912 404 912 c 2
 429 912 l 2
 435 912 440 912 446 901 c 0
 484 833 532 774 532 764 c 0
 532 756 524 756 521 756 c 0
 508 756 425 841 418 841 c 0
 405 841 330 757 316 757 c 0
 313 757 306 758 306 763 c 0
EndSplineSet
EndChar
StartChar: Otilde
Encoding: 213 213 174
Width: 853
Flags: MW
LayerCount: 2
Back
Fore
SplineSet
44 339 m 0
 44 554 176 722 431 722 c 0
 733 722 809 494 809 392 c 0
 809 111 636 -16 417 -16 c 0
 169 -16 44 159 44 339 c 0
132 390 m 0
 132 263 223 28 449 28 c 0
 560 28 727 116 727 300 c 0
 727 552 573 682 397 682 c 0
 263 682 132 594 132 390 c 0
271 794 m 0
 271 810 323 900 368 900 c 0
 417 900 444 852 493 852 c 0
 526 852 546 908 555 908 c 0
 559 908 565 906 565 896 c 0
 565 878 514 794 469 794 c 0
 419 794 387 842 343 842 c 0
 308 842 290 786 281 786 c 0
 277 786 271 787 271 794 c 0
EndSplineSet
EndChar
StartChar: Odieresis
Encoding: 214 214 175
Width: 853
Flags: MW
LayerCount: 2
Back
Fore
SplineSet
44 339 m 0
 44 554 176 722 431 722 c 0
 733 722 809 494 809 392 c 0
 809 111 636 -16 417 -16 c 0
 169 -16 44 159 44 339 c 0
132 390 m 0
 132 263 223 28 449 28 c 0
 560 28 727 116 727 300 c 0
 727 552 573 682 397 682 c 0
 263 682 132 594 132 390 c 0
302 855 m 0
 302 872 327 906 349 906 c 0
 372 906 397 875 397 855 c 0
 397 831 363 802 354 802 c 0
 325 802 302 839 302 855 c 0
462 855 m 0
 462 872 487 906 509 906 c 0
 532 906 557 875 557 855 c 0
 557 831 522 802 513 802 c 0
 484 802 462 839 462 855 c 0
EndSplineSet
EndChar
StartChar: multiply
Encoding: 215 215 176
Width: 527
Flags: MW
LayerCount: 2
Back
Fore
SplineSet
88 358 m 0
 88 365 107 384 116 384 c 0
 120 384 125 381 130 376 c 2
 246 261 l 2
 252 255 258 249 265 249 c 0
 268 249 272 250 276 254 c 2
 401 379 l 2
 405 383 410 385 413 385 c 0
 420 385 438 367 438 359 c 0
 438 355 435 350 429 344 c 2
 308 223 l 2
 303 218 300 213 300 210 c 0
 300 206 304 202 308 198 c 2
 432 74 l 2
 437 69 438 65 438 62 c 0
 438 54 419 35 412 35 c 0
 409 35 404 37 399 42 c 2
 276 166 l 2
 271 171 267 173 263 173 c 0
 258 173 254 169 247 162 c 2
 127 42 l 2
 122 37 118 35 115 35 c 0
 108 35 89 53 89 61 c 0
 89 65 92 69 97 74 c 2
 217 195 l 2
 223 201 226 206 226 210 c 0
 226 215 223 219 219 223 c 2
 95 347 l 2
 91 351 88 355 88 358 c 0
EndSplineSet
EndChar
StartChar: Oslash
Encoding: 216 216 132
Width: 853
Flags: MW
LayerCount: 2
Back
Fore
SplineSet
44 339 m 0
 44 554 176 722 431 722 c 0
 507 722 538 708 552 708 c 0
 560 708 565 713 571 725 c 2
 600 787 l 2
 604 795 608 808 621 808 c 0
 624 808 631 804 633 804 c 0
 643 801 646 799 646 790 c 0
 646 788 646 785 645 781 c 2
 614 715 l 2
 611 708 607 702 607 697 c 0
 607 693 608 689 618 684 c 0
 766 615 809 468 809 392 c 0
 809 111 636 -16 417 -16 c 0
 342 -16 305 0 292 0 c 0
 284 0 279 -4 274 -15 c 2
 230 -108 l 2
 225 -117 224 -120 215 -120 c 0
 204 -120 187 -115 187 -103 c 0
 187 -101 187 -96 190 -91 c 2
 236 7 l 2
 237 10 238 12 238 14 c 0
 238 26 226 23 186 52 c 0
 92 119 44 228 44 339 c 0
132 390 m 0
 132 226 252 94 271 94 c 0
 275 94 278 97 281 104 c 2
 522 619 l 2
 527 629 532 637 532 644 c 0
 532 666 443 682 397 682 c 0
 263 682 132 594 132 390 c 0
314 68 m 0
 314 52 387 28 449 28 c 0
 560 28 727 116 727 300 c 0
 727 540 582 626 579 626 c 0
 570 626 568 612 321 85 c 0
 317 78 314 72 314 68 c 0
EndSplineSet
EndChar
StartChar: Uacute
Encoding: 218 218 178
Width: 815
Flags: MW
LayerCount: 2
Back
Fore
SplineSet
20 697 m 0
 20 704 20 710 43 710 c 0
 71 710 100 706 156 706 c 0
 203 706 175 708 250 708 c 0
 259 708 271 707 271 694 c 0
 271 660 201 724 201 580 c 2
 201 552 l 2
 201 465 200 395 200 336 c 0
 200 199 200 28 432 28 c 0
 544 28 691 29 691 324 c 0
 691 494 690 494 690 536 c 0
 690 590 689 646 654 670 c 0
 630 687 592 676 592 692 c 0
 592 700 596 708 612 708 c 0
 624 708 678 706 689 706 c 0
 731 706 755 709 774 709 c 0
 795 709 795 701 795 696 c 0
 795 680 758 674 747 653 c 0
 738 636 736 624 736 587 c 0
 736 570 737 550 737 520 c 0
 737 138 698 55 575 3 c 0
 539 -12 466 -19 432 -19 c 0
 310 -19 243 1 195 45 c 0
 115 118 114 209 114 414 c 2
 114 431 l 2
 114 500 116 544 116 575 c 0
 116 644 110 668 42 678 c 0
 21 681 20 692 20 697 c 0
398 755 m 0
 398 769 421 782 473 907 c 0
 480 923 490 926 494 926 c 0
 498 926 546 921 546 900 c 0
 546 879 490 818 449 775 c 0
 434 759 418 744 410 744 c 0
 404 744 398 749 398 755 c 0
EndSplineSet
EndChar
StartChar: Yacute
Encoding: 221 221 181
Width: 712
Flags: MW
LayerCount: 2
Back
Fore
SplineSet
20 688 m 0
 20 703 32 705 82 705 c 0
 95 705 123 703 140 703 c 0
 163 703 197 704 225 704 c 0
 260 704 275 699 275 692 c 0
 275 671 233 676 233 657 c 0
 233 627 269 581 287 553 c 0
 333 481 392 401 399 401 c 0
 413 401 434 447 466 494 c 0
 501 547 542 605 542 632 c 0
 542 660 525 668 508 672 c 0
 489 676 468 675 468 693 c 0
 468 703 478 705 496 705 c 0
 507 705 521 704 537 704 c 0
 582 704 605 703 643 703 c 0
 671 703 692 702 692 688 c 0
 692 678 670 678 649 661 c 0
 579 606 501 456 438 375 c 0
 416 347 414 322 414 249 c 0
 414 222 415 167 415 133 c 2
 415 109 l 2
 415 37 455 31 468 31 c 0
 471 31 485 30 488 30 c 0
 498 30 503 21 503 16 c 0
 503 3 497 0 479 0 c 0
 465 0 410 1 379 1 c 0
 314 1 310 -3 269 -3 c 0
 247 -3 241 1 241 8 c 0
 241 29 263 22 284 28 c 0
 304 34 326 50 326 89 c 0
 326 114 328 107 328 292 c 0
 328 353 314 354 171 570 c 0
 105 670 74 675 45 675 c 0
 36 675 20 675 20 688 c 0
336 755 m 0
 336 769 359 782 411 907 c 0
 418 923 428 926 432 926 c 0
 436 926 484 921 484 900 c 0
 484 879 428 818 387 775 c 0
 372 759 356 744 348 744 c 0
 342 744 336 749 336 755 c 0
EndSplineSet
EndChar
StartChar: Thorn
Encoding: 222 222 182
Width: 568
Flags: MW
LayerCount: 2
Back
Fore
SplineSet
20 695 m 0
 20 702 24 710 48 710 c 0
 76 710 105 706 161 706 c 0
 204 706 186 708 249 708 c 0
 256 708 276 707 276 694 c 0
 276 685 259 679 230 667 c 0
 206 657 198 603 198 572 c 0
 198 563 198 561 209 561 c 0
 229 561 269 565 309 565 c 0
 423 565 539 506 539 380 c 0
 539 207 373 172 320 172 c 0
 278 172 222 185 222 196 c 0
 222 207 228 211 235 211 c 0
 249 211 260 203 286 203 c 0
 340 203 454 231 454 343 c 0
 454 421 387 525 250 525 c 0
 208 525 197 509 197 418 c 2
 197 247 l 2
 196 247 195 247 195 177 c 2
 195 156 l 2
 195 -32 319 67 319 12 c 0
 319 -2 308 -4 297 -4 c 0
 257 -4 169 0 154 0 c 0
 129 0 104 -4 60 -4 c 0
 49 -4 29 -3 29 8 c 0
 29 31 45 28 68 34 c 0
 81 37 117 24 117 284 c 0
 117 510 120 465 120 510 c 2
 120 556 l 2
 120 582 119 607 116 629 c 0
 111 665 69 679 41 680 c 0
 21 681 20 690 20 695 c 0
EndSplineSet
EndChar
StartChar: germandbls
Encoding: 223 223 140
Width: 527
Flags: MW
LayerCount: 2
Back
Fore
SplineSet
20 8 m 0
 20 31 75 5 75 75 c 2
 75 367 l 2
 75 371 42 389 42 399 c 0
 42 419 75 408 75 423 c 0
 75 590 155 722 275 722 c 0
 326 722 407 704 407 600 c 0
 407 480 286 433 286 367 c 0
 286 277 490 250 490 119 c 0
 490 83 472 -14 364 -14 c 0
 312 -14 277 6 262 11 c 0
 238 19 226 18 226 43 c 2
 226 130 l 2
 226 145 234 156 241 156 c 0
 262 156 258 136 267 113 c 0
 277 88 300 11 362 11 c 0
 393 11 436 32 436 89 c 0
 436 182 232 209 232 333 c 0
 232 423 345 467 345 596 c 0
 345 665 308 698 267 698 c 0
 219 698 146 660 146 433 c 0
 146 423 148 384 148 371 c 0
 148 350 143 270 143 168 c 2
 143 98 l 2
 143 44 153 28 181 21 c 0
 197 17 203 11 203 4 c 0
 203 0 194 -5 184 -5 c 0
 181 -5 143 -1 120 -1 c 0
 90 -1 45 -4 36 -4 c 0
 24 -4 20 0 20 8 c 0
EndSplineSet
EndChar
StartChar: agrave
Encoding: 224 224 183
Width: 461
Flags: MW
LayerCount: 2
Back
Fore
SplineSet
48 85 m 0
 48 193 153 203 278 225 c 0
 289 227 295 228 295 241 c 0
 295 261 297 277 297 293 c 0
 297 380 228 401 200 401 c 0
 137 401 128 366 128 341 c 0
 128 326 132 314 132 305 c 0
 132 288 125 285 114 285 c 0
 102 285 52 290 52 324 c 0
 52 375 134 434 220 434 c 0
 370 434 370 346 370 308 c 0
 370 178 365 197 365 122 c 0
 365 -11 441 49 441 13 c 0
 441 -2 420 -8 378 -8 c 0
 320 -8 303 47 298 47 c 0
 294 47 238 -15 166 -15 c 0
 123 -15 96 -9 73 15 c 0
 55 33 48 58 48 85 c 0
112 636 m 0
 112 657 161 662 165 662 c 0
 169 662 178 659 185 643 c 0
 237 518 261 505 261 491 c 0
 261 485 255 480 249 480 c 0
 241 480 225 495 210 511 c 0
 169 554 112 615 112 636 c 0
126 100 m 0
 126 55 153 25 203 25 c 0
 295 25 295 94 295 127 c 2
 295 199 l 2
 295 205 292 208 288 208 c 0
 285 208 281 206 278 206 c 0
 214 195 126 183 126 100 c 0
EndSplineSet
EndChar
StartChar: aacute
Encoding: 225 225 184
Width: 461
Flags: MW
LayerCount: 2
Back
Fore
SplineSet
48 85 m 0
 48 193 153 203 278 225 c 0
 289 227 295 228 295 241 c 0
 295 261 297 277 297 293 c 0
 297 380 228 401 200 401 c 0
 137 401 128 366 128 341 c 0
 128 326 132 314 132 305 c 0
 132 288 125 285 114 285 c 0
 102 285 52 290 52 324 c 0
 52 375 134 434 220 434 c 0
 370 434 370 346 370 308 c 0
 370 178 365 197 365 122 c 0
 365 -11 441 49 441 13 c 0
 441 -2 420 -8 378 -8 c 0
 320 -8 303 47 298 47 c 0
 294 47 238 -15 166 -15 c 0
 123 -15 96 -9 73 15 c 0
 55 33 48 58 48 85 c 0
126 100 m 0
 126 55 153 25 203 25 c 0
 295 25 295 94 295 127 c 2
 295 199 l 2
 295 205 292 208 288 208 c 0
 285 208 281 206 278 206 c 0
 214 195 126 183 126 100 c 0
184 491 m 0
 184 505 207 518 259 643 c 0
 266 659 276 662 280 662 c 0
 284 662 332 657 332 636 c 0
 332 615 276 554 235 511 c 0
 220 495 204 480 196 480 c 0
 190 480 184 485 184 491 c 0
EndSplineSet
EndChar
StartChar: aring
Encoding: 229 229 188
Width: 461
Flags: MW
LayerCount: 2
Back
Fore
SplineSet
48 85 m 0
 48 193 153 203 278 225 c 0
 289 227 295 228 295 241 c 0
 295 261 297 277 297 293 c 0
 297 380 228 401 200 401 c 0
 137 401 128 366 128 341 c 0
 128 326 132 314 132 305 c 0
 132 288 125 285 114 285 c 0
 102 285 52 290 52 324 c 0
 52 375 134 434 220 434 c 0
 370 434 370 346 370 308 c 0
 370 178 365 197 365 122 c 0
 365 -11 441 49 441 13 c 0
 441 -2 420 -8 378 -8 c 0
 320 -8 303 47 298 47 c 0
 294 47 238 -15 166 -15 c 0
 123 -15 96 -9 73 15 c 0
 55 33 48 58 48 85 c 0
126 100 m 0
 126 55 153 25 203 25 c 0
 295 25 295 94 295 127 c 2
 295 199 l 2
 295 205 292 208 288 208 c 0
 285 208 281 206 278 206 c 0
 214 195 126 183 126 100 c 0
146 591 m 0
 146 623 178 668 224 668 c 0
 279 668 298 615 298 587 c 0
 298 531 237 510 223 510 c 0
 155 510 146 568 146 591 c 0
184 590 m 0
 184 566 200 549 223 549 c 0
 230 549 260 555 260 588 c 0
 260 603 255 629 223 629 c 0
 205 629 184 612 184 590 c 0
EndSplineSet
EndChar
StartChar: ccedilla
Encoding: 231 231 189
Width: 452
Flags: MW
LayerCount: 2
Back
Fore
SplineSet
39 192 m 0
 39 314 129 429 271 429 c 0
 312 429 386 415 388 396 c 0
 389 384 390 366 390 349 c 0
 390 326 387 305 379 305 c 0
 365 305 363 323 346 337 c 0
 323 357 266 390 213 390 c 0
 193 390 114 363 114 224 c 0
 114 122 188 31 285 31 c 0
 365 31 404 83 417 83 c 0
 423 83 428 78 428 73 c 0
 428 64 375 -21 246 -21 c 0
 122 -21 39 58 39 192 c 0
203 -79 m 0
 203 -75 212 -69 223 -61 c 0
 232 -55 240 -44 253 -44 c 0
 259 -44 305 -60 305 -105 c 0
 305 -172 237 -201 222 -201 c 0
 216 -201 213 -196 213 -194 c 0
 213 -184 255 -180 255 -139 c 0
 255 -95 203 -99 203 -79 c 0
EndSplineSet
EndChar
StartChar: egrave
Encoding: 232 232 190
Width: 466
Flags: MW
LayerCount: 2
Back
Fore
SplineSet
39 194 m 0
 39 324 120 432 242 432 c 0
 392 432 426 288 426 273 c 0
 426 259 413 255 385 255 c 2
 158 255 l 1
 128 255 l 2
 117 255 117 254 117 244 c 0
 117 111 203 42 286 42 c 0
 357 42 400 87 417 87 c 0
 422 87 427 82 427 78 c 0
 427 67 367 -19 250 -19 c 0
 143 -19 39 45 39 194 c 0
122 636 m 0
 122 657 171 662 175 662 c 0
 179 662 188 659 195 643 c 0
 247 518 271 505 271 491 c 0
 271 485 265 480 259 480 c 0
 251 480 235 495 220 511 c 0
 179 554 122 615 122 636 c 0
123 293 m 0
 123 284 125 279 136 279 c 0
 182 279 295 285 312 285 c 0
 331 285 333 288 333 297 c 0
 333 323 304 407 225 407 c 0
 153 407 123 328 123 293 c 0
EndSplineSet
EndChar
StartChar: eacute
Encoding: 233 233 191
Width: 466
Flags: MW
LayerCount: 2
Back
Fore
SplineSet
39 194 m 0
 39 324 120 432 242 432 c 0
 392 432 426 288 426 273 c 0
 426 259 413 255 385 255 c 2
 158 255 l 1
 128 255 l 2
 117 255 117 254 117 244 c 0
 117 111 203 42 286 42 c 0
 357 42 400 87 417 87 c 0
 422 87 427 82 427 78 c 0
 427 67 367 -19 250 -19 c 0
 143 -19 39 45 39 194 c 0
123 293 m 0
 123 284 125 279 136 279 c 0
 182 279 295 285 312 285 c 0
 331 285 333 288 333 297 c 0
 333 323 304 407 225 407 c 0
 153 407 123 328 123 293 c 0
194 491 m 0
 194 505 217 518 269 643 c 0
 276 659 286 662 290 662 c 0
 294 662 342 657 342 636 c 0
 342 615 286 554 245 511 c 0
 230 495 214 480 206 480 c 0
 200 480 194 485 194 491 c 0
EndSplineSet
EndChar
StartChar: edieresis
Encoding: 235 235 205
Width: 466
Flags: MW
LayerCount: 2
Back
Fore
SplineSet
39 194 m 0
 39 324 120 432 242 432 c 0
 392 432 426 288 426 273 c 0
 426 259 413 255 385 255 c 2
 158 255 l 1
 128 255 l 2
 117 255 117 254 117 244 c 0
 117 111 203 42 286 42 c 0
 357 42 400 87 417 87 c 0
 422 87 427 82 427 78 c 0
 427 67 367 -19 250 -19 c 0
 143 -19 39 45 39 194 c 0
116 591 m 0
 116 608 141 642 163 642 c 0
 186 642 211 611 211 591 c 0
 211 567 177 538 168 538 c 0
 139 538 116 575 116 591 c 0
123 293 m 0
 123 284 125 279 136 279 c 0
 182 279 295 285 312 285 c 0
 331 285 333 288 333 297 c 0
 333 323 304 407 225 407 c 0
 153 407 123 328 123 293 c 0
276 591 m 0
 276 608 301 642 323 642 c 0
 346 642 371 611 371 591 c 0
 371 567 336 538 327 538 c 0
 298 538 276 575 276 591 c 0
EndSplineSet
EndChar
StartChar: igrave
Encoding: 236 236 193
Width: 284
Flags: MW
LayerCount: 2
Back
Fore
SplineSet
14 636 m 0
 14 657 63 662 67 662 c 0
 71 662 80 659 87 643 c 0
 139 518 163 505 163 491 c 0
 163 485 157 480 151 480 c 0
 143 480 127 495 112 511 c 0
 71 554 14 615 14 636 c 0
36 381 m 0
 36 397 61 398 117 421 c 0
 153 436 151 439 167 439 c 0
 173 439 182 434 182 420 c 0
 182 408 176 389 176 372 c 2
 176 98 l 2
 176 -10 262 45 262 10 c 0
 262 4 261 -7 245 -7 c 0
 241 -7 235 -6 230 -6 c 0
 188 -6 197 -4 159 -4 c 0
 117 -4 105 -6 88 -6 c 0
 63 -6 48 -3 48 7 c 0
 48 14 54 23 63 26 c 0
 102 39 104 33 104 206 c 2
 104 294 l 2
 104 377 68 363 46 371 c 0
 41 373 36 377 36 381 c 0
EndSplineSet
EndChar
StartChar: iacute
Encoding: 237 237 194
Width: 284
Flags: MW
LayerCount: 2
Back
Fore
SplineSet
36 381 m 0
 36 397 61 398 117 421 c 0
 153 436 151 439 167 439 c 0
 173 439 182 434 182 420 c 0
 182 408 176 389 176 372 c 2
 176 98 l 2
 176 -10 262 45 262 10 c 0
 262 4 261 -7 245 -7 c 0
 241 -7 235 -6 230 -6 c 0
 188 -6 197 -4 159 -4 c 0
 117 -4 105 -6 88 -6 c 0
 63 -6 48 -3 48 7 c 0
 48 14 54 23 63 26 c 0
 102 39 104 33 104 206 c 2
 104 294 l 2
 104 377 68 363 46 371 c 0
 41 373 36 377 36 381 c 0
86 491 m 0
 86 505 109 518 161 643 c 0
 168 659 178 662 182 662 c 0
 186 662 234 657 234 636 c 0
 234 615 178 554 137 511 c 0
 122 495 106 480 98 480 c 0
 92 480 86 485 86 491 c 0
EndSplineSet
EndChar
StartChar: icircumflex
Encoding: 238 238 195
Width: 284
Flags: MW
LayerCount: 2
Back
Fore
SplineSet
12 499 m 0
 12 501 14 504 16 508 c 0
 103 635 93 648 110 648 c 2
 135 648 l 2
 141 648 146 648 152 637 c 0
 190 569 238 510 238 500 c 0
 238 492 230 492 227 492 c 0
 214 492 131 577 124 577 c 0
 111 577 36 493 22 493 c 0
 19 493 12 494 12 499 c 0
36 381 m 0
 36 397 61 398 117 421 c 0
 153 436 151 439 167 439 c 0
 173 439 182 434 182 420 c 0
 182 408 176 389 176 372 c 2
 176 98 l 2
 176 -10 262 45 262 10 c 0
 262 4 261 -7 245 -7 c 0
 241 -7 235 -6 230 -6 c 0
 188 -6 197 -4 159 -4 c 0
 117 -4 105 -6 88 -6 c 0
 63 -6 48 -3 48 7 c 0
 48 14 54 23 63 26 c 0
 102 39 104 33 104 206 c 2
 104 294 l 2
 104 377 68 363 46 371 c 0
 41 373 36 377 36 381 c 0
EndSplineSet
EndChar
StartChar: idieresis
Encoding: 239 239 196
Width: 284
Flags: MW
LayerCount: 2
Back
Fore
SplineSet
8 591 m 0
 8 608 33 642 55 642 c 0
 78 642 103 611 103 591 c 0
 103 567 69 538 60 538 c 0
 31 538 8 575 8 591 c 0
36 381 m 0
 36 397 61 398 117 421 c 0
 153 436 151 439 167 439 c 0
 173 439 182 434 182 420 c 0
 182 408 176 389 176 372 c 2
 176 98 l 2
 176 -10 262 45 262 10 c 0
 262 4 261 -7 245 -7 c 0
 241 -7 235 -6 230 -6 c 0
 188 -6 197 -4 159 -4 c 0
 117 -4 105 -6 88 -6 c 0
 63 -6 48 -3 48 7 c 0
 48 14 54 23 63 26 c 0
 102 39 104 33 104 206 c 2
 104 294 l 2
 104 377 68 363 46 371 c 0
 41 373 36 377 36 381 c 0
168 591 m 0
 168 608 193 642 215 642 c 0
 238 642 263 611 263 591 c 0
 263 567 228 538 219 538 c 0
 190 538 168 575 168 591 c 0
EndSplineSet
EndChar
StartChar: eth
Encoding: 240 240 197
Width: 547
Flags: MW
LayerCount: 2
Back
Fore
SplineSet
39 203 m 0
 39 316 118 431 275 431 c 0
 306 431 334 419 356 407 c 0
 379 394 402 366 409 366 c 0
 412 366 413 368 413 370 c 0
 413 385 391 437 362 485 c 0
 334 533 301 578 293 578 c 0
 290 578 286 576 280 574 c 2
 138 517 l 2
 137 517 134 516 133 516 c 0
 120 516 112 535 112 545 c 0
 112 552 117 554 121 556 c 2
 254 610 l 2
 260 612 263 615 263 617 c 0
 263 620 258 624 254 628 c 0
 161 732 98 727 98 743 c 0
 98 753 110 755 122 755 c 2
 146 755 l 2
 183 755 248 721 314 658 c 0
 324 648 328 643 334 643 c 0
 337 643 342 645 348 647 c 2
 470 696 l 2
 477 699 483 701 487 701 c 0
 501 701 505 674 505 672 c 0
 505 666 501 660 485 654 c 2
 380 612 l 2
 371 609 366 607 366 604 c 0
 366 598 508 462 508 229 c 0
 508 78 403 -18 268 -18 c 0
 115 -18 39 92 39 203 c 0
118 237 m 0
 118 91 213 12 298 12 c 0
 369 12 435 66 435 179 c 0
 435 223 431 269 412 308 c 0
 401 330 360 365 343 376 c 0
 318 393 287 404 251 404 c 0
 193 404 118 361 118 237 c 0
EndSplineSet
EndChar
StartChar: ograve
Encoding: 242 242 199
Width: 547
Flags: MW
LayerCount: 2
Back
Fore
SplineSet
39 203 m 0
 39 316 118 431 275 431 c 0
 392 431 508 355 508 209 c 0
 508 59 388 -18 268 -18 c 0
 115 -18 39 92 39 203 c 0
118 237 m 0
 118 91 213 12 298 12 c 0
 369 12 433 66 433 179 c 0
 433 285 374 404 251 404 c 0
 193 404 118 361 118 237 c 0
156 636 m 0
 156 657 205 662 209 662 c 0
 213 662 222 659 229 643 c 0
 281 518 305 505 305 491 c 0
 305 485 299 480 293 480 c 0
 285 480 269 495 254 511 c 0
 213 554 156 615 156 636 c 0
EndSplineSet
EndChar
StartChar: oacute
Encoding: 243 243 200
Width: 547
Flags: MW
LayerCount: 2
Back
Fore
SplineSet
39 203 m 0
 39 316 118 431 275 431 c 0
 392 431 508 355 508 209 c 0
 508 59 388 -18 268 -18 c 0
 115 -18 39 92 39 203 c 0
118 237 m 0
 118 91 213 12 298 12 c 0
 369 12 433 66 433 179 c 0
 433 285 374 404 251 404 c 0
 193 404 118 361 118 237 c 0
228 491 m 0
 228 505 251 518 303 643 c 0
 310 659 320 662 324 662 c 0
 328 662 376 657 376 636 c 0
 376 615 320 554 279 511 c 0
 264 495 248 480 240 480 c 0
 234 480 228 485 228 491 c 0
EndSplineSet
EndChar
StartChar: ocircumflex
Encoding: 244 244 201
Width: 547
Flags: MW
LayerCount: 2
Back
Fore
SplineSet
39 203 m 0
 39 316 118 431 275 431 c 0
 392 431 508 355 508 209 c 0
 508 59 388 -18 268 -18 c 0
 115 -18 39 92 39 203 c 0
118 237 m 0
 118 91 213 12 298 12 c 0
 369 12 433 66 433 179 c 0
 433 285 374 404 251 404 c 0
 193 404 118 361 118 237 c 0
154 499 m 0
 154 501 156 504 158 508 c 0
 245 635 235 648 252 648 c 2
 277 648 l 2
 283 648 288 648 294 637 c 0
 332 569 380 510 380 500 c 0
 380 492 372 492 369 492 c 0
 356 492 273 577 266 577 c 0
 253 577 178 493 164 493 c 0
 161 493 154 494 154 499 c 0
EndSplineSet
EndChar
StartChar: otilde
Encoding: 245 245 202
Width: 547
Flags: MW
LayerCount: 2
Back
Fore
SplineSet
39 203 m 0
 39 316 118 431 275 431 c 0
 392 431 508 355 508 209 c 0
 508 59 388 -18 268 -18 c 0
 115 -18 39 92 39 203 c 0
118 237 m 0
 118 91 213 12 298 12 c 0
 369 12 433 66 433 179 c 0
 433 285 374 404 251 404 c 0
 193 404 118 361 118 237 c 0
119 530 m 0
 119 546 171 636 216 636 c 0
 265 636 292 588 341 588 c 0
 374 588 394 644 403 644 c 0
 407 644 413 642 413 632 c 0
 413 614 362 530 317 530 c 0
 267 530 235 578 191 578 c 0
 156 578 138 522 129 522 c 0
 125 522 119 523 119 530 c 0
EndSplineSet
EndChar
StartChar: odieresis
Encoding: 246 246 203
Width: 547
Flags: MW
LayerCount: 2
Back
Fore
SplineSet
39 203 m 0
 39 316 118 431 275 431 c 0
 392 431 508 355 508 209 c 0
 508 59 388 -18 268 -18 c 0
 115 -18 39 92 39 203 c 0
118 237 m 0
 118 91 213 12 298 12 c 0
 369 12 433 66 433 179 c 0
 433 285 374 404 251 404 c 0
 193 404 118 361 118 237 c 0
150 591 m 0
 150 608 175 642 197 642 c 0
 220 642 245 611 245 591 c 0
 245 567 211 538 202 538 c 0
 173 538 150 575 150 591 c 0
310 591 m 0
 310 608 335 642 357 642 c 0
 380 642 405 611 405 591 c 0
 405 567 370 538 361 538 c 0
 332 538 310 575 310 591 c 0
EndSplineSet
EndChar
StartChar: divide
Encoding: 247 247 204
Width: 527
Flags: MW
LayerCount: 2
Back
Fore
SplineSet
31 212 m 0
 31 225 31 232 49 232 c 2
 480 232 l 2
 496 232 496 225 496 211 c 0
 496 194 496 188 475 188 c 2
 48 188 l 2
 30 188 31 195 31 212 c 0
212 320 m 0
 212 342 232 361 254 361 c 0
 276 361 294 343 294 321 c 0
 294 299 275 280 253 280 c 0
 231 280 212 298 212 320 c 0
217 101 m 0
 217 123 236 141 258 141 c 0
 280 141 299 122 299 100 c 0
 299 78 281 60 259 60 c 0
 237 60 217 78 217 101 c 0
EndSplineSet
EndChar
StartChar: oslash
Encoding: 248 248 138
Width: 547
Flags: MW
LayerCount: 2
Back
Fore
SplineSet
39 203 m 0
 39 316 118 431 275 431 c 0
 316 431 336 422 345 422 c 0
 351 422 353 426 357 435 c 0
 387 500 387 500 395 500 c 0
 400 500 425 494 425 482 c 0
 425 480 425 479 401 426 c 0
 398 419 393 414 393 409 c 0
 393 405 395 401 403 397 c 0
 464 362 508 299 508 209 c 0
 508 59 388 -18 268 -18 c 0
 228 -18 208 -11 202 -11 c 0
 198 -11 196 -13 194 -18 c 0
 152 -105 153 -105 147 -105 c 0
 139 -105 115 -98 115 -86 c 0
 115 -80 154 -3 154 2 c 0
 154 6 151 9 145 12 c 0
 74 52 39 127 39 203 c 0
118 237 m 0
 118 120 181 65 182 65 c 0
 184 65 186 67 188 73 c 2
 325 366 l 2
 327 372 331 376 331 379 c 0
 331 389 290 404 251 404 c 0
 193 404 118 361 118 237 c 0
221 37 m 0
 221 28 263 12 298 12 c 0
 369 12 433 66 433 179 c 0
 433 289 373 353 370 353 c 0
 369 353 367 351 365 347 c 0
 229 49 221 39 221 37 c 0
EndSplineSet
EndChar
StartChar: ugrave
Encoding: 249 249 211
Width: 576
Flags: MW
LayerCount: 2
Back
Fore
SplineSet
29 394 m 0
 29 407 38 416 96 416 c 0
 109 416 147 421 153 421 c 0
 176 421 176 418 176 371 c 0
 176 318 171 300 171 195 c 0
 171 63 238 34 282 34 c 0
 365 34 404 63 404 156 c 2
 402 294 l 2
 402 356 399 378 356 382 c 0
 345 383 334 387 334 395 c 0
 334 409 354 418 422 418 c 0
 437 418 449 423 458 423 c 0
 479 423 482 418 482 395 c 0
 482 389 477 276 477 140 c 0
 477 60 483 35 505 35 c 0
 514 35 523 36 531 36 c 0
 545 36 555 33 555 23 c 0
 555 7 546 6 518 6 c 0
 488 6 427 -5 417 -5 c 0
 404 -5 405 46 399 46 c 0
 391 46 345 -18 255 -18 c 0
 155 -18 94 34 94 156 c 0
 94 318 95 300 95 336 c 0
 95 366 75 380 65 380 c 2
 47 380 l 2
 36 380 29 383 29 394 c 0
170 636 m 0
 170 657 219 662 223 662 c 0
 227 662 236 659 243 643 c 0
 295 518 319 505 319 491 c 0
 319 485 313 480 307 480 c 0
 299 480 283 495 268 511 c 0
 227 554 170 615 170 636 c 0
EndSplineSet
EndChar
StartChar: yacute
Encoding: 253 253 209
Width: 498
Flags: MW
LayerCount: 2
Back
Fore
SplineSet
20 412 m 0
 20 421 34 424 40 424 c 0
 94 424 104 422 147 422 c 0
 179 422 177 424 204 424 c 0
 214 424 222 418 222 413 c 0
 222 397 213 395 198 395 c 2
 183 395 l 2
 168 395 167 378 167 367 c 0
 167 342 179 319 227 211 c 0
 248 166 271 104 280 104 c 0
 288 104 367 324 367 358 c 0
 367 418 305 380 305 413 c 0
 305 417 306 425 324 425 c 0
 351 425 378 424 396 424 c 0
 413 424 450 425 458 425 c 0
 472 425 479 420 479 412 c 0
 479 394 450 402 438 385 c 0
 427 369 404 313 384 259 c 2
 295 22 l 2
 238 -130 222 -190 207 -190 c 0
 202 -190 206 -191 161 -191 c 0
 155 -191 142 -189 142 -178 c 0
 142 -167 233 -80 233 -3 c 0
 233 41 113 285 77 353 c 0
 45 414 20 386 20 412 c 0
221 491 m 0
 221 505 244 518 296 643 c 0
 303 659 313 662 317 662 c 0
 321 662 369 657 369 636 c 0
 369 615 313 554 272 511 c 0
 257 495 241 480 233 480 c 0
 227 480 221 485 221 491 c 0
EndSplineSet
EndChar
StartChar: thorn
Encoding: 254 254 210
Width: 544
Flags: MW
LayerCount: 2
Back
Fore
SplineSet
20 693 m 0
 20 712 32 706 88 728 c 0
 114 738 144 756 164 756 c 0
 174 756 176 747 176 737 c 0
 176 722 168 676 168 585 c 2
 168 529 l 2
 168 484 167 416 167 392 c 0
 167 369 168 364 169 364 c 0
 178 364 221 434 321 434 c 0
 446 434 505 337 505 233 c 0
 505 119 429 -9 290 -9 c 0
 185 -9 176 29 161 29 c 0
 159 29 158 26 158 21 c 2
 158 -89 l 1
 158 -102 l 2
 158 -124 168 -139 174 -149 c 0
 201 -191 262 -156 262 -188 c 0
 262 -191 259 -200 228 -200 c 0
 202 -200 203 -196 124 -196 c 0
 92 -196 74 -199 61 -199 c 0
 30 -199 26 -196 26 -189 c 0
 26 -158 89 -202 89 -82 c 2
 89 -62 l 2
 89 135 92 172 92 214 c 2
 92 236 l 2
 92 274 95 541 95 617 c 0
 95 648 83 676 71 681 c 0
 64 684 51 685 31 685 c 0
 25 685 20 686 20 693 c 0
158 192 m 0
 158 172 159 162 159 142 c 0
 159 44 251 21 306 21 c 0
 397 21 439 100 439 185 c 0
 439 282 385 384 283 384 c 0
 242 384 212 369 191 352 c 0
 166 332 158 319 158 192 c 0
EndSplineSet
EndChar
StartChar: ydieresis
Encoding: 255 255 212
Width: 498
Flags: MW
LayerCount: 2
Back
Fore
SplineSet
20 412 m 0
 20 421 34 424 40 424 c 0
 94 424 104 422 147 422 c 0
 179 422 177 424 204 424 c 0
 214 424 222 418 222 413 c 0
 222 397 213 395 198 395 c 2
 183 395 l 2
 168 395 167 378 167 367 c 0
 167 342 179 319 227 211 c 0
 248 166 271 104 280 104 c 0
 288 104 367 324 367 358 c 0
 367 418 305 380 305 413 c 0
 305 417 306 425 324 425 c 0
 351 425 378 424 396 424 c 0
 413 424 450 425 458 425 c 0
 472 425 479 420 479 412 c 0
 479 394 450 402 438 385 c 0
 427 369 404 313 384 259 c 2
 295 22 l 2
 238 -130 222 -190 207 -190 c 0
 202 -190 206 -191 161 -191 c 0
 155 -191 142 -189 142 -178 c 0
 142 -167 233 -80 233 -3 c 0
 233 41 113 285 77 353 c 0
 45 414 20 386 20 412 c 0
143 591 m 0
 143 608 168 642 190 642 c 0
 213 642 238 611 238 591 c 0
 238 567 204 538 195 538 c 0
 166 538 143 575 143 591 c 0
303 591 m 0
 303 608 328 642 350 642 c 0
 373 642 398 611 398 591 c 0
 398 567 363 538 354 538 c 0
 325 538 303 575 303 591 c 0
EndSplineSet
EndChar
StartChar: Aogonek
Encoding: 260 260 458
Width: 812
Flags: MW
LayerCount: 2
Back
Fore
SplineSet
20 8 m 0
 20 18 26 24 35 27 c 0
 93 49 83 70 383 701 c 0
 392 721 397 724 413 724 c 0
 434 724 421 722 485 563 c 0
 532 447 673 120 681 104 c 0
 731 3 792 49 792 13 c 0
 792 8 790 -2 765 -2 c 0
 742 -2 703 4 675 4 c 0
 602 4 538 -6 538 -104 c 0
 538 -119 554 -164 595 -164 c 0
 621 -164 633 -139 644 -139 c 0
 647 -139 652 -142 652 -147 c 0
 652 -161 608 -204 562 -204 c 0
 493 -204 475 -140 475 -121 c 0
 475 -18 584 -9 584 61 c 0
 584 93 536 215 516 251 c 0
 510 261 508 268 485 268 c 0
 466 268 429 266 391 266 c 0
 239 264 240 269 225 237 c 0
 189 161 161 109 161 81 c 0
 161 12 235 44 235 13 c 0
 235 5 234 -1 218 -1 c 0
 202 -1 170 0 135 0 c 0
 96 0 71 -4 49 -4 c 0
 31 -4 20 -2 20 8 c 0
271 338 m 0
 271 320 280 319 322 319 c 2
 353 319 l 2
 397 319 448 320 448 320 c 2
 474 320 487 325 487 336 c 0
 487 348 395 570 376 570 c 0
 363 570 271 350 271 338 c 0
EndSplineSet
EndChar
StartChar: cacute
Encoding: 263 263 492
Width: 452
Flags: MW
LayerCount: 2
Back
Fore
SplineSet
39 192 m 0
 39 314 129 429 271 429 c 0
 312 429 386 415 388 396 c 0
 389 384 390 366 390 349 c 0
 390 326 387 305 379 305 c 0
 365 305 363 323 346 337 c 0
 323 357 266 390 213 390 c 0
 193 390 114 363 114 224 c 0
 114 122 188 31 285 31 c 0
 365 31 404 83 417 83 c 0
 423 83 428 78 428 73 c 0
 428 64 375 -21 246 -21 c 0
 122 -21 39 58 39 192 c 0
213 491 m 0
 213 505 236 518 288 643 c 0
 295 659 305 662 309 662 c 0
 313 662 361 657 361 636 c 0
 361 615 305 554 264 511 c 0
 249 495 233 480 225 480 c 0
 219 480 213 485 213 491 c 0
EndSplineSet
EndChar
StartChar: Ccircumflex
Encoding: 264 264 504
Width: 807
Flags: MW
LayerCount: 2
Back
Fore
SplineSet
44 324 m 0
 44 537 175 714 423 714 c 0
 561 714 673 641 682 641 c 0
 689 641 695 651 703 651 c 0
 709 651 718 646 718 635 c 0
 720 569 732 507 732 495 c 0
 732 479 724 477 720 477 c 0
 714 477 707 484 703 491 c 0
 645 600 553 673 423 673 c 0
 258 673 138 557 138 384 c 0
 138 203 227 26 470 26 c 0
 594 26 672 115 712 176 c 0
 716 183 720 183 727 183 c 0
 733 183 736 176 736 169 c 0
 736 145 722 92 718 71 c 0
 716 62 710 57 702 53 c 0
 615 11 548 -20 444 -20 c 0
 142 -20 44 167 44 324 c 0
307 763 m 0
 307 765 309 768 311 772 c 0
 398 899 388 912 405 912 c 2
 430 912 l 2
 436 912 441 912 447 901 c 0
 485 833 533 774 533 764 c 0
 533 756 525 756 522 756 c 0
 509 756 426 841 419 841 c 0
 406 841 331 757 317 757 c 0
 314 757 307 758 307 763 c 0
EndSplineSet
EndChar
StartChar: ccircumflex
Encoding: 265 265 510
Width: 452
Flags: MW
LayerCount: 2
Back
Fore
SplineSet
39 192 m 0
 39 314 129 429 271 429 c 0
 312 429 386 415 388 396 c 0
 389 384 390 366 390 349 c 0
 390 326 387 305 379 305 c 0
 365 305 363 323 346 337 c 0
 323 357 266 390 213 390 c 0
 193 390 114 363 114 224 c 0
 114 122 188 31 285 31 c 0
 365 31 404 83 417 83 c 0
 423 83 428 78 428 73 c 0
 428 64 375 -21 246 -21 c 0
 122 -21 39 58 39 192 c 0
139 499 m 0
 139 501 141 504 143 508 c 0
 230 635 220 648 237 648 c 2
 262 648 l 2
 268 648 273 648 279 637 c 0
 317 569 365 510 365 500 c 0
 365 492 357 492 354 492 c 0
 341 492 258 577 251 577 c 0
 238 577 163 493 149 493 c 0
 146 493 139 494 139 499 c 0
EndSplineSet
EndChar
StartChar: Ccaron
Encoding: 268 268 480
Width: 807
Flags: MW
LayerCount: 2
Back
Fore
SplineSet
44 324 m 0
 44 537 175 714 423 714 c 0
 561 714 673 641 682 641 c 0
 689 641 695 651 703 651 c 0
 709 651 718 646 718 635 c 0
 720 569 732 507 732 495 c 0
 732 479 724 477 720 477 c 0
 714 477 707 484 703 491 c 0
 645 600 553 673 423 673 c 0
 258 673 138 557 138 384 c 0
 138 203 227 26 470 26 c 0
 594 26 672 115 712 176 c 0
 716 183 720 183 727 183 c 0
 733 183 736 176 736 169 c 0
 736 145 722 92 718 71 c 0
 716 62 710 57 702 53 c 0
 615 11 548 -20 444 -20 c 0
 142 -20 44 167 44 324 c 0
307 904 m 0
 307 912 315 912 318 912 c 0
 331 912 413 827 420 827 c 0
 433 827 509 911 523 911 c 0
 526 911 533 910 533 905 c 0
 533 903 531 900 529 896 c 0
 442 769 452 756 435 756 c 2
 410 756 l 2
 404 756 398 756 392 767 c 0
 354 835 307 894 307 904 c 0
EndSplineSet
EndChar
StartChar: ccaron
Encoding: 269 269 493
Width: 452
Flags: MW
LayerCount: 2
Back
Fore
SplineSet
39 192 m 0
 39 314 129 429 271 429 c 0
 312 429 386 415 388 396 c 0
 389 384 390 366 390 349 c 0
 390 326 387 305 379 305 c 0
 365 305 363 323 346 337 c 0
 323 357 266 390 213 390 c 0
 193 390 114 363 114 224 c 0
 114 122 188 31 285 31 c 0
 365 31 404 83 417 83 c 0
 423 83 428 78 428 73 c 0
 428 64 375 -21 246 -21 c 0
 122 -21 39 58 39 192 c 0
139 640 m 0
 139 648 147 648 150 648 c 0
 163 648 245 563 252 563 c 0
 265 563 341 647 355 647 c 0
 358 647 365 646 365 641 c 0
 365 639 363 636 361 632 c 0
 274 505 284 492 267 492 c 2
 242 492 l 2
 236 492 230 492 224 503 c 0
 186 571 139 630 139 640 c 0
EndSplineSet
EndChar
StartChar: Dcaron
Encoding: 270 270 482
Width: 792
Flags: MW
LayerCount: 2
Back
Fore
SplineSet
20 700 m 0
 20 712 29 712 71 712 c 2
 158 712 l 2
 211 712 285 716 353 716 c 0
 533 716 748 606 748 390 c 0
 748 196 690 135 603 63 c 0
 570 36 487 -3 399 -3 c 0
 375 -3 231 2 159 2 c 0
 99 2 79 -3 59 -3 c 0
 38 -3 35 2 35 10 c 0
 35 28 50 25 70 33 c 0
 91 42 113 72 113 98 c 0
 113 204 114 283 114 369 c 0
 114 450 113 503 113 623 c 0
 113 645 87 674 60 676 c 0
 39 677 20 678 20 700 c 0
197 141 m 0
 197 55 208 67 288 44 c 0
 309 38 335 34 361 34 c 2
 381 34 l 2
 474 34 532 60 589 115 c 0
 645 169 663 267 663 345 c 0
 663 569 475 673 320 673 c 0
 201 673 200 672 200 546 c 0
 200 507 198 373 198 354 c 0
 198 250 197 183 197 141 c 0
262 904 m 0
 262 912 270 912 273 912 c 0
 286 912 368 827 375 827 c 0
 388 827 464 911 478 911 c 0
 481 911 488 910 488 905 c 0
 488 903 486 900 484 896 c 0
 397 769 407 756 390 756 c 2
 365 756 l 2
 359 756 353 756 347 767 c 0
 309 835 262 894 262 904 c 0
EndSplineSet
EndChar
StartChar: dcaron
Encoding: 271 271 495
Width: 565
Flags: MW
LayerCount: 2
Back
Fore
SplineSet
39 195 m 0
 39 314 120 438 282 438 c 0
 327 438 382 409 396 409 c 0
 399 409 401 415 401 445 c 0
 401 574 403 538 403 574 c 0
 403 641 403 686 350 686 c 2
 339 686 l 2
 318 686 318 687 318 694 c 2
 318 695 l 2
 318 710 352 707 431 743 c 0
 443 748 458 758 470 758 c 0
 477 758 482 753 482 738 c 0
 482 717 469 605 469 521 c 0
 469 341 467 228 467 156 c 0
 467 65 473 44 502 35 c 0
 518 30 545 31 545 14 c 0
 545 9 541 2 468 -4 c 0
 439 -6 417 -14 405 -14 c 0
 398 -14 394 -11 394 -3 c 0
 394 6 391 16 391 34 c 0
 391 41 390 51 382 51 c 0
 371 51 331 -14 236 -14 c 0
 105 -14 39 88 39 195 c 0
111 242 m 0
 111 150 173 38 277 38 c 0
 335 38 396 71 396 117 c 0
 397 288 397 271 397 288 c 0
 397 343 383 357 369 365 c 0
 337 384 286 409 250 409 c 0
 161 409 111 335 111 242 c 0
528 718 m 0
 528 722 537 728 548 736 c 0
 557 742 565 753 578 753 c 0
 584 753 630 737 630 692 c 0
 630 625 562 596 547 596 c 0
 541 596 538 601 538 603 c 0
 538 613 580 617 580 658 c 0
 580 702 528 698 528 718 c 0
EndSplineSet
EndChar
StartChar: Dcroat
Encoding: 272 272 520
Width: 792
Flags: MW
LayerCount: 2
Back
Fore
SplineSet
20 700 m 0
 20 712 29 712 71 712 c 2
 158 712 l 2
 211 712 285 716 353 716 c 0
 533 716 748 606 748 390 c 0
 748 196 690 135 603 63 c 0
 570 36 487 -3 399 -3 c 0
 375 -3 231 2 159 2 c 0
 99 2 79 -3 59 -3 c 0
 38 -3 35 2 35 10 c 0
 35 28 50 25 70 33 c 0
 91 42 113 72 113 98 c 0
 113 186 114 254 114 324 c 0
 114 336 112 340 100 340 c 2
 35 340 l 2
 30 340 23 346 23 363 c 0
 23 382 29 383 35 383 c 0
 55 383 49 384 100 384 c 0
 114 384 114 388 114 401 c 0
 114 465 113 519 113 623 c 0
 113 645 87 674 60 676 c 0
 39 677 20 678 20 700 c 0
197 141 m 0
 197 55 208 68 288 44 c 0
 309 38 335 34 361 34 c 2
 381 34 l 2
 474 34 532 60 589 115 c 0
 645 169 663 267 663 345 c 0
 663 569 475 673 320 673 c 0
 201 673 200 672 200 546 c 0
 200 521 199 454 199 406 c 0
 199 389 199 384 220 384 c 2
 371 384 l 2
 391 384 392 377 392 361 c 0
 392 348 391 340 369 340 c 0
 327 340 265 339 219 339 c 2
 209 339 l 2
 199 339 198 338 198 327 c 2
 198 322 l 2
 198 250 197 177 197 141 c 0
EndSplineSet
EndChar
StartChar: dcroat
Encoding: 273 273 496
Width: 565
Flags: MW
LayerCount: 2
Back
Fore
SplineSet
39 195 m 0
 39 314 120 438 282 438 c 0
 327 438 382 409 396 409 c 0
 399 409 401 415 401 445 c 2
 401 517 l 2
 401 529 401 535 389 535 c 2
 250 535 l 2
 230 535 229 541 229 557 c 0
 229 570 229 579 251 579 c 0
 288 579 339 580 381 580 c 2
 389 580 l 2
 399 580 403 579 403 590 c 0
 403 648 398 686 350 686 c 2
 339 686 l 2
 318 686 318 687 318 694 c 2
 318 695 l 2
 318 710 352 707 431 743 c 0
 443 748 458 758 470 758 c 0
 477 758 482 753 482 738 c 0
 482 723 471 603 471 585 c 0
 471 579 473 578 500 578 c 2
 532 578 l 2
 537 578 544 573 544 556 c 0
 544 537 538 535 532 535 c 2
 487 535 l 2
 471 535 469 534 469 521 c 0
 469 341 467 228 467 156 c 0
 467 65 473 44 502 35 c 0
 518 30 545 31 545 14 c 0
 545 9 541 2 468 -4 c 0
 439 -6 417 -14 405 -14 c 0
 398 -14 394 -11 394 -3 c 0
 394 6 391 16 391 34 c 0
 391 41 390 51 382 51 c 0
 371 51 331 -14 236 -14 c 0
 105 -14 39 88 39 195 c 0
111 242 m 0
 111 150 173 38 277 38 c 0
 335 38 396 71 396 117 c 0
 397 288 397 271 397 288 c 0
 397 343 383 357 369 365 c 0
 337 384 286 409 250 409 c 0
 161 409 111 335 111 242 c 0
EndSplineSet
EndChar
StartChar: emacron
Encoding: 275 275 346
Width: 466
Flags: MW
LayerCount: 2
Back
Fore
SplineSet
39 194 m 0
 39 324 120 432 242 432 c 0
 392 432 426 288 426 273 c 0
 426 259 413 255 385 255 c 2
 158 255 l 1
 128 255 l 2
 117 255 117 254 117 244 c 0
 117 111 203 42 286 42 c 0
 357 42 400 87 417 87 c 0
 422 87 427 82 427 78 c 0
 427 67 367 -19 250 -19 c 0
 143 -19 39 45 39 194 c 0
123 293 m 0
 123 284 125 279 136 279 c 0
 182 279 295 285 312 285 c 0
 331 285 333 288 333 297 c 0
 333 323 304 407 225 407 c 0
 153 407 123 328 123 293 c 0
126 589 m 0
 126 604 135 608 142 608 c 0
 282 608 236 606 323 606 c 0
 335 606 338 604 338 577 c 0
 338 565 326 563 324 563 c 0
 306 563 172 564 136 564 c 0
 132 564 126 566 126 589 c 0
EndSplineSet
EndChar
StartChar: Eogonek
Encoding: 280 280 481
Width: 604
Flags: MW
LayerCount: 2
Back
Fore
SplineSet
20 699 m 0
 20 711 40 713 48 713 c 0
 56 713 65 711 75 711 c 0
 99 711 220 706 319 706 c 0
 359 706 489 710 519 710 c 0
 526 710 538 708 538 687 c 0
 538 667 526 635 526 585 c 0
 526 573 518 563 510 563 c 0
 502 563 495 570 495 584 c 0
 495 619 470 653 436 656 c 0
 372 661 353 663 298 663 c 2
 272 663 l 2
 202 663 204 662 201 602 c 0
 199 566 197 481 197 435 c 0
 197 417 198 385 216 384 c 2
 241 384 l 1
 283 384 l 1
 314 384 l 2
 400 384 411 390 430 403 c 0
 463 425 445 457 467 457 c 0
 479 457 480 453 480 441 c 0
 480 423 472 371 472 336 c 0
 472 302 475 294 475 275 c 0
 475 251 471 250 468 250 c 0
 441 250 448 305 421 323 c 0
 400 337 329 337 325 337 c 0
 238 337 248 338 237 338 c 0
 216 338 196 335 196 319 c 0
 196 262 194 231 194 175 c 2
 194 135 l 2
 194 102 201 61 218 56 c 0
 240 49 246 48 261 48 c 0
 580 48 543 143 572 143 c 0
 578 143 584 138 584 126 c 0
 584 116 582 106 578 96 c 0
 559 44 520 20 491 1 c 0
 490 0 436 -29 436 -87 c 0
 436 -140 467 -163 495 -163 c 0
 524 -163 537 -143 545 -143 c 0
 547 -143 552 -143 552 -149 c 0
 552 -168 519 -204 465 -204 c 0
 402 -204 373 -156 373 -114 c 0
 373 -53 438 -9 438 -7 c 0
 438 -6 433 -5 426 -5 c 0
 320 -3 245 5 191 5 c 0
 136 5 104 -4 55 -4 c 0
 45 -4 34 -5 34 6 c 0
 34 33 35 17 77 37 c 0
 108 52 116 78 116 231 c 2
 116 355 l 2
 116 410 119 466 119 528 c 0
 119 557 118 587 117 619 c 0
 115 661 75 680 36 681 c 0
 20 682 20 690 20 699 c 0
EndSplineSet
EndChar
StartChar: eogonek
Encoding: 281 281 494
Width: 466
Flags: MW
LayerCount: 2
Back
Fore
SplineSet
39 194 m 0
 39 324 120 432 242 432 c 0
 392 432 426 288 426 273 c 0
 426 259 413 255 385 255 c 2
 158 255 l 1
 128 255 l 2
 117 255 117 254 117 244 c 0
 117 111 203 42 286 42 c 0
 357 42 400 87 417 87 c 0
 422 87 427 82 427 78 c 0
 427 55 348 9 326 -26 c 0
 317 -41 307 -59 307 -85 c 0
 307 -122 321 -142 334 -152 c 0
 346 -161 356 -163 365 -163 c 0
 394 -163 405 -143 413 -143 c 0
 415 -143 420 -143 420 -149 c 0
 420 -168 390 -204 336 -204 c 0
 318 -204 306 -200 293 -193 c 0
 265 -177 248 -145 248 -112 c 0
 248 -54 299 -20 299 -16 c 0
 299 -15 297 -14 296 -14 c 0
 295 -14 278 -19 250 -19 c 0
 143 -19 39 45 39 194 c 0
123 293 m 0
 123 284 125 279 136 279 c 0
 182 279 295 285 312 285 c 0
 331 285 333 288 333 297 c 0
 333 323 304 407 225 407 c 0
 153 407 123 328 123 293 c 0
EndSplineSet
EndChar
StartChar: Gdotaccent
Encoding: 288 288 535
Width: 818
Flags: MW
LayerCount: 2
Back
Fore
SplineSet
44 329 m 0
 44 542 179 719 435 719 c 0
 605 719 675 648 684 648 c 0
 691 648 704 663 712 663 c 0
 722 663 727 654 727 643 c 0
 729 577 741 516 741 504 c 0
 741 488 733 487 729 487 c 0
 723 487 715 492 712 499 c 0
 666 600 542 680 426 680 c 0
 266 680 138 575 138 384 c 0
 138 203 247 24 435 24 c 0
 539 24 635 79 644 139 c 0
 645 147 647 224 647 265 c 0
 647 294 640 311 630 321 c 0
 618 333 601 335 586 337 c 0
 566 339 549 339 549 359 c 0
 549 365 553 370 567 370 c 0
 592 370 653 365 678 365 c 0
 724 365 770 366 773 366 c 0
 777 366 789 365 789 357 c 0
 789 341 740 341 735 311 c 0
 730 280 728 242 728 199 c 0
 728 110 733 98 733 87 c 0
 733 75 705 79 670 60 c 0
 658 53 555 -17 444 -17 c 0
 142 -17 44 158 44 329 c 0
375 854 m 0
 375 867 403 909 425 909 c 0
 448 909 472 872 472 852 c 0
 472 828 433 797 424 797 c 0
 395 797 375 838 375 854 c 0
EndSplineSet
EndChar
StartChar: Hbar
Encoding: 294 294 521
Width: 791
Flags: MW
LayerCount: 2
Back
Fore
SplineSet
20 699 m 0
 20 710 35 710 48 710 c 0
 76 710 105 706 161 706 c 0
 204 706 186 708 249 708 c 0
 256 708 271 707 271 694 c 0
 271 685 268 677 236 677 c 0
 205 677 198 597 198 553 c 0
 198 547 198 547 206 547 c 0
 244 547 356 548 577 548 c 0
 592 548 594 549 594 576 c 0
 594 716 510 657 510 696 c 0
 510 704 525 706 549 706 c 0
 573 706 607 704 646 704 c 0
 670 704 688 706 724 706 c 0
 733 706 747 703 747 693 c 0
 747 680 737 680 733 680 c 0
 677 680 675 630 675 581 c 2
 675 561 l 2
 675 550 678 548 692 548 c 2
 735 548 l 2
 755 548 756 541 756 525 c 0
 756 512 755 503 733 503 c 2
 692 503 l 2
 677 503 674 502 674 485 c 0
 674 447 673 412 673 375 c 0
 673 327 671 279 671 225 c 2
 671 188 l 2
 671 134 675 124 675 96 c 0
 675 37 732 25 759 22 c 0
 762 22 771 21 771 11 c 0
 771 1 758 0 722 0 c 0
 699 0 674 5 645 5 c 0
 607 5 598 0 551 0 c 0
 525 0 515 0 515 13 c 0
 515 32 577 27 584 65 c 0
 589 91 591 116 591 138 c 0
 591 158 592 176 592 192 c 0
 592 229 594 270 594 315 c 0
 594 333 590 342 561 342 c 0
 535 342 414 340 408 340 c 0
 325 340 288 342 224 342 c 0
 206 342 199 340 199 305 c 0
 199 257 195 221 195 182 c 2
 195 139 l 2
 195 88 198 62 242 34 c 0
 247 31 264 29 285 29 c 0
 295 29 304 23 304 18 c 0
 304 2 289 0 272 0 c 0
 218 0 222 4 189 4 c 0
 137 4 117 -1 81 -1 c 0
 40 -1 34 6 34 14 c 0
 34 41 93 13 108 78 c 0
 111 94 121 227 121 345 c 2
 121 402 l 2
 121 427 122 460 122 496 c 0
 122 503 118 504 111 504 c 2
 52 504 l 2
 47 504 40 509 40 526 c 0
 40 545 45 547 51 547 c 2
 111 547 l 2
 120 547 122 550 122 560 c 0
 121 584 119 608 116 629 c 0
 111 665 70 682 41 682 c 0
 25 682 20 696 20 699 c 0
196 423 m 0
 196 389 201 384 230 384 c 2
 394 384 l 2
 416 384 448 384 578 383 c 0
 594 383 593 399 594 437 c 2
 594 485 l 2
 594 501 592 503 577 503 c 0
 498 503 449 502 414 502 c 0
 315 502 261 503 232 503 c 0
 198 503 198 502 198 496 c 0
 198 463 196 440 196 423 c 0
EndSplineSet
EndChar
StartChar: itilde
Encoding: 297 297 371
Width: 284
Flags: MW
LayerCount: 2
Back
Fore
SplineSet
-23 530 m 0
 -23 546 29 636 74 636 c 0
 123 636 150 588 199 588 c 0
 232 588 252 644 261 644 c 0
 265 644 271 642 271 632 c 0
 271 614 220 530 175 530 c 0
 125 530 93 578 49 578 c 0
 14 578 -4 522 -13 522 c 0
 -17 522 -23 523 -23 530 c 0
36 381 m 0
 36 397 61 398 117 421 c 0
 153 436 151 439 167 439 c 0
 173 439 182 434 182 420 c 0
 182 408 176 389 176 372 c 2
 176 98 l 2
 176 -10 262 45 262 10 c 0
 262 4 261 -7 245 -7 c 0
 241 -7 235 -6 230 -6 c 0
 188 -6 197 -4 159 -4 c 0
 117 -4 105 -6 88 -6 c 0
 63 -6 48 -3 48 7 c 0
 48 14 54 23 63 26 c 0
 102 39 104 33 104 206 c 2
 104 294 l 2
 104 377 68 363 46 371 c 0
 41 373 36 377 36 381 c 0
EndSplineSet
EndChar
StartChar: imacron
Encoding: 299 299 344
Width: 284
Flags: MW
LayerCount: 2
Back
Fore
SplineSet
18 589 m 0
 18 604 27 608 34 608 c 0
 174 608 128 606 215 606 c 0
 227 606 230 604 230 577 c 0
 230 565 218 563 216 563 c 0
 198 563 64 564 28 564 c 0
 24 564 18 566 18 589 c 0
36 381 m 0
 36 397 61 398 117 421 c 0
 153 436 151 439 167 439 c 0
 173 439 182 434 182 420 c 0
 182 408 176 389 176 372 c 2
 176 98 l 2
 176 -10 262 45 262 10 c 0
 262 4 261 -7 245 -7 c 0
 241 -7 235 -6 230 -6 c 0
 188 -6 197 -4 159 -4 c 0
 117 -4 105 -6 88 -6 c 0
 63 -6 48 -3 48 7 c 0
 48 14 54 23 63 26 c 0
 102 39 104 33 104 206 c 2
 104 294 l 2
 104 377 68 363 46 371 c 0
 41 373 36 377 36 381 c 0
EndSplineSet
EndChar
StartChar: iogonek
Encoding: 303 303 555
Width: 284
Flags: MW
LayerCount: 2
Back
Fore
SplineSet
36 381 m 0
 36 397 61 398 117 421 c 0
 153 436 151 439 167 439 c 0
 173 439 182 434 182 420 c 0
 182 408 176 389 176 372 c 2
 176 98 l 2
 176 -10 262 45 262 10 c 0
 262 4 261 -7 245 -7 c 0
 201 -7 194 -5 189 -5 c 0
 177 -5 131 -16 131 -94 c 0
 131 -132 158 -166 184 -166 c 0
 209 -166 215 -155 223 -155 c 0
 226 -155 230 -156 230 -162 c 0
 230 -176 199 -204 153 -204 c 0
 100 -204 71 -154 71 -111 c 0
 71 -38 134 -14 134 -7 c 0
 134 -6 132 -4 126 -4 c 0
 125 -4 125 -5 124 -5 c 0
 108 -5 99 -6 88 -6 c 0
 63 -6 48 -3 48 7 c 0
 48 14 54 23 63 26 c 0
 102 39 104 33 104 206 c 2
 104 294 l 2
 104 377 68 363 46 371 c 0
 41 373 36 377 36 381 c 0
93 590 m 0
 93 603 121 645 143 645 c 0
 166 645 189 608 189 588 c 0
 189 564 151 533 142 533 c 0
 113 533 93 574 93 590 c 0
EndSplineSet
EndChar
StartChar: IJ
Encoding: 306 306 522
Width: 618
Flags: MW
LayerCount: 2
Back
Fore
SplineSet
20 695 m 0
 20 702 24 710 48 710 c 0
 76 710 105 706 161 706 c 0
 204 706 186 708 249 708 c 0
 256 708 276 707 276 694 c 0
 276 685 259 679 230 667 c 0
 202 656 198 591 198 552 c 0
 198 317 195 274 195 182 c 0
 195 121 201 89 220 61 c 0
 241 32 258 30 268 30 c 0
 271 30 285 29 288 29 c 0
 298 29 309 23 309 18 c 0
 309 2 301 0 284 0 c 0
 230 0 222 4 189 4 c 0
 137 4 115 -1 79 -1 c 0
 38 -1 34 6 34 14 c 0
 34 41 93 13 108 78 c 0
 110 86 119 277 119 345 c 2
 119 402 l 2
 119 431 120 469 120 510 c 2
 120 556 l 2
 120 582 119 607 116 629 c 0
 111 665 69 679 41 680 c 0
 21 681 20 690 20 695 c 0
283 -154 m 0
 283 -134 303 -99 314 -99 c 0
 331 -99 335 -133 372 -133 c 0
 412 -133 433 -100 441 -55 c 0
 450 -8 454 33 454 66 c 0
 454 90 453 187 453 189 c 0
 453 257 450 188 450 530 c 0
 450 567 449 603 446 629 c 0
 442 664 398 677 370 678 c 0
 350 679 348 691 348 696 c 0
 348 705 353 713 377 713 c 0
 405 713 434 707 490 707 c 0
 533 707 508 708 571 708 c 0
 578 708 599 708 599 695 c 0
 599 686 582 679 553 667 c 0
 534 660 532 630 532 599 c 2
 532 553 l 2
 532 69 530 117 530 69 c 0
 530 -87 431 -192 323 -192 c 0
 308 -192 283 -190 283 -154 c 0
EndSplineSet
EndChar
StartChar: ij
Encoding: 307 307 526
Width: 560
Flags: MW
LayerCount: 2
Back
Fore
SplineSet
36 381 m 0
 36 397 61 398 117 421 c 0
 153 436 151 439 167 439 c 0
 173 439 182 434 182 420 c 0
 182 408 176 389 176 372 c 2
 176 98 l 2
 176 33 207 27 232 25 c 0
 249 24 262 24 262 10 c 0
 262 4 261 -7 245 -7 c 0
 241 -7 235 -6 230 -6 c 0
 188 -6 197 -4 159 -4 c 0
 117 -4 105 -6 88 -6 c 0
 63 -6 48 -3 48 7 c 0
 48 14 54 23 63 26 c 0
 102 39 104 33 104 206 c 2
 104 294 l 2
 104 377 68 363 46 371 c 0
 41 373 36 377 36 381 c 0
93 590 m 0
 93 603 121 645 143 645 c 0
 166 645 189 608 189 588 c 0
 189 564 151 533 142 533 c 0
 113 533 93 574 93 590 c 0
302 -137 m 0
 302 -120 307 -108 324 -108 c 0
 345 -108 366 -151 382 -151 c 0
 399 -151 405 -117 405 10 c 2
 405 314 l 2
 405 336 404 373 346 373 c 0
 337 373 330 374 330 383 c 0
 330 396 359 391 418 419 c 0
 439 429 457 440 465 440 c 0
 476 440 477 430 477 417 c 2
 477 406 l 2
 477 390 475 371 475 359 c 2
 475 35 l 2
 475 -59 448 -200 343 -200 c 0
 318 -200 304 -193 304 -173 c 0
 304 -162 302 -148 302 -137 c 0
395 591 m 0
 395 608 420 642 442 642 c 0
 465 642 490 611 490 591 c 0
 490 567 455 538 446 538 c 0
 417 538 395 575 395 591 c 0
EndSplineSet
EndChar
StartChar: Jcircumflex
Encoding: 308 308 507
Width: 290
Flags: MW
LayerCount: 2
Back
Fore
SplineSet
-45 -154 m 0
 -45 -134 -25 -99 -14 -99 c 0
 3 -99 7 -133 44 -133 c 0
 84 -133 105 -100 113 -55 c 0
 122 -8 126 33 126 66 c 0
 126 90 125 187 125 189 c 0
 125 257 122 188 122 530 c 0
 122 567 121 603 118 629 c 0
 114 664 70 677 42 678 c 0
 22 679 20 691 20 696 c 0
 20 705 25 713 49 713 c 0
 77 713 106 707 162 707 c 0
 205 707 180 708 243 708 c 0
 250 708 271 708 271 695 c 0
 271 686 254 679 225 667 c 0
 206 660 204 630 204 599 c 2
 204 553 l 2
 204 69 202 117 202 69 c 0
 202 -87 103 -192 -5 -192 c 0
 -20 -192 -45 -190 -45 -154 c 0
34 763 m 0
 34 765 36 768 38 772 c 0
 125 899 115 912 132 912 c 2
 157 912 l 2
 163 912 168 912 174 901 c 0
 212 833 260 774 260 764 c 0
 260 756 252 756 249 756 c 0
 236 756 153 841 146 841 c 0
 133 841 58 757 44 757 c 0
 41 757 34 758 34 763 c 0
EndSplineSet
EndChar
StartChar: jcircumflex
Encoding: 309 309 513
Width: 281
Flags: MW
LayerCount: 2
Back
Fore
SplineSet
23 -137 m 0
 23 -120 28 -108 45 -108 c 0
 66 -108 87 -151 103 -151 c 0
 120 -151 126 -117 126 10 c 2
 126 314 l 2
 126 336 125 373 67 373 c 0
 58 373 51 374 51 383 c 0
 51 396 80 391 139 419 c 0
 160 429 178 440 186 440 c 0
 197 440 198 430 198 417 c 2
 198 406 l 2
 198 390 196 371 196 359 c 2
 196 35 l 2
 196 -59 169 -200 64 -200 c 0
 39 -200 25 -193 25 -173 c 0
 25 -162 23 -148 23 -137 c 0
27 499 m 0
 27 501 29 504 31 508 c 0
 118 635 108 648 125 648 c 2
 150 648 l 2
 156 648 161 648 167 637 c 0
 205 569 253 510 253 500 c 0
 253 492 245 492 242 492 c 0
 229 492 146 577 139 577 c 0
 126 577 51 493 37 493 c 0
 34 493 27 494 27 499 c 0
EndSplineSet
EndChar
StartChar: kcommaaccent
Encoding: 311 311 556
Width: 545
Flags: MW
LayerCount: 2
Back
Fore
SplineSet
0 689 m 0
 0 697 11 703 49 715 c 0
 101 731 84 724 122 747 c 0
 130 752 144 760 155 760 c 0
 166 760 169 750 169 741 c 0
 169 731 160 677 160 488 c 0
 160 420 157 351 157 283 c 2
 157 262 l 2
 157 241 158 220 161 220 c 0
 175 220 180 232 193 243 c 0
 326 349 333 364 333 370 c 0
 333 394 288 391 288 409 c 0
 288 415 291 419 300 419 c 0
 305 419 310 418 318 418 c 0
 399 420 442 423 465 423 c 0
 487 423 491 420 491 414 c 0
 491 394 461 409 401 371 c 0
 391 365 392 364 354 336 c 0
 254 260 254 262 254 250 c 0
 254 243 259 235 265 227 c 0
 337 139 389 87 421 59 c 0
 485 3 527 36 527 12 c 0
 527 -5 514 -5 486 -5 c 0
 473 -5 392 -4 382 -4 c 0
 352 -4 230 154 198 193 c 0
 195 197 191 199 187 199 c 0
 175 199 156 179 156 153 c 0
 156 148 157 143 157 136 c 0
 161 42 158 65 175 41 c 0
 190 19 250 28 250 9 c 0
 250 -5 223 -7 219 -7 c 0
 209 -7 154 -1 122 -1 c 0
 93 -1 92 -5 49 -5 c 0
 36 -5 25 -4 25 7 c 0
 25 20 43 22 50 24 c 0
 82 36 85 54 85 116 c 0
 85 135 86 152 86 160 c 2
 87 604 l 2
 87 671 59 679 40 679 c 0
 33 679 28 678 20 678 c 0
 9 678 0 680 0 689 c 0
215 -79 m 0
 215 -75 224 -69 235 -61 c 0
 244 -55 252 -44 265 -44 c 0
 271 -44 317 -60 317 -105 c 0
 317 -172 249 -201 234 -201 c 0
 228 -201 225 -196 225 -194 c 0
 225 -184 267 -180 267 -139 c 0
 267 -95 215 -99 215 -79 c 0
EndSplineSet
EndChar
StartChar: kra
Encoding: 312 312 527
Width: 545
Flags: MW
LayerCount: 2
Back
Fore
SplineSet
0 368 m 0
 0 376 11 382 49 394 c 0
 101 410 84 403 122 426 c 0
 130 431 144 439 155 439 c 0
 166 439 169 429 169 420 c 0
 169 410 160 398 160 382 c 0
 160 370 157 310 157 283 c 2
 157 262 l 2
 157 241 158 220 161 220 c 0
 175 220 180 232 193 243 c 0
 326 349 333 364 333 370 c 0
 333 394 288 391 288 409 c 0
 288 415 291 419 300 419 c 0
 305 419 310 418 318 418 c 0
 399 420 442 423 465 423 c 0
 487 423 491 420 491 414 c 0
 491 394 461 409 401 371 c 0
 391 365 392 364 354 336 c 0
 254 260 254 262 254 250 c 0
 254 243 259 235 265 227 c 0
 337 139 389 87 421 59 c 0
 485 3 527 36 527 12 c 0
 527 -5 514 -5 486 -5 c 0
 473 -5 392 -4 382 -4 c 0
 352 -4 230 154 198 193 c 0
 195 197 191 199 187 199 c 0
 175 199 156 179 156 153 c 0
 156 148 157 143 157 136 c 0
 161 42 158 65 175 41 c 0
 190 19 250 28 250 9 c 0
 250 -5 223 -7 219 -7 c 0
 209 -7 154 -1 122 -1 c 0
 93 -1 92 -5 49 -5 c 0
 36 -5 25 -4 25 7 c 0
 25 20 43 22 50 24 c 0
 82 36 85 54 85 116 c 0
 85 135 86 152 86 160 c 2
 87 283 l 2
 87 350 59 358 40 358 c 0
 33 358 28 357 20 357 c 0
 9 357 0 359 0 368 c 0
EndSplineSet
EndChar
StartChar: Lcommaaccent
Encoding: 315 315 540
Width: 603
Flags: MW
LayerCount: 2
Back
Fore
SplineSet
20 695 m 0
 20 710 39 713 47 713 c 0
 55 713 64 711 74 711 c 0
 98 711 121 707 161 707 c 0
 215 707 248 711 266 711 c 0
 279 711 283 709 283 701 c 0
 283 658 208 714 201 593 c 0
 198 531 193 186 193 175 c 2
 193 135 l 2
 193 102 200 61 217 56 c 0
 239 49 245 48 260 48 c 0
 579 48 542 143 571 143 c 0
 577 143 583 138 583 126 c 0
 583 66 505 -5 465 -5 c 0
 337 -5 251 5 190 5 c 0
 135 5 114 -3 65 -3 c 0
 45 -3 36 2 36 9 c 0
 36 20 47 25 52 25 c 0
 56 25 67 25 81 35 c 0
 103 52 115 78 115 231 c 2
 115 355 l 2
 115 410 118 466 118 528 c 0
 118 557 117 587 116 619 c 0
 114 661 74 680 35 681 c 0
 21 681 20 687 20 695 c 0
252 -79 m 0
 252 -75 261 -69 272 -61 c 0
 281 -55 289 -44 302 -44 c 0
 308 -44 354 -60 354 -105 c 0
 354 -172 286 -201 271 -201 c 0
 265 -201 262 -196 262 -194 c 0
 262 -184 304 -180 304 -139 c 0
 304 -95 252 -99 252 -79 c 0
EndSplineSet
EndChar
StartChar: lcommaaccent
Encoding: 316 316 558
Width: 279
Flags: MW
LayerCount: 2
Back
Fore
SplineSet
20 693 m 0
 20 712 32 706 88 728 c 0
 114 738 144 756 164 756 c 0
 174 756 176 747 176 737 c 0
 176 722 168 676 168 585 c 2
 168 529 l 2
 168 444 166 446 166 396 c 2
 166 98 l 2
 166 66 171 25 247 25 c 0
 254 25 260 17 260 10 c 0
 260 -1 248 -4 229 -4 c 0
 208 -4 159 3 128 3 c 0
 82 3 69 -5 47 -5 c 0
 36 -5 31 2 31 5 c 0
 31 23 50 20 65 27 c 0
 89 38 92 57 92 92 c 0
 92 100 91 108 91 118 c 2
 91 192 l 2
 91 277 95 490 95 617 c 0
 95 648 83 676 71 681 c 0
 64 684 51 685 31 685 c 0
 25 685 20 686 20 693 c 0
84 -79 m 0
 84 -75 93 -69 104 -61 c 0
 113 -55 121 -44 134 -44 c 0
 140 -44 186 -60 186 -105 c 0
 186 -172 118 -201 103 -201 c 0
 97 -201 94 -196 94 -194 c 0
 94 -184 136 -180 136 -139 c 0
 136 -95 84 -99 84 -79 c 0
EndSplineSet
EndChar
StartChar: Lcaron
Encoding: 317 317 460
Width: 603
Flags: MW
LayerCount: 2
Back
Fore
SplineSet
20 695 m 0
 20 710 39 713 47 713 c 0
 55 713 64 711 74 711 c 0
 98 711 121 707 161 707 c 0
 215 707 248 711 266 711 c 0
 279 711 283 709 283 701 c 0
 283 658 208 714 201 593 c 0
 198 531 193 186 193 175 c 2
 193 135 l 2
 193 102 200 61 217 56 c 0
 239 49 245 48 260 48 c 0
 579 48 542 143 571 143 c 0
 577 143 583 138 583 126 c 0
 583 66 505 -5 465 -5 c 0
 337 -5 251 5 190 5 c 0
 135 5 114 -3 65 -3 c 0
 45 -3 36 2 36 9 c 0
 36 20 47 25 52 25 c 0
 56 25 67 25 81 35 c 0
 103 52 115 78 115 231 c 2
 115 355 l 2
 115 410 118 466 118 528 c 0
 118 557 117 587 116 619 c 0
 114 661 74 680 35 681 c 0
 21 681 20 687 20 695 c 0
355 718 m 0
 355 722 364 728 375 736 c 0
 384 742 392 753 405 753 c 0
 411 753 457 737 457 692 c 0
 457 625 389 596 374 596 c 0
 368 596 365 601 365 603 c 0
 365 613 407 617 407 658 c 0
 407 702 355 698 355 718 c 0
EndSplineSet
EndChar
StartChar: lcaron
Encoding: 318 318 468
Width: 279
Flags: MW
LayerCount: 2
Back
Fore
SplineSet
20 693 m 0
 20 712 32 706 88 728 c 0
 114 738 144 756 164 756 c 0
 174 756 176 747 176 737 c 0
 176 722 168 676 168 585 c 2
 168 529 l 2
 168 444 166 446 166 396 c 2
 166 98 l 2
 166 66 171 25 247 25 c 0
 254 25 260 17 260 10 c 0
 260 -1 248 -4 229 -4 c 0
 208 -4 159 3 128 3 c 0
 82 3 69 -5 47 -5 c 0
 36 -5 31 2 31 5 c 0
 31 23 50 20 65 27 c 0
 89 38 92 57 92 92 c 0
 92 100 91 108 91 118 c 2
 91 192 l 2
 91 277 95 490 95 617 c 0
 95 648 83 676 71 681 c 0
 64 684 51 685 31 685 c 0
 25 685 20 686 20 693 c 0
221 718 m 0
 221 722 230 728 241 736 c 0
 250 742 258 753 271 753 c 0
 277 753 323 737 323 692 c 0
 323 625 255 596 240 596 c 0
 234 596 231 601 231 603 c 0
 231 613 273 617 273 658 c 0
 273 702 221 698 221 718 c 0
EndSplineSet
EndChar
StartChar: Lslash
Encoding: 321 321 131
Width: 603
Flags: MW
LayerCount: 2
Back
Fore
SplineSet
20 695 m 0
 20 710 39 713 47 713 c 0
 55 713 64 711 74 711 c 0
 98 711 121 707 161 707 c 0
 215 707 248 711 266 711 c 0
 279 711 283 709 283 701 c 0
 283 658 208 714 201 593 c 0
 199 552 197 450 197 389 c 0
 197 384 198 381 201 381 c 0
 204 381 209 384 218 387 c 2
 436 474 l 2
 446 478 452 480 457 480 c 0
 472 480 476 455 476 454 c 0
 476 447 471 440 450 432 c 2
 210 336 l 2
 199 332 195 329 195 312 c 0
 193 180 193 200 193 175 c 2
 193 135 l 2
 193 102 200 61 217 56 c 0
 239 49 245 48 260 48 c 0
 579 48 542 143 571 143 c 0
 577 143 583 138 583 126 c 0
 583 66 505 -5 465 -5 c 0
 337 -5 251 5 190 5 c 0
 135 5 114 -3 65 -3 c 0
 45 -3 36 2 36 9 c 0
 36 20 47 25 52 25 c 0
 56 25 67 25 81 35 c 0
 103 52 115 78 115 231 c 2
 115 285 l 2
 115 292 115 296 112 296 c 0
 111 296 109 295 107 295 c 2
 61 277 l 2
 59 276 57 275 55 275 c 0
 37 275 33 299 33 303 c 0
 33 311 38 314 44 316 c 2
 104 341 l 2
 111 343 115 345 115 355 c 0
 115 410 118 466 118 528 c 0
 118 557 117 587 116 619 c 0
 114 661 74 680 35 681 c 0
 21 681 20 687 20 695 c 0
EndSplineSet
EndChar
StartChar: lslash
Encoding: 322 322 137
Width: 279
Flags: MW
LayerCount: 2
Back
Fore
SplineSet
20 336 m 0
 20 343 22 341 81 376 c 0
 93 383 94 389 94 410 c 0
 95 483 95 559 95 617 c 0
 95 648 83 676 71 681 c 0
 64 684 51 685 31 685 c 0
 25 685 20 686 20 693 c 0
 20 712 32 706 88 728 c 0
 114 738 144 756 164 756 c 0
 174 756 176 747 176 737 c 0
 176 722 168 676 168 585 c 2
 168 529 l 2
 168 477 167 452 167 440 c 0
 167 431 168 430 171 430 c 0
 176 430 214 457 225 457 c 0
 238 457 245 438 245 429 c 0
 245 420 241 419 183 384 c 0
 172 377 166 374 166 354 c 2
 166 98 l 2
 166 66 171 25 247 25 c 0
 254 25 260 17 260 10 c 0
 260 -1 248 -4 229 -4 c 0
 208 -4 159 3 128 3 c 0
 82 3 69 -5 47 -5 c 0
 36 -5 31 2 31 5 c 0
 31 23 50 20 65 27 c 0
 89 38 92 57 92 92 c 0
 92 100 91 108 91 118 c 2
 91 192 l 2
 91 220 93 262 93 309 c 0
 93 322 92 329 90 329 c 0
 84 329 46 304 42 304 c 0
 33 304 20 316 20 336 c 0
EndSplineSet
EndChar
StartChar: Ncommaaccent
Encoding: 325 325 541
Width: 798
Flags: MW
LayerCount: 2
Back
Fore
SplineSet
20 691 m 0
 20 698 30 708 45 708 c 0
 56 708 74 707 83 707 c 0
 110 707 113 709 132 709 c 0
 144 709 164 700 167 692 c 0
 171 684 201 655 229 618 c 0
 332 484 531 259 593 191 c 0
 621 160 631 146 638 146 c 0
 647 146 648 176 648 208 c 2
 648 325 l 2
 648 478 646 509 646 530 c 2
 646 537 l 2
 646 677 592 663 550 676 c 0
 536 680 530 687 530 693 c 0
 530 701 533 708 549 708 c 0
 561 708 633 707 644 707 c 0
 686 707 715 709 734 709 c 0
 756 709 764 706 764 692 c 0
 764 681 731 673 729 672 c 0
 720 667 696 643 696 559 c 2
 696 521 l 2
 696 380 685 125 685 26 c 2
 685 6 l 2
 685 -7 683 -17 671 -17 c 0
 665 -17 658 -13 655 -10 c 0
 212 503 197 520 187 520 c 0
 180 520 177 493 177 452 c 0
 177 290 169 176 169 128 c 0
 169 -4 267 46 267 13 c 0
 267 -3 262 -4 251 -4 c 0
 222 -4 232 -2 144 -2 c 0
 123 -2 95 -4 59 -4 c 0
 46 -4 37 -3 37 12 c 0
 37 38 87 6 111 88 c 0
 120 121 135 426 135 499 c 0
 135 613 105 668 33 676 c 0
 20 677 20 686 20 691 c 0
362 -79 m 0
 362 -75 371 -69 382 -61 c 0
 391 -55 399 -44 412 -44 c 0
 418 -44 464 -60 464 -105 c 0
 464 -172 396 -201 381 -201 c 0
 375 -201 372 -196 372 -194 c 0
 372 -184 414 -180 414 -139 c 0
 414 -95 362 -99 362 -79 c 0
EndSplineSet
EndChar
StartChar: ncommaaccent
Encoding: 326 326 559
Width: 591
Flags: MW
LayerCount: 2
Back
Fore
SplineSet
31 390 m 0
 31 403 58 402 80 408 c 0
 124 420 159 442 169 442 c 2
 171 442 l 2
 178 442 180 437 180 430 c 0
 180 423 178 403 178 387 c 0
 178 369 179 361 183 361 c 0
 190 361 194 380 230 402 c 0
 254 417 285 430 317 430 c 0
 459 430 489 315 489 262 c 0
 489 245 490 262 490 119 c 2
 490 97 l 2
 490 51 494 33 551 24 c 0
 569 21 571 17 571 9 c 0
 571 1 561 -1 551 -1 c 0
 510 -1 491 4 469 4 c 0
 444 4 404 0 392 0 c 0
 379 0 372 5 372 13 c 0
 372 27 395 27 397 28 c 0
 417 34 419 68 419 95 c 2
 419 230 l 2
 419 341 353 386 290 386 c 0
 224 386 182 337 178 325 c 0
 173 311 169 200 169 167 c 2
 169 129 l 2
 169 71 174 32 226 28 c 0
 232 28 267 25 267 13 c 0
 267 2 257 0 248 0 c 0
 211 0 221 4 175 4 c 0
 132 4 72 0 63 0 c 0
 51 0 48 4 48 10 c 0
 48 41 97 -13 101 106 c 0
 103 162 103 152 103 181 c 2
 103 325 l 2
 103 372 83 379 60 379 c 2
 50 379 l 2
 36 379 31 383 31 390 c 0
266 -79 m 0
 266 -75 275 -69 286 -61 c 0
 295 -55 303 -44 316 -44 c 0
 322 -44 368 -60 368 -105 c 0
 368 -172 300 -201 285 -201 c 0
 279 -201 276 -196 276 -194 c 0
 276 -184 318 -180 318 -139 c 0
 318 -95 266 -99 266 -79 c 0
EndSplineSet
EndChar
StartChar: ncaron
Encoding: 328 328 498
Width: 591
Flags: MW
LayerCount: 2
Back
Fore
SplineSet
31 390 m 0
 31 403 58 402 80 408 c 0
 124 420 159 442 169 442 c 2
 171 442 l 2
 178 442 180 437 180 430 c 0
 180 423 178 403 178 387 c 0
 178 369 179 361 183 361 c 0
 190 361 194 380 230 402 c 0
 254 417 285 430 317 430 c 0
 459 430 489 315 489 262 c 0
 489 245 490 262 490 119 c 2
 490 97 l 2
 490 51 494 33 551 24 c 0
 569 21 571 17 571 9 c 0
 571 1 561 -1 551 -1 c 0
 510 -1 491 4 469 4 c 0
 444 4 404 0 392 0 c 0
 379 0 372 5 372 13 c 0
 372 27 395 27 397 28 c 0
 417 34 419 68 419 95 c 2
 419 230 l 2
 419 341 353 386 290 386 c 0
 224 386 182 337 178 325 c 0
 173 311 169 200 169 167 c 2
 169 129 l 2
 169 71 174 32 226 28 c 0
 232 28 267 25 267 13 c 0
 267 2 257 0 248 0 c 0
 211 0 221 4 175 4 c 0
 132 4 72 0 63 0 c 0
 51 0 48 4 48 10 c 0
 48 41 97 -13 101 106 c 0
 103 162 103 152 103 181 c 2
 103 325 l 2
 103 372 83 379 60 379 c 2
 50 379 l 2
 36 379 31 383 31 390 c 0
191 640 m 0
 191 648 199 648 202 648 c 0
 215 648 297 563 304 563 c 0
 317 563 393 647 407 647 c 0
 410 647 417 646 417 641 c 0
 417 639 415 636 413 632 c 0
 326 505 336 492 319 492 c 2
 294 492 l 2
 288 492 282 492 276 503 c 0
 238 571 191 630 191 640 c 0
EndSplineSet
EndChar
StartChar: napostrophe
Encoding: 329 329 529
Width: 825
Flags: MW
LayerCount: 2
Back
Fore
SplineSet
56 649 m 0
 56 657 69 668 83 682 c 0
 95 694 105 713 123 713 c 0
 131 713 190 683 190 601 c 0
 190 479 102 427 82 427 c 0
 74 427 69 436 69 439 c 0
 69 458 125 466 125 541 c 0
 125 621 56 613 56 649 c 0
265 390 m 0
 265 403 292 402 314 408 c 0
 358 420 393 442 403 442 c 2
 405 442 l 2
 412 442 414 437 414 430 c 0
 414 423 412 403 412 387 c 0
 412 369 413 361 417 361 c 0
 424 361 428 380 464 402 c 0
 488 417 519 430 551 430 c 0
 693 430 723 315 723 262 c 0
 723 245 724 262 724 119 c 2
 724 97 l 2
 724 51 728 33 785 24 c 0
 803 21 805 17 805 9 c 0
 805 1 795 -1 785 -1 c 0
 744 -1 725 4 703 4 c 0
 678 4 638 0 626 0 c 0
 613 0 606 5 606 13 c 0
 606 27 629 27 631 28 c 0
 651 34 653 68 653 95 c 2
 653 230 l 2
 653 341 587 386 524 386 c 0
 458 386 416 337 412 325 c 0
 407 311 403 200 403 167 c 2
 403 129 l 2
 403 71 408 32 460 28 c 0
 466 28 501 25 501 13 c 0
 501 2 491 0 482 0 c 0
 445 0 455 4 409 4 c 0
 366 4 306 0 297 0 c 0
 285 0 282 4 282 10 c 0
 282 41 331 -13 335 106 c 0
 337 162 337 152 337 181 c 2
 337 325 l 2
 337 372 317 379 294 379 c 2
 284 379 l 2
 270 379 265 383 265 390 c 0
EndSplineSet
EndChar
StartChar: Omacron
Encoding: 332 332 352
Width: 853
Flags: MW
LayerCount: 2
Back
Fore
SplineSet
44 339 m 0
 44 554 176 722 431 722 c 0
 733 722 809 494 809 392 c 0
 809 111 636 -16 417 -16 c 0
 169 -16 44 159 44 339 c 0
132 390 m 0
 132 263 223 28 449 28 c 0
 560 28 727 116 727 300 c 0
 727 552 573 682 397 682 c 0
 263 682 132 594 132 390 c 0
312 853 m 0
 312 868 321 872 328 872 c 0
 468 872 422 870 509 870 c 0
 521 870 524 868 524 841 c 0
 524 829 512 827 510 827 c 0
 492 827 358 828 322 828 c 0
 318 828 312 830 312 853 c 0
EndSplineSet
EndChar
StartChar: omacron
Encoding: 333 333 347
Width: 547
Flags: MW
LayerCount: 2
Back
Fore
SplineSet
39 203 m 0
 39 316 118 431 275 431 c 0
 392 431 508 355 508 209 c 0
 508 59 388 -18 268 -18 c 0
 115 -18 39 92 39 203 c 0
118 237 m 0
 118 91 213 12 298 12 c 0
 369 12 433 66 433 179 c 0
 433 285 374 404 251 404 c 0
 193 404 118 361 118 237 c 0
160 589 m 0
 160 604 169 608 176 608 c 0
 316 608 270 606 357 606 c 0
 369 606 372 604 372 577 c 0
 372 565 360 563 358 563 c 0
 340 563 206 564 170 564 c 0
 166 564 160 566 160 589 c 0
EndSplineSet
EndChar
StartChar: Ohungarumlaut
Encoding: 336 336 485
Width: 853
Flags: MW
LayerCount: 2
Back
Fore
SplineSet
44 339 m 0
 44 554 176 722 431 722 c 0
 733 722 809 494 809 392 c 0
 809 111 636 -16 417 -16 c 0
 169 -16 44 159 44 339 c 0
132 390 m 0
 132 263 223 28 449 28 c 0
 560 28 727 116 727 300 c 0
 727 552 573 682 397 682 c 0
 263 682 132 594 132 390 c 0
311 755 m 0
 311 769 335 782 387 907 c 0
 394 923 404 926 408 926 c 0
 412 926 460 921 460 900 c 0
 460 879 404 818 363 775 c 0
 348 759 332 744 324 744 c 0
 318 744 311 749 311 755 c 0
470 755 m 0
 470 769 494 782 546 907 c 0
 553 923 562 926 566 926 c 0
 570 926 618 921 618 900 c 0
 618 879 562 818 521 775 c 0
 506 759 490 744 482 744 c 0
 476 744 470 749 470 755 c 0
EndSplineSet
EndChar
StartChar: ohungarumlaut
Encoding: 337 337 499
Width: 547
Flags: MW
LayerCount: 2
Back
Fore
SplineSet
39 203 m 0
 39 316 118 431 275 431 c 0
 392 431 508 355 508 209 c 0
 508 59 388 -18 268 -18 c 0
 115 -18 39 92 39 203 c 0
118 237 m 0
 118 91 213 12 298 12 c 0
 369 12 433 66 433 179 c 0
 433 285 374 404 251 404 c 0
 193 404 118 361 118 237 c 0
159 491 m 0
 159 505 183 518 235 643 c 0
 242 659 252 662 256 662 c 0
 260 662 308 657 308 636 c 0
 308 615 252 554 211 511 c 0
 196 495 180 480 172 480 c 0
 166 480 159 485 159 491 c 0
318 491 m 0
 318 505 342 518 394 643 c 0
 401 659 410 662 414 662 c 0
 418 662 466 657 466 636 c 0
 466 615 410 554 369 511 c 0
 354 495 338 480 330 480 c 0
 324 480 318 485 318 491 c 0
EndSplineSet
EndChar
StartChar: OE
Encoding: 338 338 133
Width: 1042
Flags: MW
LayerCount: 2
Back
Fore
SplineSet
44 339 m 0
 44 554 176 722 431 722 c 0
 519 722 500 706 757 706 c 0
 797 706 928 710 958 710 c 0
 965 710 976 708 976 687 c 0
 976 667 964 635 964 585 c 0
 964 573 957 563 949 563 c 0
 941 563 934 570 934 584 c 0
 934 619 908 654 874 656 c 0
 810 661 791 663 736 663 c 2
 711 663 l 2
 641 663 642 662 639 602 c 0
 637 566 636 481 636 435 c 0
 636 417 636 385 654 384 c 2
 679 384 l 1
 722 384 l 1
 752 384 l 2
 838 384 849 390 868 403 c 0
 901 425 884 457 906 457 c 0
 918 457 919 453 919 441 c 0
 919 423 910 371 910 336 c 0
 910 302 914 294 914 275 c 0
 914 251 910 250 907 250 c 0
 880 250 887 305 860 323 c 0
 839 337 767 337 763 337 c 0
 676 337 687 338 676 338 c 0
 655 338 635 335 635 319 c 0
 635 262 633 231 633 175 c 0
 633 161 632 148 632 135 c 0
 632 102 639 61 656 56 c 0
 678 49 684 48 699 48 c 0
 1018 48 982 143 1011 143 c 0
 1017 143 1023 138 1023 126 c 0
 1023 66 944 -5 904 -5 c 0
 776 -5 691 5 630 5 c 0
 536 5 508 -16 417 -16 c 0
 169 -16 44 159 44 339 c 0
132 390 m 0
 132 263 223 28 449 28 c 0
 530 28 537 53 542 66 c 0
 551 91 555 137 555 231 c 2
 555 355 l 2
 555 410 558 466 558 528 c 0
 558 652 555 644 521 658 c 0
 482 674 440 682 397 682 c 0
 263 682 132 594 132 390 c 0
EndSplineSet
EndChar
StartChar: oe
Encoding: 339 339 139
Width: 859
Flags: MW
LayerCount: 2
Back
Fore
SplineSet
39 203 m 0
 39 316 118 431 275 431 c 0
 338 431 409 408 456 355 c 0
 466 344 468 333 470 333 c 0
 472 333 482 368 531 401 c 0
 560 421 596 432 635 432 c 0
 785 432 819 288 819 273 c 0
 819 259 806 255 778 255 c 2
 551 255 l 1
 521 255 l 2
 510 255 510 254 510 244 c 0
 510 111 596 42 679 42 c 0
 750 42 794 87 811 87 c 0
 816 87 820 82 820 78 c 0
 820 67 760 -19 643 -19 c 0
 581 -19 520 3 479 51 c 0
 468 64 466 75 463 75 c 0
 462 75 451 44 393 13 c 0
 355 -8 311 -18 268 -18 c 0
 115 -18 39 92 39 203 c 0
118 237 m 0
 118 91 213 12 298 12 c 0
 370 12 433 68 433 179 c 0
 433 292 369 404 251 404 c 0
 193 404 118 361 118 237 c 0
516 293 m 0
 516 284 518 279 529 279 c 0
 575 279 688 285 705 285 c 0
 724 285 726 288 726 297 c 0
 726 323 697 407 618 407 c 0
 546 407 516 328 516 293 c 0
EndSplineSet
EndChar
StartChar: Racute
Encoding: 340 340 476
Width: 718
Flags: MW
LayerCount: 2
Back
Fore
SplineSet
20 696 m 0
 20 709 28 712 49 712 c 2
 215 712 l 2
 258 712 280 715 315 715 c 0
 429 715 533 654 533 547 c 0
 533 399 408 372 408 356 c 0
 408 340 566 119 607 76 c 0
 611 71 647 29 699 29 c 0
 705 29 713 25 713 17 c 0
 713 0 711 -8 639 -8 c 0
 636 -8 589 -6 553 15 c 0
 500 46 425 172 374 255 c 0
 332 323 312 333 300 333 c 2
 279 333 l 1
 218 333 l 2
 203 333 201 333 201 262 c 0
 201 121 202 135 202 121 c 0
 202 0 325 42 325 9 c 0
 325 -1 321 -7 307 -7 c 0
 303 -7 174 0 164 0 c 0
 116 0 65 -4 54 -4 c 0
 44 -4 33 -1 33 12 c 0
 33 47 117 3 117 113 c 0
 117 177 118 317 118 428 c 0
 118 533 117 570 117 597 c 0
 117 705 20 665 20 696 c 0
201 536 m 2
 201 405 201 385 209 380 c 0
 222 372 233 371 252 371 c 2
 262 371 l 1
 291 371 l 2
 413 371 449 439 449 510 c 0
 449 579 398 674 254 674 c 0
 203 674 201 654 201 564 c 2
 201 536 l 2
259 755 m 0
 259 769 282 782 334 907 c 0
 341 923 351 926 355 926 c 0
 359 926 407 921 407 900 c 0
 407 879 351 818 310 775 c 0
 295 759 279 744 271 744 c 0
 265 744 259 749 259 755 c 0
EndSplineSet
EndChar
StartChar: racute
Encoding: 341 341 489
Width: 375
Flags: MW
LayerCount: 2
Back
Fore
SplineSet
22 380 m 0
 22 404 72 401 154 440 c 0
 159 442 167 444 168 444 c 0
 177 444 181 434 181 424 c 0
 181 416 180 407 180 397 c 0
 180 355 182 354 188 354 c 0
 196 354 228 435 293 435 c 0
 314 435 320 429 340 416 c 0
 358 404 361 392 361 387 c 0
 361 346 330 331 327 331 c 0
 304 331 299 355 251 355 c 0
 212 355 177 314 177 293 c 2
 177 189 l 2
 177 83 179 101 179 84 c 0
 179 54 203 34 226 30 c 0
 251 26 277 28 277 13 c 0
 277 6 276 -3 265 -3 c 0
 233 -3 203 2 180 2 c 0
 126 2 93 -3 76 -3 c 0
 54 -3 54 2 54 9 c 0
 54 17 56 23 67 26 c 0
 103 35 104 56 104 135 c 0
 104 326 102 307 102 326 c 0
 102 344 97 363 52 363 c 0
 49 363 45 364 41 364 c 0
 32 364 22 366 22 380 c 0
179 491 m 0
 179 505 202 518 254 643 c 0
 261 659 271 662 275 662 c 0
 279 662 327 657 327 636 c 0
 327 615 271 554 230 511 c 0
 215 495 199 480 191 480 c 0
 185 480 179 485 179 491 c 0
EndSplineSet
EndChar
StartChar: rcommaaccent
Encoding: 343 343 560
Width: 375
Flags: MW
LayerCount: 2
Back
Fore
SplineSet
22 380 m 0
 22 404 72 401 154 440 c 0
 159 442 167 444 168 444 c 0
 177 444 181 434 181 424 c 0
 181 416 180 407 180 397 c 0
 180 355 182 354 188 354 c 0
 196 354 228 435 293 435 c 0
 314 435 320 429 340 416 c 0
 358 404 361 392 361 387 c 0
 361 346 330 331 327 331 c 0
 304 331 299 355 251 355 c 0
 212 355 177 314 177 293 c 2
 177 189 l 2
 177 83 179 101 179 84 c 0
 179 54 203 34 226 30 c 0
 251 26 277 28 277 13 c 0
 277 6 276 -3 265 -3 c 0
 233 -3 203 2 180 2 c 0
 126 2 93 -3 76 -3 c 0
 54 -3 54 2 54 9 c 0
 54 17 56 23 67 26 c 0
 103 35 104 56 104 135 c 0
 104 326 102 307 102 326 c 0
 102 344 97 363 52 363 c 0
 49 363 45 364 41 364 c 0
 32 364 22 366 22 380 c 0
115 -79 m 0
 115 -75 124 -69 135 -61 c 0
 144 -55 152 -44 165 -44 c 0
 171 -44 217 -60 217 -105 c 0
 217 -172 149 -201 134 -201 c 0
 128 -201 125 -196 125 -194 c 0
 125 -184 167 -180 167 -139 c 0
 167 -95 115 -99 115 -79 c 0
EndSplineSet
EndChar
StartChar: rcaron
Encoding: 345 345 500
Width: 375
Flags: MW
LayerCount: 2
Back
Fore
SplineSet
22 380 m 0
 22 404 72 401 154 440 c 0
 159 442 167 444 168 444 c 0
 177 444 181 434 181 424 c 0
 181 416 180 407 180 397 c 0
 180 355 182 354 188 354 c 0
 196 354 228 435 293 435 c 0
 314 435 320 429 340 416 c 0
 358 404 361 392 361 387 c 0
 361 346 330 331 327 331 c 0
 304 331 299 355 251 355 c 0
 212 355 177 314 177 293 c 2
 177 189 l 2
 177 83 179 101 179 84 c 0
 179 54 203 34 226 30 c 0
 251 26 277 28 277 13 c 0
 277 6 276 -3 265 -3 c 0
 233 -3 203 2 180 2 c 0
 126 2 93 -3 76 -3 c 0
 54 -3 54 2 54 9 c 0
 54 17 56 23 67 26 c 0
 103 35 104 56 104 135 c 0
 104 326 102 307 102 326 c 0
 102 344 97 363 52 363 c 0
 49 363 45 364 41 364 c 0
 32 364 22 366 22 380 c 0
105 640 m 0
 105 648 113 648 116 648 c 0
 129 648 211 563 218 563 c 0
 231 563 307 647 321 647 c 0
 324 647 331 646 331 641 c 0
 331 639 329 636 327 632 c 0
 240 505 250 492 233 492 c 2
 208 492 l 2
 202 492 196 492 190 503 c 0
 152 571 105 630 105 640 c 0
EndSplineSet
EndChar
StartChar: sacute
Encoding: 347 347 469
Width: 393
Flags: MW
LayerCount: 2
Back
Fore
SplineSet
55 43 m 2
 55 130 l 2
 55 145 63 156 70 156 c 0
 91 156 87 136 96 113 c 0
 106 88 138 21 200 21 c 0
 231 21 287 35 287 92 c 0
 287 213 63 170 63 314 c 0
 63 391 136 438 214 438 c 0
 318 438 328 408 328 401 c 0
 328 398 332 352 332 341 c 0
 332 319 328 312 314 312 c 0
 297 312 283 404 193 404 c 0
 155 404 126 383 126 353 c 0
 126 294 185 281 233 263 c 0
 328 227 355 197 355 119 c 0
 355 81 331 41 302 15 c 0
 288 3 263 -16 203 -16 c 0
 151 -16 106 6 91 11 c 0
 67 19 55 18 55 43 c 2
169 491 m 0
 169 505 192 518 244 643 c 0
 251 659 261 662 265 662 c 0
 269 662 317 657 317 636 c 0
 317 615 261 554 220 511 c 0
 205 495 189 480 181 480 c 0
 175 480 169 485 169 491 c 0
EndSplineSet
EndChar
StartChar: Scircumflex
Encoding: 348 348 508
Width: 596
Flags: MW
LayerCount: 2
Back
Fore
SplineSet
59 187 m 0
 59 202 66 208 73 208 c 0
 79 208 87 204 89 198 c 0
 114 137 164 31 308 31 c 0
 409 31 474 89 474 174 c 0
 474 309 300 301 170 379 c 0
 113 413 79 458 79 526 c 0
 79 645 175 722 311 722 c 0
 375 722 441 689 455 689 c 0
 461 689 471 697 478 697 c 0
 484 697 492 694 493 689 c 0
 501 643 514 567 514 553 c 0
 514 532 506 525 500 525 c 0
 492 525 489 530 486 539 c 0
 461 600 449 607 420 633 c 0
 383 666 335 681 289 681 c 0
 210 681 143 640 143 570 c 0
 143 410 375 454 498 322 c 0
 522 296 538 261 538 215 c 0
 538 71 432 -13 305 -13 c 0
 220 -13 170 -8 108 25 c 0
 87 37 59 178 59 187 c 0
193 763 m 0
 193 765 195 768 197 772 c 0
 284 899 274 912 291 912 c 2
 316 912 l 2
 322 912 327 912 333 901 c 0
 371 833 419 774 419 764 c 0
 419 756 411 756 408 756 c 0
 395 756 312 841 305 841 c 0
 292 841 217 757 203 757 c 0
 200 757 193 758 193 763 c 0
EndSplineSet
EndChar
StartChar: scedilla
Encoding: 351 351 471
Width: 393
Flags: MW
LayerCount: 2
Back
Fore
SplineSet
55 43 m 2
 55 130 l 2
 55 145 63 156 70 156 c 0
 91 156 87 136 96 113 c 0
 106 88 138 21 200 21 c 0
 231 21 287 35 287 92 c 0
 287 213 63 170 63 314 c 0
 63 391 136 438 214 438 c 0
 318 438 328 408 328 401 c 0
 328 398 332 352 332 341 c 0
 332 319 328 312 314 312 c 0
 297 312 283 404 193 404 c 0
 155 404 126 383 126 353 c 0
 126 294 185 281 233 263 c 0
 328 227 355 197 355 119 c 0
 355 81 331 41 302 15 c 0
 288 3 263 -16 203 -16 c 0
 151 -16 106 6 91 11 c 0
 67 19 55 18 55 43 c 2
154 -79 m 0
 154 -75 163 -69 174 -61 c 0
 183 -55 191 -44 204 -44 c 0
 210 -44 256 -60 256 -105 c 0
 256 -172 188 -201 173 -201 c 0
 167 -201 164 -196 164 -194 c 0
 164 -184 206 -180 206 -139 c 0
 206 -95 154 -99 154 -79 c 0
EndSplineSet
EndChar
StartChar: Scaron
Encoding: 352 352 217
Width: 596
Flags: MW
LayerCount: 2
Back
Fore
SplineSet
59 187 m 0
 59 202 66 208 73 208 c 0
 79 208 87 204 89 198 c 0
 114 137 164 31 308 31 c 0
 409 31 474 89 474 174 c 0
 474 309 300 301 170 379 c 0
 113 413 79 458 79 526 c 0
 79 645 175 722 311 722 c 0
 375 722 441 689 455 689 c 0
 461 689 471 697 478 697 c 0
 484 697 492 694 493 689 c 0
 501 643 514 567 514 553 c 0
 514 532 506 525 500 525 c 0
 492 525 489 530 486 539 c 0
 461 600 449 607 420 633 c 0
 383 666 335 681 289 681 c 0
 210 681 143 640 143 570 c 0
 143 410 375 454 498 322 c 0
 522 296 538 261 538 215 c 0
 538 71 432 -13 305 -13 c 0
 220 -13 170 -8 108 25 c 0
 87 37 59 178 59 187 c 0
193 904 m 0
 193 912 201 912 204 912 c 0
 217 912 299 827 306 827 c 0
 319 827 395 911 409 911 c 0
 412 911 419 910 419 905 c 0
 419 903 417 900 415 896 c 0
 328 769 338 756 321 756 c 2
 296 756 l 2
 290 756 284 756 278 767 c 0
 240 835 193 894 193 904 c 0
EndSplineSet
EndChar
StartChar: scaron
Encoding: 353 353 220
Width: 393
Flags: MW
LayerCount: 2
Back
Fore
SplineSet
55 43 m 2
 55 130 l 2
 55 145 63 156 70 156 c 0
 91 156 87 136 96 113 c 0
 106 88 138 21 200 21 c 0
 231 21 287 35 287 92 c 0
 287 213 63 170 63 314 c 0
 63 391 136 438 214 438 c 0
 318 438 328 408 328 401 c 0
 328 398 332 352 332 341 c 0
 332 319 328 312 314 312 c 0
 297 312 283 404 193 404 c 0
 155 404 126 383 126 353 c 0
 126 294 185 281 233 263 c 0
 328 227 355 197 355 119 c 0
 355 81 331 41 302 15 c 0
 288 3 263 -16 203 -16 c 0
 151 -16 106 6 91 11 c 0
 67 19 55 18 55 43 c 2
95 640 m 0
 95 648 103 648 106 648 c 0
 119 648 201 563 208 563 c 0
 221 563 297 647 311 647 c 0
 314 647 321 646 321 641 c 0
 321 639 319 636 317 632 c 0
 230 505 240 492 223 492 c 2
 198 492 l 2
 192 492 186 492 180 503 c 0
 142 571 95 630 95 640 c 0
EndSplineSet
EndChar
StartChar: tcedilla
Encoding: 355 355 502
Width: 342
Flags: MW
LayerCount: 2
Back
Fore
SplineSet
27 384 m 0
 27 400 45 402 80 438 c 0
 120 480 136 520 156 520 c 0
 164 520 167 514 167 497 c 0
 167 479 163 459 163 440 c 0
 163 421 163 420 204 420 c 2
 239 420 l 2
 304 420 305 434 316 434 c 0
 323 434 326 429 326 423 c 0
 326 413 302 368 294 368 c 0
 221 369 189 375 188 375 c 0
 162 375 158 370 158 342 c 0
 158 314 154 209 154 156 c 0
 154 75 165 40 240 40 c 0
 276 40 303 59 314 59 c 0
 321 59 324 57 324 47 c 0
 324 32 274 -10 215 -10 c 0
 88 -10 80 68 80 107 c 2
 80 122 l 2
 80 210 84 347 84 355 c 0
 84 368 80 371 63 371 c 0
 56 371 49 370 44 370 c 0
 32 370 27 372 27 384 c 0
139 -79 m 0
 139 -75 148 -69 159 -61 c 0
 168 -55 176 -44 189 -44 c 0
 195 -44 241 -60 241 -105 c 0
 241 -172 173 -201 158 -201 c 0
 152 -201 149 -196 149 -194 c 0
 149 -184 191 -180 191 -139 c 0
 191 -95 139 -99 139 -79 c 0
EndSplineSet
EndChar
StartChar: tcaron
Encoding: 357 357 472
Width: 342
Flags: MW
LayerCount: 2
Back
Fore
SplineSet
27 384 m 0
 27 400 45 402 80 438 c 0
 120 480 136 520 156 520 c 0
 164 520 167 514 167 497 c 0
 167 479 163 459 163 440 c 0
 163 421 163 420 204 420 c 2
 239 420 l 2
 304 420 305 434 316 434 c 0
 323 434 326 429 326 423 c 0
 326 413 302 368 294 368 c 0
 221 369 189 375 188 375 c 0
 162 375 158 370 158 342 c 0
 158 314 154 209 154 156 c 0
 154 75 165 40 240 40 c 0
 276 40 303 59 314 59 c 0
 321 59 324 57 324 47 c 0
 324 32 274 -10 215 -10 c 0
 88 -10 80 68 80 107 c 2
 80 122 l 2
 80 210 84 347 84 355 c 0
 84 368 80 371 63 371 c 0
 56 371 49 370 44 370 c 0
 32 370 27 372 27 384 c 0
218 635 m 0
 218 639 227 645 238 653 c 0
 247 659 255 670 268 670 c 0
 274 670 320 654 320 609 c 0
 320 542 252 513 237 513 c 0
 231 513 228 518 228 520 c 0
 228 530 270 534 270 575 c 0
 270 619 218 615 218 635 c 0
EndSplineSet
EndChar
StartChar: Tbar
Encoding: 358 358 525
Width: 703
Flags: MW
LayerCount: 2
Back
Fore
SplineSet
20 580 m 0
 20 609 26 658 30 683 c 0
 33 705 31 718 61 718 c 0
 131 718 122 710 343 710 c 0
 491 710 598 712 651 715 c 0
 653 715 656 716 658 716 c 0
 675 716 677 702 677 699 c 0
 677 687 683 626 683 618 c 0
 683 583 680 580 667 580 c 0
 665 580 659 581 656 592 c 0
 643 639 639 658 555 658 c 2
 425 658 l 2
 393 658 390 654 390 594 c 2
 390 545 l 2
 390 499 389 461 389 428 c 2
 389 414 l 2
 389 404 391 397 409 397 c 2
 545 397 l 2
 569 397 569 391 569 375 c 0
 569 362 568 353 542 353 c 0
 504 353 453 352 407 352 c 0
 392 352 389 351 389 334 c 0
 389 276 386 114 386 114 c 2
 386 87 388 69 400 57 c 0
 438 20 484 39 484 13 c 0
 484 -3 477 -4 460 -4 c 0
 434 -4 382 4 349 4 c 0
 323 4 279 -3 247 -3 c 0
 226 -3 210 1 210 13 c 0
 210 34 237 30 262 36 c 0
 280 40 297 49 300 76 c 0
 305 120 308 240 309 334 c 0
 309 351 304 353 293 353 c 2
 284 353 l 2
 282 353 150 354 142 354 c 0
 136 354 127 359 127 376 c 0
 127 395 134 396 141 396 c 0
 209 396 228 397 287 397 c 0
 308 397 310 400 310 418 c 2
 310 454 l 2
 310 560 309 633 309 633 c 2
 309 658 306 661 233 661 c 0
 85 661 83 650 72 636 c 0
 45 600 56 563 31 563 c 0
 25 563 20 566 20 580 c 0
EndSplineSet
EndChar
StartChar: tbar
Encoding: 359 359 530
Width: 342
Flags: MW
LayerCount: 2
Back
Fore
SplineSet
27 226 m 0
 27 245 33 247 39 247 c 2
 70 247 l 2
 84 247 82 257 82 267 c 2
 83 294 l 2
 84 328 84 352 84 355 c 0
 84 368 80 371 63 371 c 0
 56 371 49 370 44 370 c 0
 32 370 27 372 27 384 c 0
 27 400 45 402 80 438 c 0
 120 480 136 520 156 520 c 0
 164 520 167 514 167 497 c 0
 167 479 163 459 163 440 c 0
 163 421 163 420 204 420 c 2
 239 420 l 2
 304 420 305 434 316 434 c 0
 323 434 326 429 326 423 c 0
 326 413 302 368 294 368 c 0
 221 369 189 375 188 375 c 0
 162 375 158 370 158 342 c 0
 158 329 157 298 156 264 c 0
 156 251 157 248 172 248 c 2
 290 248 l 2
 310 248 311 241 311 225 c 0
 311 212 310 203 288 203 c 0
 246 203 241 202 167 202 c 0
 157 202 154 199 154 189 c 2
 154 156 l 2
 154 75 165 40 240 40 c 0
 276 40 303 59 314 59 c 0
 321 59 324 57 324 47 c 0
 324 32 274 -10 215 -10 c 0
 88 -10 80 68 80 107 c 2
 80 122 l 2
 80 143 81 166 81 189 c 0
 81 201 78 204 67 204 c 2
 40 204 l 2
 35 204 27 209 27 226 c 0
EndSplineSet
EndChar
StartChar: utilde
Encoding: 361 361 376
Width: 576
Flags: MW
LayerCount: 2
Back
Fore
SplineSet
29 394 m 0
 29 407 38 416 96 416 c 0
 109 416 147 421 153 421 c 0
 176 421 176 418 176 371 c 0
 176 318 171 300 171 195 c 0
 171 63 238 34 282 34 c 0
 365 34 404 63 404 156 c 2
 402 294 l 2
 402 356 399 378 356 382 c 0
 345 383 334 387 334 395 c 0
 334 409 354 418 422 418 c 0
 437 418 449 423 458 423 c 0
 479 423 482 418 482 395 c 0
 482 389 477 276 477 140 c 0
 477 60 483 35 505 35 c 0
 514 35 523 36 531 36 c 0
 545 36 555 33 555 23 c 0
 555 7 546 6 518 6 c 0
 488 6 427 -5 417 -5 c 0
 404 -5 405 46 399 46 c 0
 391 46 345 -18 255 -18 c 0
 155 -18 94 34 94 156 c 0
 94 318 95 300 95 336 c 0
 95 366 75 380 65 380 c 2
 47 380 l 2
 36 380 29 383 29 394 c 0
133 530 m 0
 133 546 185 636 230 636 c 0
 279 636 306 588 355 588 c 0
 388 588 408 644 417 644 c 0
 421 644 427 642 427 632 c 0
 427 614 376 530 331 530 c 0
 281 530 249 578 205 578 c 0
 170 578 152 522 143 522 c 0
 139 522 133 523 133 530 c 0
EndSplineSet
EndChar
StartChar: umacron
Encoding: 363 363 345
Width: 576
Flags: MW
LayerCount: 2
Back
Fore
SplineSet
29 394 m 0
 29 407 38 416 96 416 c 0
 109 416 147 421 153 421 c 0
 176 421 176 418 176 371 c 0
 176 318 171 300 171 195 c 0
 171 63 238 34 282 34 c 0
 365 34 404 63 404 156 c 2
 402 294 l 2
 402 356 399 378 356 382 c 0
 345 383 334 387 334 395 c 0
 334 409 354 418 422 418 c 0
 437 418 449 423 458 423 c 0
 479 423 482 418 482 395 c 0
 482 389 477 276 477 140 c 0
 477 60 483 35 505 35 c 0
 514 35 523 36 531 36 c 0
 545 36 555 33 555 23 c 0
 555 7 546 6 518 6 c 0
 488 6 427 -5 417 -5 c 0
 404 -5 405 46 399 46 c 0
 391 46 345 -18 255 -18 c 0
 155 -18 94 34 94 156 c 0
 94 318 95 300 95 336 c 0
 95 366 75 380 65 380 c 2
 47 380 l 2
 36 380 29 383 29 394 c 0
174 589 m 0
 174 604 183 608 190 608 c 0
 330 608 284 606 371 606 c 0
 383 606 386 604 386 577 c 0
 386 565 374 563 372 563 c 0
 354 563 220 564 184 564 c 0
 180 564 174 566 174 589 c 0
EndSplineSet
EndChar
StartChar: Ubreve
Encoding: 364 364 509
Width: 815
Flags: MW
LayerCount: 2
Back
Fore
SplineSet
20 697 m 0
 20 704 20 710 43 710 c 0
 71 710 100 706 156 706 c 0
 203 706 175 708 250 708 c 0
 259 708 271 707 271 694 c 0
 271 660 201 724 201 580 c 2
 201 552 l 2
 201 465 200 395 200 336 c 0
 200 199 200 28 432 28 c 0
 544 28 691 29 691 324 c 0
 691 494 690 494 690 536 c 0
 690 590 689 646 654 670 c 0
 630 687 592 676 592 692 c 0
 592 700 596 708 612 708 c 0
 624 708 678 706 689 706 c 0
 731 706 755 709 774 709 c 0
 795 709 795 701 795 696 c 0
 795 680 758 674 747 653 c 0
 738 636 736 624 736 587 c 0
 736 570 737 550 737 520 c 0
 737 138 698 55 575 3 c 0
 539 -12 466 -19 432 -19 c 0
 310 -19 243 1 195 45 c 0
 115 118 114 209 114 414 c 2
 114 431 l 2
 114 500 116 544 116 575 c 0
 116 644 110 668 42 678 c 0
 21 681 20 692 20 697 c 0
323 891 m 0
 323 893 329 894 334 894 c 2
 339 894 l 2
 352 894 363 824 447 824 c 0
 528 824 532 894 545 894 c 2
 549 894 l 2
 554 894 560 893 560 891 c 0
 560 849 524 765 441 765 c 0
 358 765 323 844 323 891 c 0
EndSplineSet
EndChar
StartChar: uring
Encoding: 367 367 375
Width: 576
Flags: MW
LayerCount: 2
Back
Fore
SplineSet
29 394 m 0
 29 407 38 416 96 416 c 0
 109 416 147 421 153 421 c 0
 176 421 176 418 176 371 c 0
 176 318 171 300 171 195 c 0
 171 63 238 34 282 34 c 0
 365 34 404 63 404 156 c 2
 402 294 l 2
 402 356 399 378 356 382 c 0
 345 383 334 387 334 395 c 0
 334 409 354 418 422 418 c 0
 437 418 449 423 458 423 c 0
 479 423 482 418 482 395 c 0
 482 389 477 276 477 140 c 0
 477 60 483 35 505 35 c 0
 514 35 523 36 531 36 c 0
 545 36 555 33 555 23 c 0
 555 7 546 6 518 6 c 0
 488 6 427 -5 417 -5 c 0
 404 -5 405 46 399 46 c 0
 391 46 345 -18 255 -18 c 0
 155 -18 94 34 94 156 c 0
 94 318 95 300 95 336 c 0
 95 366 75 380 65 380 c 2
 47 380 l 2
 36 380 29 383 29 394 c 0
204 591 m 0
 204 623 236 668 282 668 c 0
 337 668 356 615 356 587 c 0
 356 531 295 510 281 510 c 0
 213 510 204 568 204 591 c 0
242 590 m 0
 242 566 258 549 281 549 c 0
 288 549 318 555 318 588 c 0
 318 603 313 629 281 629 c 0
 263 629 242 612 242 590 c 0
EndSplineSet
EndChar
StartChar: uhungarumlaut
Encoding: 369 369 501
Width: 576
Flags: MW
LayerCount: 2
Back
Fore
SplineSet
29 394 m 0
 29 407 38 416 96 416 c 0
 109 416 147 421 153 421 c 0
 176 421 176 418 176 371 c 0
 176 318 171 300 171 195 c 0
 171 63 238 34 282 34 c 0
 365 34 404 63 404 156 c 2
 402 294 l 2
 402 356 399 378 356 382 c 0
 345 383 334 387 334 395 c 0
 334 409 354 418 422 418 c 0
 437 418 449 423 458 423 c 0
 479 423 482 418 482 395 c 0
 482 389 477 276 477 140 c 0
 477 60 483 35 505 35 c 0
 514 35 523 36 531 36 c 0
 545 36 555 33 555 23 c 0
 555 7 546 6 518 6 c 0
 488 6 427 -5 417 -5 c 0
 404 -5 405 46 399 46 c 0
 391 46 345 -18 255 -18 c 0
 155 -18 94 34 94 156 c 0
 94 318 95 300 95 336 c 0
 95 366 75 380 65 380 c 2
 47 380 l 2
 36 380 29 383 29 394 c 0
173 491 m 0
 173 505 197 518 249 643 c 0
 256 659 266 662 270 662 c 0
 274 662 322 657 322 636 c 0
 322 615 266 554 225 511 c 0
 210 495 194 480 186 480 c 0
 180 480 173 485 173 491 c 0
332 491 m 0
 332 505 356 518 408 643 c 0
 415 659 424 662 428 662 c 0
 432 662 480 657 480 636 c 0
 480 615 424 554 383 511 c 0
 368 495 352 480 344 480 c 0
 338 480 332 485 332 491 c 0
EndSplineSet
EndChar
StartChar: Uogonek
Encoding: 370 370 543
Width: 815
Flags: MW
LayerCount: 2
Back
Fore
SplineSet
20 697 m 0
 20 704 20 710 43 710 c 0
 71 710 100 706 156 706 c 0
 203 706 175 708 250 708 c 0
 259 708 271 707 271 694 c 0
 271 660 201 724 201 580 c 2
 201 552 l 2
 201 465 200 395 200 336 c 0
 200 199 200 28 432 28 c 0
 544 28 691 29 691 324 c 0
 691 494 690 494 690 536 c 0
 690 590 689 646 654 670 c 0
 630 687 592 676 592 692 c 0
 592 700 596 708 612 708 c 0
 624 708 678 706 689 706 c 0
 731 706 755 709 774 709 c 0
 795 709 795 701 795 696 c 0
 795 680 758 674 747 653 c 0
 738 636 736 624 736 587 c 0
 736 570 737 550 737 520 c 0
 737 138 698 55 575 3 c 0
 507 -25 464 12 464 -94 c 0
 464 -132 488 -166 514 -166 c 0
 539 -166 546 -155 554 -155 c 0
 557 -155 561 -156 561 -162 c 0
 561 -176 529 -204 483 -204 c 0
 430 -204 399 -158 399 -115 c 0
 399 -54 436 -25 436 -21 c 0
 436 -12 284 -37 195 45 c 0
 115 118 114 209 114 414 c 2
 114 431 l 2
 114 500 116 544 116 575 c 0
 116 644 110 668 42 678 c 0
 21 681 20 692 20 697 c 0
EndSplineSet
EndChar
StartChar: uogonek
Encoding: 371 371 561
Width: 576
Flags: MW
LayerCount: 2
Back
Fore
SplineSet
29 394 m 0
 29 407 38 416 96 416 c 0
 109 416 147 421 153 421 c 0
 176 421 176 418 176 371 c 0
 176 318 171 300 171 195 c 0
 171 63 238 34 282 34 c 0
 365 34 404 63 404 156 c 2
 402 294 l 2
 402 356 399 378 356 382 c 0
 345 383 334 387 334 395 c 0
 334 409 354 418 422 418 c 0
 437 418 449 423 458 423 c 0
 479 423 482 418 482 395 c 0
 482 389 477 276 477 140 c 0
 477 60 483 35 505 35 c 0
 514 35 523 36 531 36 c 0
 545 36 555 33 555 23 c 0
 555 7 546 6 518 6 c 0
 442 6 435 -16 434 -17 c 0
 421 -32 410 -56 410 -94 c 0
 410 -132 436 -166 462 -166 c 0
 487 -166 494 -155 502 -155 c 0
 505 -155 509 -156 509 -162 c 0
 509 -176 478 -204 432 -204 c 0
 379 -204 350 -154 350 -111 c 0
 350 -37 407 -15 407 11 c 0
 407 28 400 46 399 46 c 0
 391 46 345 -18 255 -18 c 0
 155 -18 94 34 94 156 c 0
 94 318 95 300 95 336 c 0
 95 366 75 380 65 380 c 2
 47 380 l 2
 36 380 29 383 29 394 c 0
EndSplineSet
EndChar
StartChar: Wcircumflex
Encoding: 372 372 548
Width: 1110
Flags: MW
LayerCount: 2
Back
Fore
SplineSet
20 695 m 0
 20 708 36 709 47 709 c 0
 69 709 91 706 157 706 c 0
 205 706 230 709 243 709 c 0
 255 709 257 706 257 697 c 0
 257 681 214 683 214 650 c 0
 214 619 249 557 356 312 c 0
 389 236 433 126 443 126 c 0
 449 126 498 236 525 305 c 0
 535 331 545 340 545 359 c 0
 545 372 433 631 408 659 c 0
 388 681 377 679 363 680 c 0
 323 684 323 687 323 696 c 0
 323 709 341 710 352 710 c 0
 374 710 396 706 462 706 c 0
 471 706 503 710 528 710 c 0
 545 710 558 708 558 702 c 0
 558 687 515 684 515 651 c 0
 515 629 527 605 546 562 c 0
 555 542 584 461 593 461 c 0
 604 461 665 632 665 652 c 0
 665 694 605 679 605 700 c 0
 605 709 613 711 627 711 c 0
 641 711 672 709 691 709 c 2
 708 709 l 2
 721 709 735 710 761 712 c 2
 770 712 l 2
 777 712 783 710 783 702 c 0
 783 684 754 690 738 673 c 0
 729 664 719 649 710 627 c 0
 621 415 620 419 620 399 c 0
 620 394 736 119 753 119 c 0
 769 119 974 616 974 649 c 0
 974 696 900 676 900 700 c 0
 900 709 901 710 919 710 c 0
 931 710 947 709 982 709 c 0
 1020 709 1022 711 1071 711 c 0
 1082 711 1091 709 1091 697 c 0
 1091 681 1071 683 1050 662 c 0
 1033 645 1028 628 1011 590 c 0
 736 -26 741 -27 727 -27 c 0
 716 -27 696 29 681 62 c 0
 639 159 582 301 572 301 c 0
 557 301 445 17 443 9 c 0
 433 -20 432 -30 422 -30 c 0
 401 -30 375 73 284 271 c 0
 211 430 180 511 161 558 c 0
 92 730 20 649 20 695 c 0
465 763 m 0
 465 765 467 768 469 772 c 0
 556 899 546 912 563 912 c 2
 588 912 l 2
 594 912 599 912 605 901 c 0
 643 833 691 774 691 764 c 0
 691 756 683 756 680 756 c 0
 667 756 584 841 577 841 c 0
 564 841 489 757 475 757 c 0
 472 757 465 758 465 763 c 0
EndSplineSet
EndChar
StartChar: wcircumflex
Encoding: 373 373 562
Width: 748
Flags: MW
LayerCount: 2
Back
Fore
SplineSet
20 416 m 0
 20 425 33 427 39 427 c 0
 46 427 70 423 110 423 c 0
 139 423 130 424 159 424 c 0
 196 424 206 424 206 413 c 0
 206 393 162 410 162 366 c 0
 162 335 183 283 218 204 c 0
 239 159 258 104 267 104 c 0
 272 104 287 135 307 173 c 0
 355 265 360 270 360 294 c 0
 360 302 346 340 331 362 c 0
 297 411 274 397 274 415 c 0
 274 424 283 424 289 424 c 0
 356 424 288 422 410 422 c 0
 435 422 428 423 441 423 c 0
 462 423 463 412 463 409 c 0
 463 400 459 400 448 399 c 0
 435 398 418 394 418 371 c 0
 418 352 442 281 477 204 c 0
 498 159 515 103 524 103 c 0
 537 103 619 308 619 356 c 0
 619 410 564 385 564 414 c 0
 564 422 574 422 585 422 c 2
 700 422 l 2
 724 422 729 421 729 409 c 0
 729 391 706 401 685 372 c 0
 659 336 663 319 541 60 c 0
 519 13 507 -13 495 -13 c 0
 465 -13 394 246 376 246 c 0
 365 246 265 -10 232 -10 c 0
 216 -10 216 10 113 265 c 0
 87 330 92 352 39 396 c 0
 26 407 20 404 20 416 c 0
265 499 m 0
 265 501 267 504 269 508 c 0
 356 635 346 648 363 648 c 2
 388 648 l 2
 394 648 399 648 405 637 c 0
 443 569 491 510 491 500 c 0
 491 492 483 492 480 492 c 0
 467 492 384 577 377 577 c 0
 364 577 289 493 275 493 c 0
 272 493 265 494 265 499 c 0
EndSplineSet
EndChar
StartChar: Ycircumflex
Encoding: 374 374 549
Width: 712
Flags: MW
LayerCount: 2
Back
Fore
SplineSet
20 688 m 0
 20 703 32 705 82 705 c 0
 95 705 123 703 140 703 c 0
 163 703 197 704 225 704 c 0
 260 704 275 699 275 692 c 0
 275 671 233 676 233 657 c 0
 233 627 269 581 287 553 c 0
 333 481 392 401 399 401 c 0
 413 401 434 447 466 494 c 0
 501 547 542 605 542 632 c 0
 542 660 525 668 508 672 c 0
 489 676 468 675 468 693 c 0
 468 703 478 705 496 705 c 0
 507 705 521 704 537 704 c 0
 582 704 605 703 643 703 c 0
 671 703 692 702 692 688 c 0
 692 678 670 678 649 661 c 0
 579 606 501 456 438 375 c 0
 416 347 414 322 414 249 c 0
 414 222 415 167 415 133 c 2
 415 109 l 2
 415 37 455 31 468 31 c 0
 471 31 485 30 488 30 c 0
 498 30 503 21 503 16 c 0
 503 3 497 0 479 0 c 0
 465 0 410 1 379 1 c 0
 314 1 310 -3 269 -3 c 0
 247 -3 241 1 241 8 c 0
 241 29 263 22 284 28 c 0
 304 34 326 50 326 89 c 0
 326 114 328 107 328 292 c 0
 328 353 314 354 171 570 c 0
 105 670 74 675 45 675 c 0
 36 675 20 675 20 688 c 0
262 763 m 0
 262 765 264 768 266 772 c 0
 353 899 343 912 360 912 c 2
 385 912 l 2
 391 912 396 912 402 901 c 0
 440 833 488 774 488 764 c 0
 488 756 480 756 477 756 c 0
 464 756 381 841 374 841 c 0
 361 841 286 757 272 757 c 0
 269 757 262 758 262 763 c 0
EndSplineSet
EndChar
StartChar: Ydieresis
Encoding: 376 376 218
Width: 712
Flags: MW
LayerCount: 2
Back
Fore
SplineSet
20 688 m 0
 20 703 32 705 82 705 c 0
 95 705 123 703 140 703 c 0
 163 703 197 704 225 704 c 0
 260 704 275 699 275 692 c 0
 275 671 233 676 233 657 c 0
 233 627 269 581 287 553 c 0
 333 481 392 401 399 401 c 0
 413 401 434 447 466 494 c 0
 501 547 542 605 542 632 c 0
 542 660 525 668 508 672 c 0
 489 676 468 675 468 693 c 0
 468 703 478 705 496 705 c 0
 507 705 521 704 537 704 c 0
 582 704 605 703 643 703 c 0
 671 703 692 702 692 688 c 0
 692 678 670 678 649 661 c 0
 579 606 501 456 438 375 c 0
 416 347 414 322 414 249 c 0
 414 222 415 167 415 133 c 2
 415 109 l 2
 415 37 455 31 468 31 c 0
 471 31 485 30 488 30 c 0
 498 30 503 21 503 16 c 0
 503 3 497 0 479 0 c 0
 465 0 410 1 379 1 c 0
 314 1 310 -3 269 -3 c 0
 247 -3 241 1 241 8 c 0
 241 29 263 22 284 28 c 0
 304 34 326 50 326 89 c 0
 326 114 328 107 328 292 c 0
 328 353 314 354 171 570 c 0
 105 670 74 675 45 675 c 0
 36 675 20 675 20 688 c 0
258 855 m 0
 258 872 283 906 305 906 c 0
 328 906 353 875 353 855 c 0
 353 831 319 802 310 802 c 0
 281 802 258 839 258 855 c 0
418 855 m 0
 418 872 443 906 465 906 c 0
 488 906 513 875 513 855 c 0
 513 831 478 802 469 802 c 0
 440 802 418 839 418 855 c 0
EndSplineSet
EndChar
StartChar: Zacute
Encoding: 377 377 464
Width: 563
Flags: MW
LayerCount: 2
Back
Fore
SplineSet
20 14 m 0
 20 27 51 58 96 139 c 0
 172 274 393 620 393 646 c 0
 393 656 375 657 350 657 c 0
 259 657 204 654 167 653 c 0
 73 651 65 558 48 558 c 0
 43 558 35 561 35 574 c 0
 35 609 43 624 43 640 c 0
 43 656 45 662 48 687 c 0
 50 704 56 708 76 708 c 0
 97 708 163 705 292 705 c 0
 410 705 384 706 472 706 c 0
 501 706 515 703 515 691 c 0
 515 666 148 85 148 64 c 0
 148 44 200 44 264 44 c 0
 389 44 441 47 491 75 c 0
 519 91 523 110 535 110 c 0
 536 110 543 109 543 99 c 0
 543 84 527 55 512 31 c 0
 501 13 499 0 470 0 c 0
 363 0 372 -1 287 -1 c 0
 29 -1 122 -2 40 -2 c 0
 29 -2 20 0 20 14 c 0
236 755 m 0
 236 769 259 782 311 907 c 0
 318 923 328 926 332 926 c 0
 336 926 384 921 384 900 c 0
 384 879 328 818 287 775 c 0
 272 759 256 744 248 744 c 0
 242 744 236 749 236 755 c 0
EndSplineSet
EndChar
StartChar: zacute
Encoding: 378 378 473
Width: 378
Flags: MW
LayerCount: 2
Back
Fore
SplineSet
40 15 m 0
 40 33 45 35 74 77 c 0
 128 155 257 341 257 356 c 0
 257 358 247 361 234 361 c 0
 213 361 139 355 112 354 c 0
 71 352 64 297 50 297 c 0
 48 297 42 299 42 308 c 0
 42 349 52 388 55 408 c 0
 56 418 65 426 75 426 c 0
 86 426 118 423 182 423 c 0
 241 423 285 426 329 426 c 0
 335 426 341 422 341 416 c 0
 341 400 319 381 312 370 c 0
 206 204 118 101 118 73 c 0
 118 66 142 64 167 64 c 0
 186 64 205 65 216 65 c 0
 308 65 303 100 316 126 c 0
 320 134 324 140 333 140 c 0
 339 140 349 136 349 126 c 0
 349 125 335 88 325 65 c 0
 314 40 313 2 294 2 c 2
 180 2 l 2
 165 2 135 1 107 1 c 2
 90 1 l 2
 61 1 65 0 59 0 c 0
 49 0 40 4 40 15 c 0
159 491 m 0
 159 505 182 518 234 643 c 0
 241 659 251 662 255 662 c 0
 259 662 307 657 307 636 c 0
 307 615 251 554 210 511 c 0
 195 495 179 480 171 480 c 0
 165 480 159 485 159 491 c 0
EndSplineSet
EndChar
StartChar: florin
Encoding: 402 402 104
Width: 317
Flags: MW
LayerCount: 2
Back
Fore
SplineSet
-43 -156 m 0
 -43 -148 -34 -88 -14 -88 c 0
 -9 -88 -2 -92 -1 -102 c 0
 3 -126 24 -138 29 -138 c 0
 61 -138 63 -20 76 73 c 0
 116 361 116 359 116 361 c 0
 116 369 113 375 106 375 c 0
 48 375 57 374 45 374 c 0
 23 374 20 380 20 392 c 0
 20 411 23 417 46 417 c 2
 46 417 96 415 118 415 c 0
 121 415 124 416 125 423 c 0
 135 492 153 587 211 670 c 0
 246 719 284 750 337 750 c 0
 370 750 384 740 384 714 c 0
 384 706 381 657 367 657 c 0
 346 657 329 698 284 698 c 0
 232 698 185 439 185 425 c 0
 185 417 189 416 197 416 c 0
 218 416 252 417 278 417 c 0
 293 417 297 411 297 401 c 0
 297 391 294 373 277 373 c 0
 238 373 220 376 193 376 c 0
 175 376 176 363 176 360 c 0
 168 304 146 -7 119 -72 c 0
 80 -166 14 -179 -7 -179 c 0
 -24 -179 -43 -172 -43 -156 c 0
EndSplineSet
EndChar
StartChar: Ghook
Encoding: 403 403 595
Width: 818
Flags: MW
LayerCount: 2
Back
Fore
SplineSet
44 329 m 0
 44 542 176 719 432 719 c 0
 597 719 673 655 695 639 c 1
 744 711 813 747 856 747 c 0
 887 747 908 736 908 719 c 0
 908 713 905 703 902 691 c 0
 896 671 895 659 879 659 c 0
 867 659 871 685 808 685 c 0
 769 685 744 658 728 619 c 1
 732 563 741 515 741 504 c 0
 741 488 733 487 729 487 c 0
 723 487 715 492 712 499 c 0
 666 600 542 680 426 680 c 0
 266 680 138 575 138 384 c 0
 138 203 247 24 435 24 c 0
 539 24 635 79 644 139 c 0
 645 147 647 224 647 265 c 0
 647 294 640 311 630 321 c 0
 618 333 601 335 586 337 c 0
 566 339 549 339 549 359 c 0
 549 365 553 370 567 370 c 0
 592 370 653 365 678 365 c 0
 724 365 770 366 773 366 c 0
 777 366 789 365 789 357 c 0
 789 341 740 341 735 311 c 0
 730 280 728 242 728 199 c 0
 728 110 733 98 733 87 c 0
 733 75 705 79 670 60 c 0
 658 53 555 -17 444 -17 c 0
 142 -17 44 158 44 329 c 0
EndSplineSet
EndChar
StartChar: clickalveolar
Encoding: 450 450 590
Width: 583
Flags: MW
LayerCount: 2
Back
Fore
SplineSet
83 186 m 256
 83 199 89 206 102 206 c 2
 271 206 l 1
 271 363 l 1
 102 363 l 2
 89 363 83 370 83 383 c 256
 83 396 89 403 102 403 c 2
 271 403 l 1
 271 620 l 2
 271 632 278 638 292 638 c 256
 305 638 312 632 312 620 c 2
 312 403 l 1
 482 403 l 2
 494 403 500 396 500 383 c 256
 500 370 494 363 482 363 c 2
 312 363 l 1
 312 206 l 1
 482 206 l 2
 494 206 500 199 500 186 c 256
 500 173 494 166 482 166 c 2
 312 166 l 1
 312 -51 l 2
 312 -63 305 -69 292 -69 c 256
 279 -69 272 -63 271 -51 c 2
 271 166 l 1
 102 166 l 2
 89 166 83 173 83 186 c 256
EndSplineSet
Colour: ffff00
EndChar
StartChar: acaron
Encoding: 462 462 365
Width: 461
Flags: MW
LayerCount: 2
Back
Fore
SplineSet
48 85 m 0
 48 193 153 203 278 225 c 0
 289 227 295 228 295 241 c 0
 295 261 297 277 297 293 c 0
 297 380 228 401 200 401 c 0
 137 401 128 366 128 341 c 0
 128 326 132 314 132 305 c 0
 132 288 125 285 114 285 c 0
 102 285 52 290 52 324 c 0
 52 375 134 434 220 434 c 0
 370 434 370 346 370 308 c 0
 370 178 365 197 365 122 c 0
 365 -11 441 49 441 13 c 0
 441 -2 420 -8 378 -8 c 0
 320 -8 303 47 298 47 c 0
 294 47 238 -15 166 -15 c 0
 123 -15 96 -9 73 15 c 0
 55 33 48 58 48 85 c 0
109 641 m 0
 109 649 117 649 120 649 c 0
 133 649 215 564 222 564 c 0
 235 564 311 648 325 648 c 0
 328 648 335 647 335 642 c 0
 335 640 333 637 331 633 c 0
 244 506 254 493 237 493 c 2
 212 493 l 2
 206 493 200 493 194 504 c 0
 156 572 109 631 109 641 c 0
126 100 m 0
 126 55 153 25 203 25 c 0
 295 25 295 94 295 127 c 2
 295 199 l 2
 295 205 292 208 288 208 c 0
 285 208 281 206 278 206 c 0
 214 195 126 183 126 100 c 0
EndSplineSet
EndChar
StartChar: Icaron
Encoding: 463 463 357
Width: 328
Flags: MW
LayerCount: 2
Back
Fore
SplineSet
20 695 m 0
 20 702 24 710 48 710 c 0
 76 710 105 706 161 706 c 0
 204 706 186 708 249 708 c 0
 256 708 276 707 276 694 c 0
 276 685 259 679 230 667 c 0
 202 656 198 591 198 552 c 0
 198 317 195 274 195 182 c 0
 195 121 201 89 220 61 c 0
 241 32 258 30 268 30 c 0
 271 30 285 29 288 29 c 0
 298 29 309 23 309 18 c 0
 309 2 301 0 284 0 c 0
 230 0 222 4 189 4 c 0
 137 4 115 -1 79 -1 c 0
 38 -1 34 6 34 14 c 0
 34 41 93 13 108 78 c 0
 110 86 119 277 119 345 c 2
 119 402 l 2
 119 431 120 469 120 510 c 2
 120 556 l 2
 120 582 119 607 116 629 c 0
 111 665 69 679 41 680 c 0
 21 681 20 690 20 695 c 0
38 904 m 0
 38 912 46 912 49 912 c 0
 62 912 144 827 151 827 c 0
 164 827 240 911 254 911 c 0
 257 911 264 910 264 905 c 0
 264 903 262 900 260 896 c 0
 173 769 183 756 166 756 c 2
 141 756 l 2
 135 756 129 756 123 767 c 0
 85 835 38 894 38 904 c 0
EndSplineSet
EndChar
StartChar: Ocaron
Encoding: 465 465 360
Width: 853
Flags: MW
LayerCount: 2
Back
Fore
SplineSet
44 339 m 0
 44 554 176 722 431 722 c 0
 733 722 809 494 809 392 c 0
 809 111 636 -16 417 -16 c 0
 169 -16 44 159 44 339 c 0
132 390 m 0
 132 263 223 28 449 28 c 0
 560 28 727 116 727 300 c 0
 727 552 573 682 397 682 c 0
 263 682 132 594 132 390 c 0
305 904 m 0
 305 912 313 912 316 912 c 0
 329 912 411 827 418 827 c 0
 431 827 507 911 521 911 c 0
 524 911 531 910 531 905 c 0
 531 903 529 900 527 896 c 0
 440 769 450 756 433 756 c 2
 408 756 l 2
 402 756 396 756 390 767 c 0
 352 835 305 894 305 904 c 0
EndSplineSet
EndChar
StartChar: ocaron
Encoding: 466 466 372
Width: 547
Flags: MW
LayerCount: 2
Back
Fore
SplineSet
39 203 m 0
 39 316 118 431 275 431 c 0
 392 431 508 355 508 209 c 0
 508 59 388 -18 268 -18 c 0
 115 -18 39 92 39 203 c 0
118 237 m 0
 118 91 213 12 298 12 c 0
 369 12 433 66 433 179 c 0
 433 285 374 404 251 404 c 0
 193 404 118 361 118 237 c 0
153 640 m 0
 153 648 161 648 164 648 c 0
 177 648 259 563 266 563 c 0
 279 563 355 647 369 647 c 0
 372 647 379 646 379 641 c 0
 379 639 377 636 375 632 c 0
 288 505 298 492 281 492 c 2
 256 492 l 2
 250 492 244 492 238 503 c 0
 200 571 153 630 153 640 c 0
EndSplineSet
EndChar
StartChar: udieresismacron
Encoding: 470 470 454
Width: 576
Flags: MW
LayerCount: 2
Back
Fore
SplineSet
29 394 m 0
 29 407 38 416 96 416 c 0
 109 416 147 421 153 421 c 0
 176 421 176 418 176 371 c 0
 176 318 171 300 171 195 c 0
 171 63 238 34 282 34 c 0
 365 34 404 63 404 156 c 2
 402 294 l 2
 402 356 399 378 356 382 c 0
 345 383 334 387 334 395 c 0
 334 409 354 418 422 418 c 0
 437 418 449 423 458 423 c 0
 479 423 482 418 482 395 c 0
 482 389 477 276 477 140 c 0
 477 60 483 35 505 35 c 0
 514 35 523 36 531 36 c 0
 545 36 555 33 555 23 c 0
 555 7 546 6 518 6 c 0
 488 6 427 -5 417 -5 c 0
 404 -5 405 46 399 46 c 0
 391 46 345 -18 255 -18 c 0
 155 -18 94 34 94 156 c 0
 94 318 95 300 95 336 c 0
 95 366 75 380 65 380 c 2
 47 380 l 2
 36 380 29 383 29 394 c 0
164 591 m 0
 164 608 189 642 211 642 c 0
 234 642 259 611 259 591 c 0
 259 567 225 538 216 538 c 0
 187 538 164 575 164 591 c 0
174 739 m 0
 174 754 183 758 190 758 c 0
 330 758 284 756 371 756 c 0
 383 756 386 754 386 727 c 0
 386 715 374 713 372 713 c 0
 354 713 220 714 184 714 c 0
 180 714 174 716 174 739 c 0
324 591 m 0
 324 608 349 642 371 642 c 0
 394 642 419 611 419 591 c 0
 419 567 384 538 375 538 c 0
 346 538 324 575 324 591 c 0
EndSplineSet
EndChar
StartChar: Udieresisacute
Encoding: 471 471 544
Width: 815
Flags: MW
LayerCount: 2
Back
Fore
SplineSet
20 697 m 0
 20 704 20 710 43 710 c 0
 71 710 100 706 156 706 c 0
 203 706 175 708 250 708 c 0
 259 708 271 707 271 694 c 0
 271 660 201 724 201 580 c 2
 201 552 l 2
 201 465 200 395 200 336 c 0
 200 199 200 28 432 28 c 0
 544 28 691 29 691 324 c 0
 691 494 690 494 690 536 c 0
 690 590 689 646 654 670 c 0
 630 687 592 676 592 692 c 0
 592 700 596 708 612 708 c 0
 624 708 678 706 689 706 c 0
 731 706 755 709 774 709 c 0
 795 709 795 701 795 696 c 0
 795 680 758 674 747 653 c 0
 738 636 736 624 736 587 c 0
 736 570 737 550 737 520 c 0
 737 138 698 55 575 3 c 0
 539 -12 466 -19 432 -19 c 0
 310 -19 243 1 195 45 c 0
 115 118 114 209 114 414 c 2
 114 431 l 2
 114 500 116 544 116 575 c 0
 116 644 110 668 42 678 c 0
 21 681 20 692 20 697 c 0
320 855 m 0
 320 872 345 906 367 906 c 0
 390 906 415 875 415 855 c 0
 415 831 381 802 372 802 c 0
 343 802 320 839 320 855 c 0
398 955 m 4
 398 969 421 982 473 1107 c 4
 480 1123 490 1126 494 1126 c 4
 498 1126 546 1121 546 1100 c 4
 546 1079 490 1018 449 975 c 4
 434 959 418 944 410 944 c 4
 404 944 398 949 398 955 c 4
480 855 m 0
 480 872 505 906 527 906 c 0
 550 906 575 875 575 855 c 0
 575 831 540 802 531 802 c 0
 502 802 480 839 480 855 c 0
EndSplineSet
EndChar
StartChar: gacute
Encoding: 501 501 552
Width: 488
Flags: MW
LayerCount: 2
Back
Fore
SplineSet
39 -97 m 0
 39 -36 111 -22 111 -12 c 0
 111 -6 78 3 78 47 c 0
 78 115 130 136 130 146 c 0
 130 162 62 175 62 280 c 0
 62 332 92 433 235 433 c 0
 323 433 347 393 361 393 c 0
 376 393 393 403 412 411 c 0
 438 422 431 459 448 459 c 0
 451 459 461 459 461 451 c 0
 461 416 448 374 439 360 c 0
 428 343 412 335 398 329 c 1
 398 329 409 299 409 279 c 0
 409 194 336 127 244 127 c 0
 199 127 182 136 167 136 c 0
 165 136 122 134 122 87 c 0
 122 38 173 35 256 35 c 2
 302 35 l 2
 349 35 447 32 447 -53 c 0
 447 -70 446 -86 440 -100 c 0
 414 -165 328 -207 225 -207 c 0
 147 -207 39 -184 39 -97 c 0
97 -91 m 0
 97 -154 159 -180 225 -180 c 0
 302 -180 386 -145 386 -89 c 0
 386 -38 332 -38 275 -38 c 2
 266 -38 l 2
 213 -38 154 -24 143 -24 c 0
 134 -24 97 -49 97 -91 c 0
138 290 m 0
 138 210 180 150 238 150 c 0
 301 150 331 207 331 269 c 0
 331 338 295 411 227 411 c 0
 181 411 138 371 138 290 c 0
194 491 m 4
 194 505 217 518 269 643 c 4
 276 659 286 662 290 662 c 4
 294 662 342 657 342 636 c 4
 342 615 286 554 245 511 c 4
 230 495 214 480 206 480 c 4
 200 480 194 485 194 491 c 4
EndSplineSet
EndChar
StartChar: ngrave
Encoding: 505 505 453
Width: 591
Flags: MW
LayerCount: 2
Back
Fore
SplineSet
31 390 m 0
 31 403 58 402 80 408 c 0
 124 420 159 442 169 442 c 2
 171 442 l 2
 178 442 180 437 180 430 c 0
 180 423 178 403 178 387 c 0
 178 369 179 361 183 361 c 0
 190 361 194 380 230 402 c 0
 254 417 285 430 317 430 c 0
 459 430 489 315 489 262 c 0
 489 245 490 262 490 119 c 2
 490 97 l 2
 490 51 494 33 551 24 c 0
 569 21 571 17 571 9 c 0
 571 1 561 -1 551 -1 c 0
 510 -1 491 4 469 4 c 0
 444 4 404 0 392 0 c 0
 379 0 372 5 372 13 c 0
 372 27 395 27 397 28 c 0
 417 34 419 68 419 95 c 2
 419 230 l 2
 419 341 353 386 290 386 c 0
 224 386 182 337 178 325 c 0
 173 311 169 200 169 167 c 2
 169 129 l 2
 169 71 174 32 226 28 c 0
 232 28 267 25 267 13 c 0
 267 2 257 0 248 0 c 0
 211 0 221 4 175 4 c 0
 132 4 72 0 63 0 c 0
 51 0 48 4 48 10 c 0
 48 41 97 -13 101 106 c 0
 103 162 103 152 103 181 c 2
 103 325 l 2
 103 372 83 379 60 379 c 2
 50 379 l 2
 36 379 31 383 31 390 c 0
176 636 m 0
 176 657 225 662 229 662 c 0
 233 662 242 659 249 643 c 0
 301 518 325 505 325 491 c 0
 325 485 319 480 313 480 c 0
 305 480 289 495 274 511 c 0
 233 554 176 615 176 636 c 0
EndSplineSet
EndChar
StartChar: aeacute
Encoding: 509 509 380
Width: 723
Flags: MW
LayerCount: 2
Back
Fore
SplineSet
48 85 m 0
 48 194 155 203 281 226 c 0
 295 229 297 226 297 293 c 0
 297 379 229 401 200 401 c 0
 137 401 128 366 128 341 c 0
 128 326 132 314 132 305 c 0
 132 288 125 285 114 285 c 0
 102 285 52 290 52 324 c 0
 52 375 134 434 220 434 c 0
 344 434 351 375 360 375 c 0
 366 375 409 432 499 432 c 0
 649 432 683 288 683 273 c 0
 683 259 670 255 642 255 c 2
 415 255 l 1
 385 255 l 2
 374 255 374 254 374 244 c 0
 374 111 459 42 542 42 c 0
 613 42 657 87 674 87 c 0
 679 87 684 82 684 78 c 0
 684 67 624 -19 507 -19 c 0
 376 -19 332 69 327 69 c 0
 321 69 283 -15 166 -15 c 0
 123 -15 96 -9 73 15 c 0
 55 33 48 58 48 85 c 0
126 100 m 0
 126 55 153 25 203 25 c 0
 295 25 295 94 295 127 c 2
 295 199 l 2
 295 205 295 208 291 208 c 2
 291 208 227 200 190 185 c 0
 154 170 126 146 126 100 c 0
282 491 m 0
 282 505 305 518 357 643 c 0
 364 659 374 662 378 662 c 0
 382 662 430 657 430 636 c 0
 430 615 374 554 333 511 c 0
 318 495 302 480 294 480 c 0
 288 480 282 485 282 491 c 0
380 293 m 0
 380 284 382 279 393 279 c 0
 439 279 552 285 569 285 c 0
 588 285 590 288 590 297 c 0
 590 323 561 407 482 407 c 0
 410 407 380 328 380 293 c 0
EndSplineSet
EndChar
StartChar: dotlessj
Encoding: 567 567 394
Width: 281
Flags: MW
LayerCount: 2
Back
Fore
SplineSet
23 -137 m 0
 23 -120 28 -108 45 -108 c 0
 66 -108 87 -151 103 -151 c 0
 120 -151 126 -117 126 10 c 2
 126 314 l 2
 126 336 125 373 67 373 c 0
 58 373 51 374 51 383 c 0
 51 396 80 391 139 419 c 0
 160 429 178 440 186 440 c 0
 197 440 198 430 198 417 c 2
 198 406 l 2
 198 390 196 371 196 359 c 2
 196 35 l 2
 196 -59 169 -200 64 -200 c 0
 39 -200 25 -193 25 -173 c 0
 25 -162 23 -148 23 -137 c 0
EndSplineSet
EndChar
StartChar: aturn
Encoding: 592 592 601
Width: 461
Flags: MW
LayerCount: 2
Back
Fore
SplineSet
11 409 m 0
 11 424 32 430 74 430 c 0
 132 430 149 375 154 375 c 0
 158 375 214 437 286 437 c 0
 329 437 356 431 379 407 c 0
 397 389 404 364 404 337 c 0
 404 229 299 219 174 197 c 0
 163 195 157 194 157 181 c 0
 157 161 155 145 155 129 c 0
 155 42 224 21 252 21 c 0
 315 21 324 56 324 81 c 0
 324 96 320 108 320 117 c 0
 320 134 327 137 338 137 c 0
 350 137 400 132 400 98 c 0
 400 47 318 -12 232 -12 c 0
 82 -12 82 76 82 114 c 0
 82 244 87 225 87 300 c 0
 87 433 11 373 11 409 c 0
157 223 m 2
 157 217 160 214 164 214 c 0
 167 214 171 216 174 216 c 0
 238 227 326 239 326 322 c 0
 326 367 299 397 249 397 c 0
 157 397 157 328 157 295 c 2
 157 223 l 2
EndSplineSet
EndChar
StartChar: ascriptturn
Encoding: 594 594 605
Width: 559
Flags: MW
LayerCount: 2
Back
Fore
SplineSet
21 399 m 0
 21 415 30 416 58 416 c 0
 88 416 149 427 159 427 c 0
 172 427 168 365 174 365 c 0
 191 365 217 446 331 446 c 0
 384 446 416 432 447 406 c 0
 519 346 520 279 520 246 c 0
 520 64 388 -10 277 -10 c 0
 195 -10 149 41 148 41 c 0
 137 41 122 -23 99 -23 c 0
 93 -23 90 -20 90 -7 c 0
 90 23 99 37 99 190 c 0
 99 373 99 146 99 282 c 0
 99 362 93 387 71 387 c 0
 62 387 53 386 45 386 c 0
 31 386 21 389 21 399 c 0
170 120 m 2
 170 63 244 19 300 19 c 0
 349 19 450 54 450 205 c 0
 450 343 350 393 294 393 c 0
 170 393 170 321 170 283 c 2
 170 120 l 2
EndSplineSet
EndChar
StartChar: bhook
Encoding: 595 595 591
Width: 547
Flags: MW
LayerCount: 2
Back
Fore
SplineSet
70 -4 m 0
 70 20 74 72 74 78 c 0
 74 154 83 229 83 342 c 2
 83 342 83 424 83 438 c 0
 83 644 236 747 308 747 c 0
 339 747 360 736 360 719 c 0
 360 713 357 703 354 691 c 0
 348 671 347 659 331 659 c 0
 319 659 323 685 260 685 c 0
 176 685 155 556 155 458 c 0
 155 432 157 375 162 375 c 0
 178 375 178 442 320 442 c 0
 446 442 508 336 508 235 c 0
 508 182 479 80 417 33 c 0
 380 5 334 -11 278 -11 c 0
 185 -11 138 47 131 47 c 0
 120 47 107 -17 82 -17 c 0
 72 -17 70 -13 70 -4 c 0
155 132 m 2
 155 109 199 25 301 25 c 0
 398 25 443 102 443 185 c 0
 443 282 381 388 267 388 c 0
 238 388 208 378 187 360 c 0
 158 336 155 325 155 313 c 2
 155 132 l 2
EndSplineSet
EndChar
StartChar: ccurl
Encoding: 597 597 610
Width: 452
Flags: MW
LayerCount: 2
Back
Fore
SplineSet
39 192 m 0
 39 314 129 429 271 429 c 0
 312 429 386 415 388 396 c 0
 389 384 390 366 390 349 c 0
 390 326 387 305 379 305 c 0
 365 305 363 323 346 337 c 0
 323 357 266 390 213 390 c 0
 193 390 114 363 114 224 c 0
 114 153 149 87 204 54 c 1
 229 112 269 154 330 154 c 0
 386 154 416 116 416 77 c 0
 416 22 358 -21 246 -21 c 0
 237 -21 228 -21 220 -20 c 1
 214 -44 210 -69 208 -96 c 0
 207 -110 195 -115 188 -116 c 0
 181 -117 169 -114 170 -98 c 0
 172 -70 177 -41 183 -13 c 1
 95 10 39 82 39 192 c 0
239 38 m 1
 253 33 269 31 285 31 c 0
 311 31 377 40 377 77 c 0
 377 102 353 117 330 117 c 0
 292 117 260 86 239 38 c 1
EndSplineSet
EndChar
StartChar: drthook
Encoding: 598 598 571
Width: 565
Flags: MW
LayerCount: 2
Back
Fore
SplineSet
39 195 m 0
 39 314 120 438 282 438 c 0
 327 438 382 409 396 409 c 0
 399 409 401 415 401 445 c 0
 401 574 403 538 403 574 c 0
 403 641 403 686 350 686 c 2
 339 686 l 2
 318 686 318 687 318 694 c 2
 318 695 l 2
 318 710 352 707 431 743 c 0
 443 748 458 758 470 758 c 0
 477 758 482 753 482 738 c 0
 482 717 469 605 469 521 c 0
 469 341 467 10 467 10 c 2
 467 -117 473 -151 490 -151 c 0
 506 -151 527 -108 548 -108 c 0
 565 -108 570 -120 570 -137 c 0
 570 -148 568 -162 568 -173 c 0
 568 -193 554 -200 529 -200 c 0
 424 -200 397 -70 397 35 c 8
 397 43 390 51 382 51 c 0
 371 51 331 -14 236 -14 c 0
 105 -14 39 88 39 195 c 0
111 242 m 0
 111 150 173 38 277 38 c 0
 335 38 396 71 396 117 c 0
 397 288 397 271 397 288 c 0
 397 343 383 357 369 365 c 0
 337 384 286 409 250 409 c 0
 161 409 111 335 111 242 c 0
EndSplineSet
EndChar
StartChar: dhook
Encoding: 599 599 592
Width: 565
Flags: MW
LayerCount: 2
Back
Fore
SplineSet
39 195 m 0
 39 314 120 438 282 438 c 0
 327 438 382 409 396 409 c 0
 399 409 401 415 401 445 c 0
 401 651 549 747 621 747 c 0
 652 747 673 736 673 719 c 0
 673 713 670 703 667 691 c 0
 661 671 660 659 644 659 c 0
 632 659 636 685 573 685 c 0
 489 685 468 556 468 458 c 0
 468 278 467 228 467 156 c 0
 467 65 473 44 502 35 c 0
 518 30 545 31 545 14 c 0
 545 9 541 2 468 -4 c 0
 439 -6 417 -14 405 -14 c 0
 398 -14 394 -11 394 -3 c 0
 394 6 391 16 391 34 c 0
 391 41 390 51 382 51 c 0
 371 51 331 -14 236 -14 c 0
 105 -14 39 88 39 195 c 0
111 242 m 0
 111 150 173 38 277 38 c 0
 335 38 396 71 396 117 c 0
 397 288 397 271 397 288 c 0
 397 343 383 357 369 365 c 0
 337 384 286 409 250 409 c 0
 161 409 111 335 111 242 c 0
EndSplineSet
EndChar
StartChar: ereversed
Encoding: 600 600 598
Width: 466
Flags: MW
LayerCount: 2
Back
Fore
SplineSet
39 87 m 0
 39 91 44 96 49 96 c 0
 66 96 109 51 180 51 c 0
 263 51 349 120 349 253 c 0
 349 263 349 264 338 264 c 2
 308 264 l 1
 81 264 l 2
 53 264 40 268 40 282 c 0
 40 297 74 441 224 441 c 0
 346 441 427 333 427 203 c 0
 427 54 323 -10 216 -10 c 0
 99 -10 39 76 39 87 c 0
133 306 m 0
 133 297 135 294 154 294 c 0
 171 294 284 288 330 288 c 0
 341 288 343 293 343 302 c 0
 343 337 313 416 241 416 c 0
 162 416 133 332 133 306 c 0
EndSplineSet
EndChar
StartChar: schwahook
Encoding: 602 602 388
Width: 652
Flags: MW
LayerCount: 2
Back
Fore
SplineSet
39 344 m 0
 39 355 99 441 216 441 c 0
 307 441 395 395 420 290 c 1
 470 307 l 2
 484 312 490 313 496 307 c 0
 501 302 501 286 501 275 c 0
 501 253 515 233 545 233 c 0
 575 233 595 253 595 276 c 0
 595 290 602 300 614 300 c 0
 628 300 632 284 632 270 c 0
 632 235 589 196 546 196 c 0
 500 196 466 231 466 267 c 1
 426 254 l 1
 427 246 427 237 427 228 c 0
 427 98 346 -10 224 -10 c 0
 74 -10 40 134 40 149 c 0
 40 155 42 159 47 162 c 2
 46 162 l 1
 336 261 l 1
 309 339 243 380 180 380 c 0
 109 380 66 335 49 335 c 0
 44 335 39 340 39 344 c 0
133 125 m 0
 133 99 162 15 241 15 c 0
 313 15 348 95 348 130 c 0
 348 139 349 168 349 178 c 0
 349 196 348 212 345 227 c 1
 153 164 l 2
 134 155 133 133 133 125 c 0
EndSplineSet
EndChar
StartChar: eopenreversed
Encoding: 604 604 599
Width: 452
Flags: MW
LayerCount: 2
Back
Fore
SplineSet
24 73 m 0
 24 78 29 83 35 83 c 0
 48 83 87 31 167 31 c 0
 264 31 338 78 338 130 c 0
 338 194 259 208 239 208 c 2
 142 208 l 2
 133 208 125 214 125 223 c 0
 125 233 127 240 142 240 c 0
 280 240 299 278 299 321 c 0
 299 379 271 390 239 390 c 0
 186 390 129 357 106 337 c 0
 89 323 87 305 73 305 c 0
 65 305 62 326 62 349 c 0
 62 366 63 384 64 396 c 0
 66 415 140 429 181 429 c 0
 323 429 377 358 377 307 c 0
 377 266 352 237 290 225 c 1
 372 208 413 170 413 114 c 0
 413 45 330 -21 206 -21 c 0
 77 -21 24 64 24 73 c 0
EndSplineSet
EndChar
StartChar: eopenreversedclosed
Encoding: 606 606 600
Width: 492
Flags: MW
LayerCount: 2
Back
Fore
SplineSet
18 215 m 0
 18 288 50 392 140 418 c 1
 141 418 l 1
 166 425 198 429 221 429 c 0
 363 429 417 358 417 307 c 0
 417 266 392 237 330 225 c 1
 412 208 453 170 453 114 c 0
 453 45 370 -21 246 -21 c 0
 134 -21 75 39 63 62 c 0
 31 108 18 166 18 215 c 0
59 221 m 0
 62 141 96 82 143 47 c 0
 160 34 177 31 207 31 c 0
 304 31 378 78 378 130 c 0
 378 194 299 208 279 208 c 2
 182 208 l 2
 173 208 165 214 165 223 c 0
 165 233 167 240 182 240 c 0
 320 240 339 278 339 321 c 0
 339 379 311 390 279 390 c 0
 252 390 239 390 210 387 c 0
 69 372 57 267 59 221 c 0
EndSplineSet
EndChar
StartChar: jdotlessbar
Encoding: 607 607 578
Width: 281
Flags: MW
LayerCount: 2
Back
Fore
SplineSet
0 214 m 0
 0 236 10 238 34 238 c 2
 126 238 l 1
 126 314 l 2
 126 336 125 373 67 373 c 0
 58 373 51 374 51 383 c 0
 51 396 80 391 139 419 c 0
 160 429 178 440 186 440 c 0
 197 440 198 430 198 417 c 2
 198 406 l 2
 198 390 196 371 196 359 c 2
 196 238 l 1
 260 238 l 2
 275 238 281 236 281 208 c 0
 281 195 273 185 260 185 c 2
 196 185 l 1
 196 35 l 2
 196 -59 169 -200 64 -200 c 0
 39 -200 25 -193 25 -173 c 0
 25 -162 23 -148 23 -137 c 0
 23 -120 28 -108 45 -108 c 0
 66 -108 87 -151 103 -151 c 0
 120 -151 126 -117 126 10 c 2
 126 185 l 1
 38 185 l 2
 0 185 0 186 0 214 c 0
EndSplineSet
EndChar
StartChar: ghook
Encoding: 608 608 594
Width: 523
Flags: MW
LayerCount: 2
Back
Fore
SplineSet
39 176 m 0
 39 358 176 432 287 432 c 0
 343 432 385 408 406 393 c 1
 436 550 560 629 623 629 c 0
 654 629 675 618 675 601 c 0
 675 595 672 585 669 573 c 0
 663 553 662 541 646 541 c 0
 634 541 638 567 575 567 c 0
 491 567 470 438 470 340 c 2
 470 232 l 2
 470 49 470 164 470 30 c 0
 470 -92 384 -207 208 -207 c 0
 167 -207 84 -193 82 -174 c 0
 81 -162 80 -144 80 -127 c 0
 80 -104 83 -83 91 -83 c 0
 105 -83 107 -101 124 -115 c 0
 147 -135 213 -168 266 -168 c 0
 316 -168 401 -141 401 -2 c 0
 401 39 399 57 395 57 c 0
 378 57 347 -24 233 -24 c 0
 180 -24 143 -10 112 16 c 0
 40 76 39 143 39 176 c 0
109 217 m 0
 109 79 214 29 270 29 c 0
 394 29 399 101 399 139 c 2
 399 302 l 2
 399 359 320 403 264 403 c 0
 215 403 109 368 109 217 c 0
EndSplineSet
EndChar
StartChar: gscript
Encoding: 609 609 582
Width: 523
Flags: MW
LayerCount: 2
Back
Fore
SplineSet
39 176 m 0
 39 358 176 432 287 432 c 0
 369 432 420 381 421 381 c 0
 432 381 447 445 470 445 c 0
 476 445 479 442 479 429 c 0
 479 399 470 385 470 232 c 0
 470 49 470 164 470 30 c 0
 470 -92 384 -207 208 -207 c 0
 167 -207 84 -193 82 -174 c 0
 81 -162 80 -144 80 -127 c 0
 80 -104 83 -83 91 -83 c 0
 105 -83 107 -101 124 -115 c 0
 147 -135 213 -168 266 -168 c 0
 316 -168 401 -141 401 -2 c 0
 401 39 399 57 395 57 c 0
 378 57 347 -24 233 -24 c 0
 180 -24 143 -10 112 16 c 0
 40 76 39 143 39 176 c 0
109 217 m 0
 109 79 214 29 270 29 c 0
 394 29 399 101 399 139 c 2
 399 302 l 2
 399 359 320 403 264 403 c 0
 215 403 109 368 109 217 c 0
EndSplineSet
EndChar
StartChar: Gsmallcap
Encoding: 610 610 616
Width: 528
Flags: MW
LayerCount: 2
Back
Fore
SplineSet
20 219 m 0
 20 344 107 471 263 471 c 0
 333 471 392 436 412 436 c 0
 424 436 418 449 434 449 c 0
 447 449 443 437 447 385 c 0
 449 354 453 333 453 319 c 0
 453 306 448 302 441 302 c 0
 432 302 427 308 425 314 c 0
 396 402 323 439 258 439 c 0
 221 439 180 425 159 405 c 0
 105 352 102 310 102 231 c 0
 102 113 179 23 270 23 c 0
 300 23 336 33 365 55 c 0
 385 70 386 87 386 118 c 0
 386 165 383 185 325 185 c 0
 304 185 304 196 304 200 c 0
 304 202 305 212 316 212 c 2
 409 212 l 2
 450 212 461 213 483 213 c 0
 493 213 504 212 504 203 c 0
 504 179 459 196 459 163 c 0
 459 121 460 81 460 68 c 0
 460 52 311 -17 246 -17 c 0
 118 -17 20 65 20 219 c 0
EndSplineSet
EndChar
StartChar: gammalatin
Encoding: 611 611 617
Width: 523
Flags: MW
LayerCount: 2
Back
Fore
SplineSet
20 416 m 0
 20 425 33 427 39 427 c 0
 46 427 70 423 110 423 c 0
 139 423 139 422 168 422 c 0
 181 422 196 425 207 425 c 0
 217 425 225 421 225 414 c 0
 225 398 215 397 201 397 c 0
 183 397 159 396 159 369 c 0
 159 348 184 303 228 204 c 0
 249 159 273 95 282 95 c 0
 295 95 394 329 394 360 c 0
 394 420 332 377 332 412 c 0
 332 423 343 425 363 425 c 0
 380 425 403 424 430 424 c 0
 450 424 465 425 476 425 c 0
 499 425 504 421 504 410 c 0
 504 397 486 403 465 374 c 0
 421 313 351 144 301 50 c 1
 326 -5 355 -55 355 -118 c 0
 355 -171 319 -207 266 -207 c 0
 207 -207 170 -176 170 -118 c 0
 170 -67 197 -23 227 19 c 1
 212 53 183 122 119 264 c 0
 45 428 20 391 20 416 c 0
212 -122 m 0
 212 -144 232 -169 254 -169 c 0
 270 -169 288 -144 288 -128 c 0
 288 -100 270 -62 249 -26 c 1
 224 -50 212 -78 212 -122 c 0
EndSplineSet
EndChar
StartChar: ramshorn
Encoding: 612 612 604
Width: 523
Flags: MW
LayerCount: 2
Back
Fore
SplineSet
20 416 m 0
 20 425 33 427 39 427 c 0
 46 427 70 423 110 423 c 0
 139 423 139 422 168 422 c 0
 181 422 196 425 207 425 c 0
 217 425 225 421 225 414 c 0
 225 398 215 397 201 397 c 0
 183 397 159 396 159 382 c 0
 159 361 182 338 228 272 c 0
 249 242 269 205 278 205 c 0
 291 205 408 352 408 374 c 0
 408 411 332 377 332 412 c 0
 332 423 343 425 363 425 c 0
 380 425 403 424 430 424 c 0
 450 424 465 425 476 425 c 0
 499 425 504 421 504 410 c 0
 504 397 486 403 465 374 c 0
 421 313 351 231 301 168 c 1
 326 131 355 96 355 54 c 0
 355 18 319 -6 266 -6 c 0
 207 -6 170 15 170 54 c 0
 170 89 193 122 223 150 c 1
 208 173 183 216 119 312 c 0
 45 423 20 391 20 416 c 0
213 55 m 0
 213 40 232 28 254 28 c 0
 270 28 281 41 281 52 c 0
 281 71 266 96 245 120 c 1
 224 100 213 85 213 55 c 0
EndSplineSet
EndChar
StartChar: hturn
Encoding: 613 613 607
Width: 587
Flags: MW
LayerCount: 2
Back
Fore
SplineSet
20 409 m 0
 20 422 35 425 51 425 c 0
 63 425 114 420 135 420 c 0
 151 420 204 423 212 423 c 0
 225 423 235 421 235 413 c 0
 235 380 181 418 181 350 c 0
 181 333 179 350 179 184 c 0
 179 102 237 34 303 34 c 0
 341 34 377 55 400 73 c 0
 424 92 428 112 428 258 c 2
 428 281 l 2
 428 329 425 376 388 392 c 0
 367 401 337 392 337 410 c 0
 337 416 342 422 348 422 c 0
 349 422 450 417 455 417 c 0
 469 417 511 422 526 422 c 0
 554 422 553 418 553 412 c 0
 553 407 552 402 541 399 c 0
 500 387 495 362 495 322 c 2
 491 -19 l 1
 491 -68 l 2
 491 -117 491 -135 533 -135 c 0
 548 -135 547 -136 550 -136 c 0
 561 -136 567 -140 567 -146 c 0
 567 -165 525 -167 498 -179 c 0
 471 -191 438 -207 426 -207 c 0
 414 -207 413 -191 413 -184 c 0
 413 -170 420 -156 420 -122 c 0
 420 0 427 14 427 43 c 0
 427 55 425 62 419 62 c 0
 409 62 361 -12 278 -12 c 0
 175 -12 107 46 107 185 c 2
 107 330 l 2
 107 345 102 385 74 388 c 0
 44 391 20 397 20 409 c 0
EndSplineSet
EndChar
StartChar: henghook
Encoding: 615 615 613
Width: 587
Flags: MW
LayerCount: 2
Back
Fore
SplineSet
34 10 m 0
 34 15 35 20 46 23 c 0
 87 35 92 60 92 100 c 2
 96 438 l 1
 96 644 244 747 316 747 c 0
 347 747 368 736 368 719 c 0
 368 713 365 703 362 691 c 0
 356 671 355 659 339 659 c 0
 327 659 331 685 268 685 c 0
 184 685 160 556 160 458 c 2
 160 458 160 408 160 379 c 0
 160 367 162 360 168 360 c 0
 178 360 226 434 309 434 c 0
 412 434 480 376 480 237 c 2
 480 237 480 164 480 30 c 4
 480 -92 390 -207 248 -207 c 0
 207 -207 133 -193 131 -174 c 0
 130 -162 129 -144 129 -127 c 0
 129 -104 132 -83 140 -83 c 0
 154 -83 156 -101 173 -115 c 0
 196 -135 253 -168 306 -168 c 0
 326 -168 408 -141 408 -2 c 0
 408 100 408 72 408 238 c 0
 408 320 350 388 284 388 c 0
 246 388 210 367 187 349 c 0
 163 330 159 310 159 164 c 2
 159 141 l 2
 159 93 162 46 199 30 c 0
 220 21 250 30 250 12 c 0
 250 6 245 0 239 0 c 0
 238 0 137 5 132 5 c 0
 118 5 76 0 61 0 c 0
 33 0 34 4 34 10 c 0
EndSplineSet
EndChar
StartChar: ibar
Encoding: 616 616 596
Width: 284
Flags: MW
LayerCount: 2
Back
Fore
SplineSet
0 214 m 0
 0 236 10 238 34 238 c 2
 104 238 l 1
 104 294 l 2
 104 377 68 363 46 371 c 0
 41 373 36 377 36 381 c 0
 36 397 61 398 117 421 c 0
 153 436 151 439 167 439 c 0
 173 439 182 434 182 420 c 0
 182 408 176 389 176 372 c 2
 176 238 l 1
 263 238 l 2
 278 238 284 236 284 208 c 0
 284 195 276 185 263 185 c 2
 176 185 l 1
 176 98 l 2
 176 33 207 27 232 25 c 0
 249 24 262 24 262 10 c 0
 262 4 261 -7 245 -7 c 0
 241 -7 235 -6 230 -6 c 0
 188 -6 197 -4 159 -4 c 0
 117 -4 105 -6 88 -6 c 0
 63 -6 48 -3 48 7 c 0
 48 14 54 23 63 26 c 0
 100 38 104 33 104 185 c 1
 38 185 l 2
 0 185 0 186 0 214 c 0
93 590 m 0
 93 603 121 645 143 645 c 0
 166 645 189 608 189 588 c 0
 189 564 151 533 142 533 c 0
 113 533 93 574 93 590 c 0
EndSplineSet
EndChar
StartChar: Ismallcap
Encoding: 618 618 618
Width: 295
Flags: MW
LayerCount: 2
Back
Fore
SplineSet
20 440 m 0
 20 451 32 459 41 459 c 0
 61 459 61 453 135 453 c 0
 167 453 183 458 229 458 c 0
 234 458 250 457 250 444 c 0
 250 430 232 431 216 423 c 0
 198 415 182 409 182 350 c 0
 182 342 180 125 180 102 c 0
 180 58 200 38 210 33 c 0
 219 29 242 27 259 27 c 0
 265 27 275 23 275 14 c 0
 275 1 268 -3 256 -3 c 0
 217 -3 176 3 152 3 c 0
 114 3 101 0 75 0 c 0
 46 0 44 5 44 14 c 0
 44 22 55 25 64 27 c 0
 102 37 107 56 107 147 c 0
 107 265 108 284 108 343 c 0
 108 358 108 367 100 401 c 0
 95 422 65 424 46 424 c 0
 21 424 20 439 20 440 c 0
EndSplineSet
EndChar
StartChar: lbelt
Encoding: 620 620 567
Width: 359
Flags: MW
LayerCount: 2
Back
Fore
SplineSet
18 375 m 0
 18 423 62 458 109 458 c 0
 118 458 126 457 134 454 c 1
 135 513 135 571 135 617 c 0
 135 648 123 676 111 681 c 0
 104 684 91 685 71 685 c 0
 65 685 60 686 60 693 c 0
 60 712 72 706 128 728 c 0
 154 738 184 756 204 756 c 0
 214 756 216 747 216 737 c 0
 216 722 208 676 208 585 c 2
 208 529 l 2
 208 444 206 446 206 396 c 2
 206 339 l 1
 249 354 286 377 319 394 c 0
 325 397 338 396 342 389 c 0
 346 382 344 367 336 362 c 0
 294 338 254 314 206 299 c 1
 206 98 l 2
 206 66 211 25 287 25 c 0
 294 25 300 17 300 10 c 0
 300 -1 288 -4 269 -4 c 0
 248 -4 199 3 168 3 c 0
 122 3 109 -5 87 -5 c 0
 76 -5 71 2 71 5 c 0
 71 23 90 20 105 27 c 0
 129 38 132 57 132 92 c 0
 132 100 131 108 131 118 c 2
 131 192 l 2
 131 215 132 247 132 285 c 1
 124 284 116 285 108 285 c 0
 54 285 18 325 18 375 c 0
55 373 m 0
 55 345 77 321 108 321 c 0
 116 321 124 321 132 322 c 1
 132 351 133 383 133 415 c 1
 126 420 117 422 108 422 c 0
 80 422 56 402 55 373 c 0
EndSplineSet
EndChar
StartChar: lrthook
Encoding: 621 621 577
Width: 279
Flags: MW
LayerCount: 2
Back
Fore
SplineSet
20 693 m 0
 20 712 32 706 88 728 c 0
 114 738 144 756 164 756 c 0
 174 756 176 747 176 737 c 0
 176 722 168 676 168 585 c 2
 168 529 l 2
 168 444 166 446 166 396 c 2
 166 10 l 2
 166 -117 167 -151 184 -151 c 0
 200 -151 221 -108 242 -108 c 0
 259 -108 264 -120 264 -137 c 0
 264 -148 262 -162 262 -173 c 0
 262 -193 248 -200 223 -200 c 0
 118 -200 91 -59 91 35 c 2
 91 192 l 2
 91 277 95 490 95 617 c 0
 95 648 83 676 71 681 c 0
 64 684 51 685 31 685 c 0
 25 685 20 686 20 693 c 0
EndSplineSet
EndChar
StartChar: lezh
Encoding: 622 622 568
Width: 514
Flags: MW
LayerCount: 2
Back
Fore
SplineSet
20 693 m 0
 20 712 32 706 88 728 c 0
 114 738 144 756 164 756 c 0
 174 756 176 747 176 737 c 0
 176 722 168 676 168 585 c 2
 168 529 l 2
 168 444 166 446 166 396 c 2
 166 391 l 2
 170 394 174 396 179 396 c 0
 190 396 222 393 286 393 c 0
 345 393 389 396 433 396 c 0
 439 396 445 392 445 386 c 0
 445 370 423 351 416 340 c 0
 384 290 354 246 327 208 c 1
 421 188 482 114 482 0 c 0
 482 -122 392 -237 250 -237 c 0
 209 -237 135 -223 133 -204 c 0
 132 -192 131 -174 131 -157 c 0
 131 -134 134 -113 142 -113 c 0
 156 -113 158 -131 175 -145 c 0
 198 -165 255 -198 308 -198 c 0
 328 -198 407 -171 407 -32 c 0
 407 59 356 140 266 158 c 0
 262 159 258 163 261 167 c 2
 261 167 370 324 361 326 c 0
 361 328 351 331 338 331 c 0
 317 331 243 325 216 324 c 0
 187 323 175 295 166 279 c 1
 166 98 l 2
 166 66 171 25 247 25 c 0
 254 25 260 17 260 10 c 0
 260 -1 248 -4 229 -4 c 0
 208 -4 159 3 128 3 c 0
 82 3 69 -5 47 -5 c 0
 36 -5 31 2 31 5 c 0
 31 23 50 20 65 27 c 0
 89 38 92 57 92 92 c 0
 92 100 91 108 91 118 c 2
 91 192 l 2
 91 277 95 490 95 617 c 0
 95 648 83 676 71 681 c 0
 64 684 51 685 31 685 c 0
 25 685 20 686 20 693 c 0
EndSplineSet
EndChar
StartChar: mturn
Encoding: 623 623 602
Width: 827
Flags: MW
LayerCount: 2
Back
Fore
SplineSet
26 411 m 0
 26 426 47 426 58 426 c 0
 71 426 104 422 124 422 c 0
 152 422 175 426 196 426 c 0
 207 426 220 424 220 416 c 0
 220 396 182 399 174 380 c 0
 171 372 170 354 170 334 c 2
 170 318 l 2
 170 97 176 109 208 70 c 0
 225 50 254 39 284 39 c 0
 334 39 386 84 386 93 c 0
 386 106 380 118 380 220 c 2
 380 305 l 2
 380 360 373 391 312 400 c 0
 297 402 294 413 294 416 c 0
 294 427 306 427 312 427 c 0
 329 427 357 422 386 422 c 0
 404 422 467 427 476 427 c 0
 483 427 498 424 498 414 c 0
 498 405 496 402 476 394 c 0
 469 392 452 390 452 332 c 0
 452 318 452 331 452 223 c 0
 452 160 454 166 454 160 c 0
 454 91 491 43 556 43 c 0
 612 43 664 77 664 116 c 2
 664 130 l 1
 664 318 l 2
 664 422 580 387 580 410 c 0
 580 421 579 425 600 425 c 0
 615 425 641 422 684 422 c 0
 724 422 749 425 764 425 c 0
 787 425 788 417 788 410 c 0
 788 389 756 409 742 366 c 0
 736 345 734 285 734 214 c 0
 734 175 734 133 734 92 c 0
 734 22 802 66 802 34 c 0
 802 13 757 18 714 -1 c 0
 693 -10 687 -16 670 -16 c 0
 661 -16 658 -3 658 13 c 0
 658 25 662 47 662 55 c 0
 662 61 662 67 656 67 c 0
 649 67 624 -5 522 -5 c 0
 414 -5 404 74 394 74 c 0
 387 74 338 -8 256 -8 c 0
 152 -8 106 65 98 142 c 0
 93 191 92 234 92 269 c 2
 92 301 l 2
 92 354 90 384 64 392 c 0
 56 394 26 394 26 411 c 0
EndSplineSet
EndChar
StartChar: mhook
Encoding: 625 625 564
Width: 810
Flags: MW
LayerCount: 2
Back
Fore
SplineSet
31 388 m 0
 31 409 76 404 119 423 c 0
 140 432 146 438 163 438 c 0
 172 438 175 425 175 409 c 0
 175 397 170 375 170 367 c 0
 170 361 170 355 176 355 c 0
 183 355 209 427 311 427 c 0
 419 427 429 348 439 348 c 0
 446 348 494 430 576 430 c 0
 680 430 727 357 735 280 c 0
 740 231 741 188 741 153 c 2
 741 153 741 164 741 30 c 0
 741 -92 647 -207 505 -207 c 0
 464 -207 390 -193 388 -174 c 0
 387 -162 386 -144 386 -127 c 0
 386 -104 389 -83 397 -83 c 0
 411 -83 413 -101 430 -115 c 0
 453 -135 510 -168 563 -168 c 0
 583 -168 662 -141 662 -2 c 0
 662 104 l 2
 662 325 656 313 624 352 c 0
 607 372 579 383 549 383 c 0
 499 383 446 338 446 329 c 0
 446 316 452 304 452 202 c 2
 452 117 l 2
 452 62 460 31 521 22 c 0
 536 20 539 9 539 6 c 0
 539 -5 526 -5 520 -5 c 0
 503 -5 476 0 447 0 c 0
 429 0 365 -5 356 -5 c 0
 349 -5 334 -2 334 8 c 0
 334 17 337 20 357 28 c 0
 364 30 380 32 380 90 c 0
 380 104 381 91 381 199 c 0
 381 262 379 256 379 262 c 0
 379 331 342 379 277 379 c 0
 221 379 169 345 169 306 c 2
 169 292 l 1
 169 104 l 2
 169 0 253 35 253 12 c 0
 253 1 253 -3 232 -3 c 0
 217 -3 191 0 148 0 c 0
 108 0 84 -3 69 -3 c 0
 46 -3 45 5 45 12 c 0
 45 33 77 13 91 56 c 0
 97 77 99 137 99 208 c 0
 99 247 98 289 98 330 c 0
 98 400 31 356 31 388 c 0
EndSplineSet
EndChar
StartChar: nhookleft
Encoding: 626 626 579
Width: 591
Flags: MW
LayerCount: 2
Back
Fore
SplineSet
0 -137 m 0
 0 -120 5 -108 22 -108 c 0
 43 -108 64 -151 80 -151 c 0
 97 -151 103 -117 103 10 c 2
 103 10 103 152 103 181 c 2
 103 325 l 2
 103 372 83 379 60 379 c 2
 50 379 l 2
 36 379 31 383 31 390 c 0
 31 403 58 402 80 408 c 0
 124 420 159 442 169 442 c 2
 171 442 l 2
 178 442 180 437 180 430 c 0
 180 423 178 403 178 387 c 0
 178 369 179 361 183 361 c 0
 190 361 194 380 230 402 c 0
 254 417 285 430 317 430 c 0
 459 430 489 315 489 262 c 0
 489 245 490 262 490 119 c 2
 490 97 l 2
 490 51 494 33 551 24 c 0
 569 21 571 17 571 9 c 0
 571 1 561 -1 551 -1 c 0
 510 -1 491 4 469 4 c 0
 444 4 404 0 392 0 c 0
 379 0 372 5 372 13 c 0
 372 27 395 27 397 28 c 0
 417 34 419 68 419 95 c 2
 419 230 l 2
 419 341 353 386 290 386 c 0
 224 386 182 337 178 325 c 0
 173 311 169 200 169 167 c 2
 169 35 l 6
 169 -59 146 -200 41 -200 c 0
 16 -200 2 -193 2 -173 c 0
 2 -162 0 -148 0 -137 c 0
EndSplineSet
EndChar
StartChar: nrthook
Encoding: 627 627 572
Width: 591
Flags: MW
LayerCount: 2
Back
Fore
SplineSet
31 390 m 0
 31 403 58 402 80 408 c 0
 124 420 159 442 169 442 c 2
 171 442 l 2
 178 442 180 437 180 430 c 0
 180 423 178 403 178 387 c 0
 178 369 179 361 183 361 c 0
 190 361 194 380 230 402 c 0
 254 417 285 430 317 430 c 0
 459 430 489 315 489 262 c 0
 489 245 490 262 490 119 c 2
 490 10 l 2
 490 -117 495 -151 512 -151 c 0
 528 -151 549 -108 570 -108 c 0
 587 -108 592 -120 592 -137 c 0
 592 -148 590 -162 590 -173 c 0
 590 -193 576 -200 551 -200 c 0
 446 -200 419 -59 419 35 c 2
 419 230 l 2
 419 341 353 386 290 386 c 0
 224 386 182 337 178 325 c 0
 173 311 169 200 169 167 c 2
 169 129 l 2
 169 71 174 32 226 28 c 0
 232 28 267 25 267 13 c 0
 267 2 257 0 248 0 c 0
 211 0 221 4 175 4 c 0
 132 4 72 0 63 0 c 0
 51 0 48 4 48 10 c 0
 48 41 97 -13 101 106 c 0
 103 162 103 152 103 181 c 2
 103 325 l 2
 103 372 83 379 60 379 c 2
 50 379 l 2
 36 379 31 383 31 390 c 0
EndSplineSet
EndChar
